<?xml version="1.0" encoding="UTF-8"?>
<svg width="22px" height="22px" viewBox="0 0 22 22" version="1.1" xmlns="http://www.w3.org/2000/svg" xmlns:xlink="http://www.w3.org/1999/xlink">
    <!-- Generator: Sketch 52.4 (67378) - http://www.bohemiancoding.com/sketch -->
    <title>银行卡icon-white</title>
    <desc>Created with Sketch.</desc>
    <defs>
        <polygon id="path-1" points="-1.13458134e-15 0 22 0 22 22 -1.13458134e-15 22"></polygon>
    </defs>
    <g id="Page-1" stroke="none" stroke-width="1" fill="none" fill-rule="evenodd">
        <g id="银行卡icon-white">
            <mask id="mask-2" fill="white">
                <use xlink:href="#path-1"></use>
            </mask>
            <g id="Clip-2"></g>
            <path d="M0.0180113314,8.04711914 L22,8.04711914 L21.9819887,6.00024414 L-1.00044417e-11,6.00024414 L0.0180113314,8.04711914 Z M10.9152255,15.0068359 L9.50969216,18 L10.7782965,18 L12.1525852,15.0068359 L10.9152255,15.0068359 Z M14.899656,15.0068359 L13.6630234,15.0068359 L12.319169,18 L13.5863192,18 L14.899656,15.0068359 Z M20.0285645,15.0068359 L16.3646608,15.0068359 L15.0661568,18 L18.6684023,18 L20.0285645,15.0068359 Z M6,9.20135669 C6,9.08723436 6.07778795,9 6.21942139,9 L6.79174805,9 C6.93338148,9 7,9.09396864 7,9.20135669 L7,9.83565521 C7,9.94977754 6.87741157,10 6.73577813,10 L6.25238105,10 C6.11074761,10 6,9.94305965 6,9.83565521 L6,9.20135669 Z M4,9.20135669 C4,9.08723436 4.12396594,9 4.26449699,9 L4.74377547,9 C4.88430653,9 5,9.09396864 5,9.20135669 L5,9.79864331 C5,9.91276564 4.88430653,10 4.74377547,10 L4.25622453,10 C4.11569347,10 4,9.90604775 4,9.79864331 L4,9.20135669 Z M2.0082723,9.20135669 C2.0082723,9.08723436 2.12398362,9 2.26449166,9 L2.74376047,9 C2.88428868,9 3,9.09396864 3,9.20135669 L3,9.79864331 C3,9.91276564 2.88428868,10 2.74376047,10 L2.25621936,10 C2.11569114,10 2,9.90604775 2,9.79864331 L2.0082723,9.20135669 Z M19.4015902,2 C20.0985061,2.01047025 20.7613314,2.30349197 21.2381643,2.81190179 C21.7248234,3.32955619 21.9915656,4.01600189 21.9819887,4.7264627 L21.9819887,17.2918357 C21.9917941,18.0024627 21.7253843,18.6890746 21.2388914,19.2071237 C20.7619754,19.7152842 20.0991501,20.0080774 19.4023173,20.0182984 L2.60944098,20.0182984 C1.91260812,20.0080774 1.24978281,19.7152842 0.772949953,19.2071237 C0.286540132,18.6893239 0.0201303116,18.0028782 0.0297903683,17.2925628 L0.0297903683,4.7257356 C-0.00924457035,3.26658924 1.13641737,2.049339 2.59533522,2 L19.4015902,2 Z" id="Fill-1" fill="#FFFFFF" mask="url(#mask-2)"></path>
        </g>
    </g>
</svg>