<?xml version="1.0" encoding="UTF-8"?>
<svg width="44px" height="22px" viewBox="0 0 44 22" version="1.1" xmlns="http://www.w3.org/2000/svg" xmlns:xlink="http://www.w3.org/1999/xlink">
    <!-- Generator: Sketch 52.4 (67378) - http://www.bohemiancoding.com/sketch -->
    <title>代办</title>
    <desc>Created with Sketch.</desc>
    <g id="代办" stroke="none" stroke-width="1" fill="none" fill-rule="evenodd">
        <path d="M20.8085791,5.42336549 L21.2096515,7.75777063 L13.6836461,8.79528403 C13.8016086,9.97427653 13.9431635,11.0117899 14.1319035,11.9078242 C14.6509383,14.3601286 15.3587131,16.2465166 16.2552279,17.5198285 C17.0809651,18.7459807 17.8595174,19.3826367 18.5908847,19.4297964 C19.1099196,19.3826367 19.5109919,17.9914255 19.7705094,15.2325831 L21.9174263,16.4823151 C21.5871313,18.4158628 21.1624665,19.8306538 20.6198391,20.7738478 C20.1479893,21.528403 19.5109919,21.9056806 18.7324397,21.9292605 C17.552815,21.9292605 16.3260053,21.1511254 15.0520107,19.642015 C13.6600536,17.9914255 12.6219839,15.8220793 11.9378016,13.1339764 C11.6546917,12.0493033 11.4423592,10.7052519 11.2772118,9.12540193 L6.41715817,9.80921758 L6.03967828,7.47481243 L11.0648793,6.76741693 C10.9233244,4.81028939 10.8289544,2.57020364 10.7817694,0.0707395498 L13.2825737,0.0707395498 C13.2825737,2.47588424 13.3533512,4.59807074 13.4949062,6.43729904 L20.8085791,5.42336549 Z M2.87828418,9.69131833 C2.21769437,10.4694534 1.53351206,11.2475884 0.802144771,12.0021436 L0,9.43193998 C2.38284182,6.76741693 4.15227882,3.63129689 5.28471849,0 L7.59678283,1.0846731 C7.030563,2.82958199 6.27560321,4.48017149 5.37908847,6.03644159 L5.37908847,22 L2.87828418,22 L2.87828418,9.69131833 Z M15.7597855,0.16505895 C17.1517426,1.3204716 18.3313673,2.47588424 19.322252,3.63129689 L17.647185,5.28188639 C16.8450402,4.17363344 15.7126005,2.97106109 14.202681,1.67416935 L15.7597855,0.16505895 Z M24.6069705,8.55948553 L26.7774799,9.43193998 C26.0225201,12.2143623 25.0080429,14.3837085 23.7812333,15.8928189 L21.9410188,14.2658092 C23.1442359,12.8274384 24.0407507,10.9174705 24.6069705,8.55948553 Z M29.5142091,0.1886388 L32.0150134,0.1886388 L32.0150134,4.48017149 L39.4230563,4.48017149 C39.3758713,6.17792069 39.3286863,7.75777063 39.2815013,9.19614148 L40.8857909,8.41800643 C41.9474531,10.5401929 42.9855228,12.8745981 44,15.4212219 L41.7351206,16.5294748 C40.9329759,14.3129689 40.1072386,12.3086817 39.2343164,10.4930332 C39.1399464,12.096463 39.0691689,13.511254 38.9747989,14.7374062 C38.738874,17.3311897 38.3378016,19.1468382 37.7715818,20.1843516 C37.2525469,21.1747053 36.3796247,21.693462 35.152815,21.7877814 L32.3217158,21.7877814 L31.661126,19.4062165 C32.4632708,19.4533762 33.2182306,19.5005359 33.9260054,19.5005359 C35.058445,19.5005359 35.8134048,18.7224009 36.1908847,17.1661308 C36.5447721,15.562701 36.7806971,12.1200429 36.8986595,6.86173633 L31.9206434,6.86173633 C31.6847185,10.6345123 31.0005362,13.6998928 29.9152815,16.0814577 C28.6648794,18.6280815 26.635925,20.6087889 23.8284183,22 L22.4836461,19.8306538 C25.1731904,18.3451233 27.0134048,16.505895 27.9571046,14.3129689 C28.7356569,12.3086817 29.2310992,9.83279743 29.4198392,6.86173633 L23.8991957,6.86173633 L23.8991957,4.48017149 L29.5142091,4.48017149 L29.5142091,0.1886388 Z" fill="#FFFFFF"></path>
    </g>
</svg>