<?xml version="1.0" encoding="UTF-8"?>
<svg width="30px" height="30px" viewBox="0 0 30 30" version="1.1" xmlns="http://www.w3.org/2000/svg" xmlns:xlink="http://www.w3.org/1999/xlink">
    <!-- Generator: Sketch 52.4 (67378) - http://www.bohemiancoding.com/sketch -->
    <title>银行icon-click</title>
    <desc>Created with Sketch.</desc>
    <g id="Page-1" stroke="none" stroke-width="1" fill="none" fill-rule="evenodd">
        <g id="0.0控件库" transform="translate(-1261.000000, -1831.000000)">
            <g id="银行icon-click" transform="translate(1261.000000, 1831.000000)">
                <rect id="矩形" stroke="#979797" fill="#D8D8D8" opacity="0" x="0.5" y="0.5" width="29" height="29"></rect>
                <path d="M15.0000624,1.32693856e-12 L30,5.94377822 L30,8 L28.0013178,8 C28.0013178,8.26754243 27.8963233,8.50973443 27.6825474,8.70673954 C27.4778851,8.89954154 27.206098,9.00486895 26.9250307,9 L3.07867304,9 C2.79764737,9.00486895 2.5258186,8.89954154 2.3213228,8.70673954 C2.10758848,8.50973443 2.00255238,8.27128777 2.00255238,8 L-2.22044605e-12,8 L-2.22044605e-12,5.94377822 L15.0000624,1.32693856e-12 Z M4.00119296,10 L8.002594,10 L8.002594,24.0045776 L10.0012346,24.0045776 L10.0012346,10 L14.0024692,10 L14.0024692,24.0045776 L16.0012762,24.0045776 L16.0012762,10 L20.0024692,10 L20.0024692,24.0045776 L22.0013178,24.0045776 L22.0013178,10 L26.0025108,10 L26.0025108,24.0045776 L26.9250307,24.0045776 C27.206098,23.9998751 27.4780516,24.1164247 27.6825474,24.3093932 C27.8963233,24.5063983 28.0013178,24.7365705 28.0013178,25.0078999 L28.0013178,26 L2.00255238,26 L2.00255238,25.0078999 C2.00255238,24.7403159 2.10758848,24.5063983 2.3213228,24.3093932 C2.5258186,24.1165912 2.79764737,24.0000416 3.07867304,24.0049106 L4.00119296,24.0049106 L4.00119296,10 Z M29.6813544,27.2927722 C29.8949639,27.4897773 30,27.720116 30,27.9916118 L30,30 L-1.58628666e-11,30 L-1.58628666e-11,27.9916118 C-1.58628666e-11,27.7243607 0.104994486,27.4904431 0.318770417,27.2933964 C0.523266218,27.1004696 0.795053371,26.9951005 1.07628712,26.9998446 L28.9238377,26.9998446 C29.204905,26.9946428 29.4766922,27.0998037 29.6813544,27.2927722 Z" id="yinhang-(2)" fill="#FFFFFF"></path>
            </g>
        </g>
    </g>
</svg>