<?xml version="1.0" encoding="UTF-8"?>
<svg width="28px" height="28px" viewBox="0 0 28 28" version="1.1" xmlns="http://www.w3.org/2000/svg" xmlns:xlink="http://www.w3.org/1999/xlink">
    <!-- Generator: Sketch 52.4 (67378) - http://www.bohemiancoding.com/sketch -->
    <title>城市icon-click</title>
    <desc>Created with Sketch.</desc>
    <g id="Page-1" stroke="none" stroke-width="1" fill="none" fill-rule="evenodd">
        <g id="0.0控件库" transform="translate(-813.000000, -2288.000000)">
            <g id="城市icon-click" transform="translate(812.000000, 2287.000000)">
                <rect id="矩形" stroke="#979797" fill="#D8D8D8" opacity="0" x="0.5" y="0.5" width="29" height="29"></rect>
                <path d="M23.9914517,27 L28,27 C28.5522847,27 29,27.4477153 29,28 C29,28.5522847 28.5522847,29 28,29 L2,29 C1.44771525,29 1,28.5522847 1,28 C1,27.4477153 1.44771525,27 2,27 L5.99937643,27 L5.99168894,2.38373874 C5.99168894,1.63063063 6.60402852,1 7.35674564,1 L22.8070031,1 C23.4589617,1 23.9885065,1.54774775 23.9885065,2.19986486 L23.9914517,27 Z M13.9962753,8 L13.9962753,4.99133301 C13.9962753,4.3714231 13.6166808,4.00126648 12.9968159,4.00126648 L9.99623606,4.00126648 C9.37650633,4.00126648 9.0003294,4.3714231 9.0003294,4.99133301 L8.99681589,8 C8.99681589,8.61972973 9.37650633,8.99789429 9.99623606,8.99789429 L12.9968159,8.99789429 C13.6166808,8.99789429 13.9962753,8.61972973 13.9962753,8 Z M20.9962753,8 L20.9962753,4.99133301 C20.9962753,4.3714231 20.6166808,4.00126648 19.9968159,4.00126648 L16.9962361,4.00126648 C16.3765063,4.00126648 16.0003294,4.3714231 16.0003294,4.99133301 L15.9968159,8 C15.9968159,8.61972973 16.3765063,8.99789429 16.9962361,8.99789429 L19.9968159,8.99789429 C20.6166808,8.99789429 20.9962753,8.61972973 20.9962753,8 Z M13.9962753,15 L13.9962753,11.991333 C13.9962753,11.3714231 13.6166808,11.0012665 12.9968159,11.0012665 L9.99623606,11.0012665 C9.37650633,11.0012665 9.0003294,11.3714231 9.0003294,11.991333 L8.99681589,15 C8.99681589,15.6197297 9.37650633,15.9978943 9.99623606,15.9978943 L12.9968159,15.9978943 C13.6166808,15.9978943 13.9962753,15.6197297 13.9962753,15 Z M20.9962753,15 L20.9962753,11.991333 C20.9962753,11.3714231 20.6166808,11.0012665 19.9968159,11.0012665 L16.9962361,11.0012665 C16.3765063,11.0012665 16.0003294,11.3714231 16.0003294,11.991333 L15.9968159,15 C15.9968159,15.6197297 16.3765063,15.9978943 16.9962361,15.9978943 L19.9968159,15.9978943 C20.6166808,15.9978943 20.9962753,15.6197297 20.9962753,15 Z M13.9962753,22 L13.9962753,18.991333 C13.9962753,18.3714231 13.6166808,18.0012665 12.9968159,18.0012665 L9.99623606,18.0012665 C9.37650633,18.0012665 9.0003294,18.3714231 9.0003294,18.991333 L8.99681589,22 C8.99681589,22.6197297 9.37650633,22.9978943 9.99623606,22.9978943 L12.9968159,22.9978943 C13.6166808,22.9978943 13.9962753,22.6197297 13.9962753,22 Z M20.9962753,22 L20.9962753,18.991333 C20.9962753,18.3714231 20.6166808,18.0012665 19.9968159,18.0012665 L16.9962361,18.0012665 C16.3765063,18.0012665 16.0003294,18.3714231 16.0003294,18.991333 L15.9968159,22 C15.9968159,22.6197297 16.3765063,22.9978943 16.9962361,22.9978943 L19.9968159,22.9978943 C20.6166808,22.9978943 20.9962753,22.6197297 20.9962753,22 Z" id="形状" fill="#FFFFFF"></path>
            </g>
        </g>
    </g>
</svg>