<?xml version="1.0" encoding="UTF-8"?>
<svg width="30px" height="16px" viewBox="0 0 30 16" version="1.1" xmlns="http://www.w3.org/2000/svg" xmlns:xlink="http://www.w3.org/1999/xlink">
    <!-- Generator: Sketch 52.4 (67378) - http://www.bohemiancoding.com/sketch -->
    <title>代办icon-click</title>
    <desc>Created with Sketch.</desc>
    <g id="Page-1" stroke="none" stroke-width="1" fill="none" fill-rule="evenodd">
        <g id="0.0控件库" transform="translate(-912.000000, -2218.000000)">
            <g id="代办icon-click" transform="translate(912.000000, 2211.000000)">
                <rect id="矩形" stroke="#979797" fill="#D8D8D8" opacity="0" x="0.5" y="0.5" width="29" height="29"></rect>
                <path d="M13.7611366,10.9403379 L14.0563862,12.6588112 L9.09856984,13.4677088 C9.18540796,14.3356246 9.2896137,15.0993906 9.42855469,15.7590066 C9.81064242,17.5642716 10.244213,18.8166457 10.9041827,19.7539948 C11.5120495,20.6566272 12.0851811,21.1253018 12.6235775,21.1600184 C13.0056652,21.1253018 13.3009148,20.1011611 13.4919587,18.0702381 L15.0724125,18.9902288 C14.8292657,20.4136108 14.5166485,21.4551098 14.1171931,22.1494425 C13.7698406,22.7049086 13.3009148,22.9826417 12.7277832,23 C11.859402,23 10.9562855,22.4271755 10.0184338,21.3162433 C8.99374402,20.1011611 8.31702675,18.6404872 7.81336565,16.6616391 C7.60495416,15.8631565 7.44864555,14.8737325 7.32707218,13.7107252 L4.59663118,14.2210598 L4.3187492,12.5025864 L7.17076356,11.9748936 C7.06655782,10.5341533 7.03473525,8.83998157 7,7 L8.84096815,7 C8.84096815,8.7705483 8.8554231,10.3779284 8.95962884,11.7318771 L13.7611366,10.9403379 Z M1.99766541,14.1863431 C1.51137193,14.7591676 1.12889557,15.331992 0.59049922,15.8874582 L1.76925141e-12,13.9954016 C1.75413003,12.0339118 3.05670184,9.72525572 3.8903478,7.05207495 L5.7905019,7.82157621 C5.37367892,9.10609164 4.6581997,10.3501551 3.99822998,11.495804 L3.99822998,23 L1.99766541,23 L1.99766541,14.1863431 Z M10.5133909,7 C11.5380807,7.85055752 12.4064619,8.70111504 13.1359021,9.55167256 L11.9028008,10.7667547 C11.3123016,9.95091384 10.4786556,9.06563969 9.36712766,8.11093227 L10.5133909,7 Z M17.1224122,13.5301987 L18.7202336,14.1724565 C18.1644696,16.2207378 17.7106116,17.1546153 16.8074951,18.2655475 L15.4528204,17.0678237 C16.3385693,16.0089664 16.7055892,15.2660304 17.1224122,13.5301987 Z M20,7 L22,7 L22.0048351,10 L27.0019379,10 C26.9672026,11.2497988 26.9324674,12.6240946 26.8977321,13.6829519 L28.0787306,13.1101275 C28.8602736,14.672376 29.2531954,15.5750085 30.0000033,17.4497067 L28.3327114,18.2655475 C27.7422121,16.6338658 27.505599,15.9742497 26.8629969,14.6376594 C26.7935264,15.8180249 26.7414235,16.8595239 26.671953,17.7621564 C26.4982768,19.6715712 26.2030272,21.0558685 25.7862042,21.8196345 C25.4041164,22.5486838 24.8267597,22.9305667 23.9236432,23 L21.4682714,23 L21,21 C21.5904992,21.0347166 22.5175201,21.0694333 23.0385489,21.0694333 C23.8721948,21.0694333 24.3640859,20.4955635 24.6419679,19.3499146 C24.9024823,18.169549 25.056764,15.8709046 25.1436021,12 L22.0048351,12 C21.8311588,14.7773307 21.2580273,16.9983904 20.4591165,18.7515804 C19.5386325,20.6262786 18.2489982,21.9758593 16.182251,23 L15.1922964,21.4030349 C17.1722056,20.3094609 18.3228988,19.0640301 19.0176037,17.4497067 C19.5907353,15.9742497 19.861059,14.1871479 20,12 L17,12 L17,10 L20,10 L20,7 Z" id="代办" fill="#FFFFFF"></path>
            </g>
        </g>
    </g>
</svg>