<?xml version="1.0" encoding="UTF-8"?>
<svg width="22px" height="22px" viewBox="0 0 22 22" version="1.1" xmlns="http://www.w3.org/2000/svg" xmlns:xlink="http://www.w3.org/1999/xlink">
    <!-- Generator: Sketch 52.4 (67378) - http://www.bohemiancoding.com/sketch -->
    <title>女孩icon-white</title>
    <desc>Created with Sketch.</desc>
    <defs>
        <polygon id="path-1" points="5.65208881e-21 6.37679892e-15 5.65208881e-21 22 22 22 22 9.56519838e-15 0 0"></polygon>
    </defs>
    <g id="Page-1" stroke="none" stroke-width="1" fill="none" fill-rule="evenodd">
        <g id="女孩icon-white">
            <mask id="mask-2" fill="white">
                <use xlink:href="#path-1"></use>
            </mask>
            <g id="Clip-2"></g>
            <path d="M20.5299024,12.111325 C20.5816165,12.5949103 20.5816165,13.9098853 20.5240637,14.4054639 L20.484444,14.7948164 L20.7425974,14.7472717 C21.4945366,14.6059226 22,14.0161113 22,13.2793826 C22,12.6300334 21.6380015,12.1053284 21.0241054,11.8637499 C20.5069647,11.6692878 20.4781883,11.6808527 20.5299024,12.111325 Z M0.965301101,11.8753148 C0.149970365,12.1939928 -0.234548786,13.1491701 0.149970365,13.915882 C0.362665339,14.340786 0.833513626,14.6765972 1.3502373,14.7772549 L1.53957753,14.8128063 L1.49370215,14.4410153 C1.43614939,13.9805599 1.43614939,12.6009069 1.48828051,12.111325 C1.52831721,11.7575239 1.52831721,11.7455306 1.40195137,11.7515273 C1.33313829,11.7515273 1.13754233,11.8046403 0.965301101,11.8753148 Z M14.684127,16.4464594 C14.6787053,16.8944932 14.2016013,17.4663146 13.5756108,17.767431 C12.2031026,18.4219202 9.92351298,18.4219202 8.51096811,17.767431 C7.8908163,17.4783079 7.33947756,16.8413802 7.33363887,16.4169045 L7.33363887,16.286692 L14.684127,16.286692 L14.684127,16.4464594 Z M14.9197596,10.3478878 C15.1324546,10.4892369 15.3735089,10.9197092 15.3735089,11.1557194 C15.3735089,11.3917295 15.1324546,11.8217735 14.9197596,11.9635509 C14.649929,12.1524447 14.2020184,12.1524447 13.9376093,11.9635509 C13.6102259,11.7399623 13.5067977,11.5450719 13.5067977,11.1557194 C13.5067977,10.7663668 13.6102259,10.5719047 13.9376093,10.3418911 C14.2016013,10.158994 14.649929,10.158994 14.9197596,10.3478878 Z M8.08015653,10.3418911 C8.40795702,10.5719047 8.51096811,10.7663668 8.51096811,11.1557194 C8.51096811,11.4152877 8.48219174,11.5450719 8.39044096,11.6688595 C8.18358467,11.951986 7.91959268,12.0997601 7.60972529,12.0997601 C7.26482579,12.0997601 7.04670918,11.9875374 6.83443126,11.7099792 C6.70264378,11.5330786 6.67345035,11.4332776 6.67345035,11.161716 C6.67345035,10.7843567 6.82317093,10.5187917 7.12719963,10.3243296 C7.37993131,10.1649906 7.83326354,10.1709872 8.08015653,10.3418911 Z M7.38535294,6.1425376 C6.167987,6.39054104 5.10576327,6.63211952 5.03111151,6.68523252 C4.95645974,6.73234889 4.652014,7.02147207 4.35924562,7.3281568 C3.17065605,8.56046404 2.42997708,9.97609678 2.06797858,11.6924176 C1.91867505,12.3944515 1.92451373,14.169882 2.07381726,14.865491 C2.99257614,19.2006253 6.90908302,22.1967981 11.3823503,21.9899144 C15.655017,21.7954523 19.0885811,18.9350603 19.9502043,14.8534977 C20.0936692,14.1638854 20.0936692,12.3824583 19.9502043,11.686421 C19.5652681,9.85230923 18.6581866,8.21865619 17.3144548,6.97392736 L16.9870714,6.66767096 L14.6440903,6.1956506 C12.6168152,5.78273987 12.2723328,5.7300552 12.0942529,5.78273987 C11.7843855,5.87697261 10.0156808,5.86540768 9.78588682,5.77117494 C9.61948428,5.70050039 9.40136767,5.7300552 7.38535294,6.1425376 Z M9.99232606,1.58338632 C9.91809134,1.59537958 9.78588682,1.68961232 9.68829736,1.78427339 L9.51605613,1.96717057 L9.51605613,4.95135011 L9.68829736,5.13424729 C9.90641397,5.35826421 10.136208,5.39338732 11.158395,5.36426084 C12.0254398,5.34669928 12.1864207,5.29358628 12.3186252,4.98690155 C12.4099589,4.78044618 12.4099589,2.13850283 12.3186252,1.93204746 C12.180165,1.6137978 12.0371172,1.57224973 11.0378678,1.56025647 C10.5324045,1.56025647 10.0615562,1.5662531 9.99232606,1.58338632 Z M14.6382516,1.4124824 L12.7260821,1.80740325 L12.708983,3.42949136 C12.7027273,4.32041908 12.6802067,5.10469247 12.657269,5.1693704 C12.6113936,5.28159303 12.6977227,5.30472288 14.4947867,5.66494894 C15.5286511,5.87697261 16.4361497,6.05387316 16.5103844,6.07186305 L16.6367502,6.09542123 L16.6367502,3.55327891 C16.6367502,2.15563605 16.6196512,1.0111366 16.5962965,1.01713323 C16.5675201,1.01756156 15.689632,1.20045874 14.6382516,1.4124824 Z M5.09450295,3.54171399 C5.09450295,4.93935685 5.11160196,6.08385631 5.13453965,6.08385631 C5.18041504,6.08385631 8.56268219,5.40538058 9.01059278,5.31114784 L9.27500183,5.25203821 L9.19451138,5.03958622 C9.1256983,4.86868229 9.10818224,4.55642926 9.1256983,3.32969032 C9.1427973,1.87293783 9.13695862,1.83138976 9.02769179,1.80740325 C8.96513444,1.78984169 8.11477159,1.61893777 7.13303832,1.41847903 C6.15672668,1.22401692 5.29552056,1.04711637 5.22629043,1.02912648 L5.09450295,1 L5.09450295,3.54171399 Z" id="Fill-1" fill="#FFFFFF" mask="url(#mask-2)"></path>
        </g>
    </g>
</svg>