<?xml version="1.0" encoding="UTF-8"?>
<svg width="22px" height="22px" viewBox="0 0 22 22" version="1.1" xmlns="http://www.w3.org/2000/svg" xmlns:xlink="http://www.w3.org/1999/xlink">
    <!-- Generator: Sketch 52.4 (67378) - http://www.bohemiancoding.com/sketch -->
    <title>轿车icon-white</title>
    <desc>Created with Sketch.</desc>
    <defs>
        <polygon id="path-1" points="0 22 22 22 22 0 5.66348986e-16 3.4472589e-15"></polygon>
    </defs>
    <g id="Page-1" stroke="none" stroke-width="1" fill="none" fill-rule="evenodd">
        <g id="轿车icon-white">
            <mask id="mask-2" fill="white">
                <use xlink:href="#path-1"></use>
            </mask>
            <g id="Clip-2"></g>
            <path d="M20.4533333,12.04 C20.2013333,12.65 19.6073333,13.046 18.948,13.0433333 L18.1366667,13.0433333 C17.8233333,13.0326667 17.5086667,13.0546667 17.1993333,13.1093333 L17.1573333,13.1093333 C17.084,13.11 17.0166667,13.0713333 16.9786667,13.0093333 C16.9413333,12.9466667 16.94,12.8693333 16.974,12.8046667 C17.156,12.482 17.3546667,12.1686667 17.57,11.8673333 C17.7293333,11.5986667 18.0173333,11.434 18.3293333,11.4306667 C18.932,11.3733333 19.5306667,11.2866667 20.1253333,11.168 C20.458,11.098 20.72,11.3273333 20.594,11.6373333 L20.4533333,12.04 Z M5.28400108,15.608 C5.13533441,15.6013333 4.99933441,15.5253333 4.91600108,15.4026667 C4.83266775,15.28 4.81266775,15.1246667 4.86200108,14.9846667 L5.05866775,14.4506667 C5.13066775,14.28 5.29600108,14.168 5.48066775,14.164 L16.538,14.164 C16.7226667,14.168 16.888,14.28 16.96,14.4506667 L17.166,14.9753333 C17.2193333,15.116 17.2013333,15.2726667 17.1186667,15.398 C17.0366667,15.5233333 16.8993333,15.6013333 16.7493333,15.608 L5.28400108,15.608 Z M4.81000108,13.0813333 C4.50066775,13.0266667 4.18666775,13.0046667 3.87266775,13.0153333 L3.07066775,13.0153333 C2.41333441,13.028 1.81333441,12.6433333 1.55133441,12.04 L1.41066775,11.6373333 C1.29800108,11.318 1.56600108,11.0933333 1.88000108,11.168 C2.47066775,11.2793333 3.06666775,11.3613333 3.66600108,11.412 C3.97800108,11.4153333 4.26600108,11.5806667 4.42600108,11.848 C4.64133441,12.15 4.84000108,12.4626667 5.02133441,12.786 C5.05600108,12.85 5.05466775,12.928 5.01666775,12.99 C4.97933441,13.0533333 4.91133441,13.0913333 4.83866775,13.0906667 L4.79600108,13.0906667 L4.81000108,13.0813333 Z M6.42333441,12.8186667 C9.29933441,12.976 12.7146667,12.976 15.5913333,12.8186667 C15.6186667,12.8186667 15.6446667,12.8293333 15.664,12.8486667 C15.6833333,12.8686667 15.694,12.8946667 15.694,12.922 C15.694,12.9746667 15.6533333,13.0173333 15.6006667,13.02 C14.1666667,13.2033333 12.1906677,13.2933333 10.7460011,13.292 C9.30066775,13.302 7.85733441,13.2186667 6.42333441,13.0433333 C6.37066775,13.0406667 6.32933441,12.998 6.32933441,12.9453333 C6.32933441,12.918 6.34000108,12.892 6.35933441,12.8726667 C6.37866775,12.8526667 6.40533441,12.842 6.43266775,12.842 L6.42333441,12.8186667 Z M2.94933441,8.62733333 L3.37066775,6.78 C3.71066775,5.37733333 4.96533441,4.38933333 6.40933441,4.38866667 L15.624,4.38866667 C17.0673333,4.38933333 18.3226667,5.37733333 18.6626667,6.78 L19.084,8.62733333 C19.0886667,8.66933333 19.0886667,8.71133333 19.084,8.754 C19.0813333,9.04666667 18.8473333,9.28533333 18.554,9.29266667 L3.48800108,9.29266667 C3.34400108,9.29266667 3.20533441,9.23533333 3.10333441,9.134 C3.00133441,9.03133333 2.94400108,8.89333333 2.94400108,8.74866667 C2.93933441,8.70666667 2.93933441,8.66466667 2.94400108,8.62266667 L2.94933441,8.62733333 Z M21.6906667,9.10866667 C21.6246667,8.704 21.2753333,8.40666667 20.8653333,8.40666667 L19.928,8.40666667 L19.4126667,6.28733333 C19.044,4.758 17.68,3.67733333 16.1073333,3.66666667 L5.91200108,3.66666667 C4.33333441,3.66733333 2.96000108,4.74866667 2.58800108,6.28266667 L2.07200108,8.402 L1.13466775,8.402 C0.724667747,8.40133333 0.375334413,8.69933333 0.31000108,9.104 C0.244667747,9.50866667 0.482667747,9.90066667 0.87200108,10.0286667 C0.307334413,10.718 -0.000665586688,11.5813333 1.07997911e-06,12.472 L1.07997911e-06,17.7693333 C1.07997911e-06,18.0373333 0.10600108,18.2933333 0.295334413,18.4826667 C0.48400108,18.6713333 0.740667747,18.778 1.00800108,18.778 L2.03933441,18.778 C2.30666775,18.778 2.56266775,18.6713333 2.75200108,18.4826667 C2.94133441,18.2933333 3.04733441,18.0373333 3.04733441,17.7693333 L3.04733441,16.9913333 L18.9526667,16.9913333 L18.9526667,17.774 C18.9526667,18.0413333 19.0586667,18.298 19.248,18.4866667 C19.4373333,18.6766667 19.6933333,18.7826667 19.9606667,18.7826667 L20.9926667,18.7826667 C21.2606667,18.7826667 21.5173333,18.676 21.7066667,18.4853333 C21.896,18.2953333 22.0013333,18.038 22,17.7693333 L22,12.4813333 C22.002,11.5893333 21.6933333,10.724 21.128,10.034 C21.5173333,9.90466667 21.7553333,9.51266667 21.6906667,9.10866667 Z" id="Fill-1" fill="#FFFFFF" mask="url(#mask-2)"></path>
        </g>
    </g>
</svg>