<?xml version="1.0" encoding="UTF-8"?>
<svg width="22px" height="22px" viewBox="0 0 22 22" version="1.1" xmlns="http://www.w3.org/2000/svg" xmlns:xlink="http://www.w3.org/1999/xlink">
    <!-- Generator: Sketch 52.4 (67378) - http://www.bohemiancoding.com/sketch -->
    <title>建设银行icon-white</title>
    <desc>Created with Sketch.</desc>
    <g id="Page-1" stroke="none" stroke-width="1" fill="none" fill-rule="evenodd">
        <g id="建设银行icon-white">
            <rect id="矩形" fill="#D8D8D8" opacity="0" x="0" y="0" width="22" height="22"></rect>
            <path d="M18.245056,8.73960247 L15.8163225,11.0976634 C15.8163225,11.0976634 15.4220476,11.6573298 15.0941769,11.1308288 L10.631815,6.77206427 C10.631815,6.77206427 10.2383702,6.24805073 9.94287148,6.70822085 L5.44813754,11.2958268 C5.44813754,11.2958268 5.15346892,11.7543386 5.51288163,11.9508437 L9.90966939,16.3452611 C9.90966939,16.3452611 10.2715722,16.9331181 10.5986129,16.4721188 L15.1597511,11.885342 C15.1597511,11.885342 15.2908993,11.493161 16.013875,11.5901698 L20.6721293,11.5901698 C20.6721293,11.5901698 20.8696818,16.3112665 17.2597837,19.2588427 C17.2597837,19.2588427 12.5683273,23.946774 6.13791111,21.061383 C6.13791111,21.061383 -0.0642406986,18.898998 0.000503391537,10.8679929 C0.000503391537,10.8679929 0.166513879,5.49270842 5.05469268,2.64297021 C5.05469268,2.64297021 8.63055858,-0.0119212018 11.485939,1.95395873 L18.245056,8.73960247 Z M9.71460706,0.77492825 C9.71460706,0.77492825 11.5838852,-0.665279862 14.8003383,0.381088957 C14.8003383,0.381088957 15.8818967,0.77492825 17.1286354,1.8901153 L21,5.95370768 L18.9323394,8.01659644 L13.0265163,2.02028955 C13.0265163,2.02028955 12.0420741,0.808093665 9.71460706,0.77492825 Z" id="建设银行icon" fill="#FFFFFF"></path>
        </g>
    </g>
</svg>