<?xml version="1.0" encoding="UTF-8"?>
<svg width="30px" height="18px" viewBox="0 0 30 18" version="1.1" xmlns="http://www.w3.org/2000/svg" xmlns:xlink="http://www.w3.org/1999/xlink">
    <!-- Generator: Sketch 52.4 (67378) - http://www.bohemiancoding.com/sketch -->
    <title>MAC-icon-click</title>
    <desc>Created with Sketch.</desc>
    <g id="Page-1" stroke="none" stroke-width="1" fill="none" fill-rule="evenodd">
        <g id="0.0控件库" transform="translate(-862.000000, -2218.000000)">
            <g id="MAC-icon-click" transform="translate(862.000000, 2211.000000)">
                <rect id="矩形" fill="#D8D8D8" opacity="0" x="0" y="0" width="30" height="30"></rect>
                <path d="M11,7 L11,24.9997864 L7.99975586,24.9997864 L7.77072814,11.9499111 L6.64233398,24.9997864 L4.5005755,24.9997864 L3.29972895,11.9499111 L2.99860042,25.0011342 L0,24.9997864 L0,7 L4.5890318,7 C4.68064954,7.54811576 4.98430561,10.7708941 5.5,16.668335 L6.34980145,7 L11,7 Z M18.5640856,7 L20.6627197,25.0011342 L17.8070417,25.0011342 L17.1362466,21.0039215 L15.7084076,21.0039215 L14.9513638,25.0011342 L11.9568756,24.9997864 L13.5666491,7 L18.5640856,7 Z M17.2318763,19 C17.0486408,17.4513853 16.8310451,12.842777 16.5,10.5593689 C16.2018947,13.1309603 15.823494,17.7892648 15.7318763,19 L17.2318763,19 Z M30,15 L27.0088403,15 L27,11.309552 C27,10.6168989 26.7139195,10.0043335 26,10.0043335 C25.2860805,10.0043335 25,10.6168989 25,11.309552 L25,20.8733029 C25,21.5377994 25.3436861,22.0039215 26,22.0039215 C26.6563139,22.0039215 27,21.6222693 27,20.8733029 L27,18.0040398 L30,18.0341034 L29.9867975,20.5030077 C29.9867975,21.9164707 29.8851606,22.18695 29.6818838,22.7782393 C29.4786069,23.3695285 29.0291141,23.8876028 28.3333919,24.3324775 C27.6376697,24.7773523 26.7801977,24.9997864 25.7609504,24.9997864 C24.7016202,24.9997864 24.3877789,24.8111398 23.7006458,24.4338409 C23.0135128,24.056542 22.5582939,23.5342444 22.3349757,22.8669322 C22.1116574,22.19962 22,21.4460648 22,20.1058091 L22,12.1104031 C22,11.124921 22.0343561,10.3858205 22.1030694,9.89307943 C22.1717827,9.40033838 22.3764881,8.92590625 22.7171915,8.46976882 C23.057895,8.01363139 23.2802919,7.65463972 23.8843964,7.39278305 C24.4885009,7.13092637 24.873404,7 25.6578809,7 C26.7229372,7 27.6018817,7.20272471 28.2947408,7.6081802 C28.9876,8.0136357 29.4428188,8.51903965 29.660411,9.12440723 C29.8780031,9.72977481 29.9867975,10.6716 29.9867975,11.9499111 L30,15 Z" id="MAC" fill="#FFFFFF"></path>
            </g>
        </g>
    </g>
</svg>