<?xml version="1.0" encoding="UTF-8"?>
<svg width="22px" height="22px" viewBox="0 0 22 22" version="1.1" xmlns="http://www.w3.org/2000/svg" xmlns:xlink="http://www.w3.org/1999/xlink">
    <!-- Generator: Sketch 52.4 (67378) - http://www.bohemiancoding.com/sketch -->
    <title>男人icon-white</title>
    <desc>Created with Sketch.</desc>
    <defs>
        <linearGradient x1="0.320833333%" y1="11.1979167%" x2="100.320833%" y2="88.8020833%" id="linearGradient-1">
            <stop stop-color="#5BA4FC" offset="0%"></stop>
            <stop stop-color="#1A76FF" offset="100%"></stop>
        </linearGradient>
        <polygon id="path-2" points="21.9997484 0.000181755785 21.9997484 22 4.9832828e-05 22 4.9832828e-05 0 21.9997484 0 0 0.000181755785 0 22 22 22 22 0.000181755785"></polygon>
        <path d="M12.5543844,19.2302306 L11.0230216,21.9955149 L9.52704006,19.2302306 L9.18070191,17.8533193 L9.83999022,14.9230847 L12.2394409,14.9230847 L12.8663379,17.8533193 L12.5543844,19.2302306 Z M17.8117477,16.4534844 C13.7040277,16.0906935 13.4593485,14.2413566 13.4593485,14.2413566 L13.4593485,12.3935148 C15.8592975,11.4680988 16.5923384,7.93038867 16.5923384,7.93038867 C16.5923384,6.52357703 15.9011571,6.48420824 15.9011571,6.48420824 L15.9011571,4.19234614 C16.0616188,0.372575983 13.745389,1.25662977 13.7040277,1.25662977 C13.6651581,1.25662977 12.4043876,0.251479551 12.4043876,0.251479551 C11.5068983,-0.431743526 9.51408353,0.493672414 9.51408353,0.493672414 L9.43185936,0.494669093 C7.17642556,0.553971461 6.58690321,2.18154737 6.58690321,2.18154737 L6.62826446,6.4024806 C5.45071473,6.4024806 5.61067811,8.05098676 5.61067811,8.05098676 C5.61067811,9.85945981 8.78303594,12.3521526 8.78303594,12.3521526 C8.98635388,14.7262407 7.72608166,15.9292316 7.72608166,15.9292316 C7.72608166,15.9292316 5.57131017,16.0089658 3.13099659,16.7335511 C3.07269218,16.7519896 3.01588275,16.7684348 2.95957166,16.7868734 C0.65779333,17.5652792 0,19.7883705 0,19.7883705 L0,21.9596345 L9.96158232,22 L11.4331457,21.9591362 L21.9996986,21.9591362 L21.9996986,20.2697662 C22.0410598,17.7810601 17.8117477,16.4534844 17.8117477,16.4534844 Z" id="path-4"></path>
    </defs>
    <g id="Page-1" stroke="none" stroke-width="1" fill="none" fill-rule="evenodd">
        <g id="男人icon-white">
            <mask id="mask-3" fill="white">
                <use xlink:href="#path-2"></use>
            </mask>
            <g id="Clip-2"></g>
            <mask id="mask-5" fill="white">
                <use xlink:href="#path-4"></use>
            </mask>
            <use id="Fill-1" fill="#FFFFFF" xlink:href="#path-4"></use>
        </g>
    </g>
</svg>