<?xml version="1.0" encoding="UTF-8"?>
<svg width="30px" height="24px" viewBox="0 0 30 24" version="1.1" xmlns="http://www.w3.org/2000/svg" xmlns:xlink="http://www.w3.org/1999/xlink">
    <!-- Generator: Sketch 52.4 (67378) - http://www.bohemiancoding.com/sketch -->
    <title>微博icon-click</title>
    <desc>Created with Sketch.</desc>
    <defs>
        <polygon id="path-1" points="8.3519968e-17 0 30 0 30 30 8.3519968e-17 30"></polygon>
    </defs>
    <g id="Page-1" stroke="none" stroke-width="1" fill="none" fill-rule="evenodd">
        <g id="0.0控件库" transform="translate(-962.000000, -2138.000000)">
            <g id="微博icon-click" transform="translate(962.000000, 2135.000000)">
                <mask id="mask-2" fill="white">
                    <use xlink:href="#path-1"></use>
                </mask>
                <g id="Clip-2"></g>
                <path d="M22.5358039,14.5545743 C22.1134199,14.4296029 21.8240148,14.3445735 22.0451692,13.7961101 C22.523915,12.6062376 22.5739289,11.5790113 22.0540491,10.8469951 C21.0805222,9.47270619 18.4156247,9.54694053 15.3614413,10.8094642 C15.3614413,10.8080608 14.4025185,11.2241042 14.6473405,10.4726569 C15.1173165,8.98116903 15.0465339,7.73199536 14.3153704,7.01048646 C12.658272,5.37322873 8.2516967,7.07234242 4.47306477,10.803275 C1.64333814,13.5984517 0,16.5603769 0,19.1215518 C0,24.0210905 6.36195875,27 12.5857281,27 C20.7449928,27 26.1723936,22.3188822 26.1723936,18.6013356 C26.1723936,16.3561335 24.2568598,15.0813754 22.5358039,14.5545743 Z M12.6023505,25.2436723 C7.63578891,25.7277968 3.3489092,23.5106979 3.02640615,20.2907337 C2.70390311,17.0711653 6.46987563,14.0683627 11.4354832,13.5834106 C16.4023383,13.0984944 20.6898051,15.3152694 21.0115743,18.534406 C21.3332334,21.7559534 17.5697927,24.7584682 12.6023505,25.2436723 Z M27.9540312,5.58873503 C25.9836032,3.43140508 23.0770395,2.60881801 20.3949326,3.1721786 L20.3933915,3.1721786 C19.7727134,3.30348307 19.3771161,3.90620982 19.5099848,4.51822036 C19.64245,5.13091459 20.2527803,5.52209324 20.8736784,5.39136451 C22.7817634,4.99133387 24.8473754,5.57650058 26.2477629,7.10875791 C27.6476001,8.64144705 28.0274191,10.7317034 27.4281336,12.5639208 L27.4284272,12.5643526 C27.2332154,13.1613219 27.5637544,13.7994566 28.1690577,13.9924731 C28.771352,14.1850218 29.419367,13.8593335 29.6151659,13.2639474 L29.6156062,13.2595574 C30.4562644,10.6816861 29.9248994,7.74422981 27.9540312,5.58873503 Z M24.928102,8.28524454 C23.9694728,7.23470081 22.5533069,6.83564173 21.2460853,7.1098734 C20.7115646,7.22261029 20.371742,7.74171095 20.4856767,8.26951967 C20.6003453,8.79549321 21.1256924,9.13338003 21.6584518,9.01870002 L21.6584518,9.02010338 C22.2975868,8.88656792 22.9906253,9.08109573 23.4588767,9.59386326 C23.928449,10.1076383 24.0547496,10.807629 23.8534833,11.4220144 L23.8545107,11.4220144 C23.6867827,11.9343502 23.9709039,12.4856562 24.4904901,12.6519369 C25.0106634,12.8162384 25.567494,12.5361054 25.7350752,12.0225102 C26.1461574,10.7668595 25.8894466,9.33568031 24.928102,8.28524454 Z M13.0985993,16.0615351 C10.7352527,15.4544543 8.06448422,16.617591 7.03778776,18.6738428 C5.992304,20.7712959 7.00311198,23.0995483 9.39093348,23.8607112 C11.8638849,24.6482862 14.7793286,23.4412854 15.7931455,21.1774077 C16.7926517,18.964519 15.5443239,16.6856001 13.0985993,16.0615351 Z M11.2941381,21.4174549 C10.8136676,22.1745157 9.78480624,22.5062493 9.01023385,22.1568117 C8.24652286,21.8137073 8.02136884,20.9347697 8.50154575,20.1964205 C8.97625526,19.4612738 9.97044089,19.1340381 10.739289,19.4524218 C11.5173107,19.7801972 11.7658387,20.6533773 11.2941381,21.4174549 Z M12.8767111,19.4117962 C12.7027084,19.7050273 12.3187063,19.8462632 12.0179995,19.7238467 C11.7221362,19.6039491 11.6295574,19.2755979 11.7976891,18.9874406 C11.9706643,18.7006866 12.3396219,18.5611059 12.6346045,18.6767934 C12.9346141,18.7847445 13.0424209,19.1167659 12.8767111,19.4117962 Z" id="Fill-1" fill="#FFFFFF" mask="url(#mask-2)"></path>
            </g>
        </g>
    </g>
</svg>