<?xml version="1.0" encoding="UTF-8"?>
<svg width="22px" height="22px" viewBox="0 0 22 22" version="1.1" xmlns="http://www.w3.org/2000/svg" xmlns:xlink="http://www.w3.org/1999/xlink">
    <!-- Generator: Sketch 52.4 (67378) - http://www.bohemiancoding.com/sketch -->
    <title>默认人物icon-white</title>
    <desc>Created with Sketch.</desc>
    <defs>
        <linearGradient x1="14.6647135%" y1="1.11022302e-14%" x2="99.6717612%" y2="49.807677%" id="linearGradient-1">
            <stop stop-color="#64ABF7" offset="0%"></stop>
            <stop stop-color="#2F90F1" offset="100%"></stop>
        </linearGradient>
        <polygon id="path-2" points="0 0 0 22 22 22 22 4.07542383e-15"></polygon>
    </defs>
    <g id="Page-1" stroke="none" stroke-width="1" fill="none" fill-rule="evenodd">
        <g id="默认人物icon-white">
            <mask id="mask-3" fill="white">
                <use xlink:href="#path-2"></use>
            </mask>
            <g id="Clip-2"></g>
            <path d="M19.2450228,15.9829236 C17.9164242,15.3681727 15.9446952,13.7856715 13.0254072,13.2418333 C13.7723659,12.4101728 14.3373731,11.1102797 14.918509,9.57053471 C15.2551948,8.67786845 15.1972325,7.91712073 15.1972325,6.83361577 C15.1972325,6.03324035 15.3423904,4.74898975 15.1513666,4.04351227 C14.5077321,1.65802852 12.8807533,1 10.974547,1 C9.06682856,1 7.43783363,1.66115702 6.79520722,4.05081211 C6.60569543,4.75420393 6.7508534,6.03532602 6.7508534,6.83361577 C6.7508534,7.9192064 6.69440308,8.68308262 7.03209696,9.57679172 C7.61776902,11.1248794 8.17471191,12.4232083 8.91814245,13.2506974 C6.02254347,13.8044425 4.06543105,15.3754725 2.74540081,15.9881378 C0.0136085592,17.2551816 0,18.6431942 0,18.6431942 L0,21 L22,20.9968715 L22,18.6431942 C22,18.6431942 21.9873995,17.2504888 19.2450228,15.9829236" id="Fill-1" fill="#FFFFFF" mask="url(#mask-3)"></path>
        </g>
    </g>
</svg>