<?xml version="1.0" encoding="UTF-8"?>
<svg width="28px" height="30px" viewBox="0 0 28 30" version="1.1" xmlns="http://www.w3.org/2000/svg" xmlns:xlink="http://www.w3.org/1999/xlink">
    <!-- Generator: Sketch 52.4 (67378) - http://www.bohemiancoding.com/sketch -->
    <title>企业icon-click</title>
    <desc>Created with Sketch.</desc>
    <defs>
        <polygon id="path-1" points="8.86086391e-17 0 30 0 30 30 8.86086391e-17 30"></polygon>
    </defs>
    <g id="Page-1" stroke="none" stroke-width="1" fill="none" fill-rule="evenodd">
        <g id="0.0控件库" transform="translate(-863.000000, -1755.000000)">
            <g id="企业icon-click" transform="translate(862.000000, 1755.000000)">
                <mask id="mask-2" fill="white">
                    <use xlink:href="#path-1"></use>
                </mask>
                <g id="Clip-2"></g>
                <path d="M29,4.67788571 L29,16.6736203 C28.716611,19.6751463 27.6910825,22.5934978 24.5442034,25.4266891 C21.3937208,28.2617558 18.3885914,29.7855554 15.5251012,30 C12.6617582,29.7855554 9.6549373,28.2635943 6.50618289,25.4285644 C3.35757557,22.5916225 1.28526429,19.6645197 1,16.6415934 L1,4.67961391 C3.60683315,4.49487973 6.52975268,3.94189061 8.98156209,3.03700935 C11.2515789,2.2280619 13.441988,1.2113988 15.5251012,0 C17.6027724,1.22088555 19.7936228,2.23795312 22.0670593,3.03700935 C24.5176185,3.93887544 26.3936081,4.48998928 29,4.67788571 Z M14.8908129,7.15138961 C12.9595244,9.28480466 10.5408818,11.0672836 7.6260971,12.5025034 L8.55815164,14.2035361 C11.4587063,12.651313 13.7745022,10.8192309 15.5251012,8.7177325 C17.4412036,10.9783729 19.7863055,12.8368561 22.4250185,14.1858863 L23.3747228,12.4848169 C20.6459592,11.1918247 18.1948484,9.38029723 16.1578084,7.15138961 L14.8908129,7.15138961 Z M15.1248193,20.3024115 L12.4899672,20.3024115 L12.4899672,14.0670814 L10.771248,14.0670814 L10.771248,20.3006833 L8.409195,20.3006833 L8.409195,22.0016056 L22.4426683,22.0016056 L22.4426683,20.3006833 L16.8754184,20.3006833 L16.8754184,16.8330565 L21.2253862,16.8330565 L21.2253862,15.1496737 L16.8754184,15.1496737 L16.8754184,11.6661253 L15.1248193,11.6661253 L15.1248193,20.3024115 Z" id="Fill-1" fill="#FFFFFF" mask="url(#mask-2)"></path>
            </g>
        </g>
    </g>
</svg>