<?xml version="1.0" encoding="UTF-8"?>
<svg width="28px" height="30px" viewBox="0 0 28 30" version="1.1" xmlns="http://www.w3.org/2000/svg" xmlns:xlink="http://www.w3.org/1999/xlink">
    <!-- Generator: Sketch 52.4 (67378) - http://www.bohemiancoding.com/sketch -->
    <title>社保icon-click</title>
    <desc>Created with Sketch.</desc>
    <defs>
        <polygon id="path-1" points="-1.54715637e-15 0 30 0 30 30 -1.54715637e-15 30"></polygon>
    </defs>
    <g id="Page-1" stroke="none" stroke-width="1" fill="none" fill-rule="evenodd">
        <g id="0.0控件库" transform="translate(-963.000000, -1755.000000)">
            <g id="社保icon-click" transform="translate(962.000000, 1755.000000)">
                <mask id="mask-2" fill="white">
                    <use xlink:href="#path-1"></use>
                </mask>
                <use id="Clip-2" fill="#D8D8D8" opacity="0" xlink:href="#path-1"></use>
                <path d="M28.2088046,3.04119246 C28.6309306,3.16198681 28.9933523,3.58786859 29,4.01370847 L29,15.6957201 C29,15.8163887 28.8171064,18.3747391 27.1285609,21.355702 C26.1015399,23.1227699 24.1104846,24.7054608 22.481851,26.0432518 C20.4909619,27.686256 18.0180763,29.027484 15.2426394,29.9395609 L15,30 L14.7573606,29.9395609 C11.9220533,29.0241728 9.50903814,27.686256 7.51798279,26.0432518 C5.88610848,24.7054608 3.83514116,23.1227699 2.87127294,21.3591389 C1.17948665,18.378176 1,15.880097 1,15.7594284 L1,4.07393798 C1,3.64809811 1.36225557,3.22225824 1.78438158,3.10158963 C1.78438158,3.10158963 9.20324607,2.06553296 14.9368473,0 C21.6940625,2.0688022 28.1490588,3.10158963 28.2088046,3.04119246 Z M14.1264177,17.6443281 L15.3176134,15.5965987 C15.1191616,15.4530669 14.8845795,15.291336 14.6318883,15.0936453 C14.3792411,14.8961301 14.1264177,14.6986149 13.8558376,14.5009681 C13.6031904,14.285473 13.332434,14.0877824 13.0617217,13.8902672 C12.7909654,13.6927519 12.5383182,13.5130411 12.3218013,13.3513541 C12.6285116,12.9383438 12.8992239,12.5431379 13.1518711,12.147932 C13.4045623,11.75277 13.6391444,11.3575642 13.8558376,10.9623583 L13.8558376,8.71711365 L12.1593034,8.71711365 L11.6901393,6.11262283 L9.36194307,6.22037036 L9.8853466,8.71711365 L7.66540889,8.71711365 L7.66540889,10.9623583 L11.3111244,10.9623583 C10.7877209,11.8067096 10.1379938,12.6508854 9.38000818,13.4950613 C8.62202258,14.3214327 7.70153912,15.1835884 6.60071297,16.0457441 L7.8278627,18.1472815 C8.4414596,17.662308 9.03716763,17.1233949 9.63265536,16.5307177 L9.63265536,21.8295986 L11.9787404,21.8295986 L11.9787404,15.7045217 C12.3577552,16.0277643 12.7548352,16.3510069 13.1338059,16.7103846 C13.5308859,17.0696308 13.8558376,17.3748935 14.1264177,17.6443281 Z M23.4028519,19.5303705 L19.5407516,19.5303705 L19.5407516,13.135859 L22.6629314,13.135859 L22.6629314,10.8546108 L19.5407516,10.8546108 L19.5407516,5.95093574 L17.0862318,5.86116806 L17.0862318,10.8546108 L14.1084847,10.8546108 L14.1084847,13.135859 L17.0862318,13.135859 L17.0862318,19.5303705 L12.9534633,19.5303705 L12.9534633,21.8295986 L23.4028519,21.8295986 L23.4028519,19.5303705 Z" id="形状" fill="#FFFFFF" mask="url(#mask-2)"></path>
            </g>
        </g>
    </g>
</svg>