<?xml version="1.0" encoding="UTF-8"?>
<svg width="30px" height="30px" viewBox="0 0 30 30" version="1.1" xmlns="http://www.w3.org/2000/svg" xmlns:xlink="http://www.w3.org/1999/xlink">
    <!-- Generator: Sketch 52.4 (67378) - http://www.bohemiancoding.com/sketch -->
    <title>地点icon-click</title>
    <desc>Created with Sketch.</desc>
    <defs>
        <polygon id="path-1" points="9.59935568e-17 0 30 0 30 30 9.59935568e-17 30"></polygon>
    </defs>
    <g id="Page-1" stroke="none" stroke-width="1" fill="none" fill-rule="evenodd">
        <g id="0.0控件库" transform="translate(-862.000000, -2287.000000)">
            <g id="地点icon-click" transform="translate(862.000000, 2287.000000)">
                <mask id="mask-2" fill="white">
                    <use xlink:href="#path-1"></use>
                </mask>
                <g id="Clip-2"></g>
                <path d="M29.7486596,27.3486089 L25.7840248,20.1165703 C25.4114265,19.4438877 24.3995167,18.9828905 23.2352046,18.9828905 C21.806581,21.0004326 19.80189,23.3905892 16.9917074,25.7460105 C16.4316091,26.2157718 15.7245023,26.4741847 14.9935894,26.4761229 C14.2619602,26.4771341 13.5539265,26.2183841 12.9954714,25.7460105 C10.1851203,23.3889459 8.18038716,20.9991264 6.75323829,18.9812472 C5.61791525,18.9812472 4.57094896,19.4425815 4.20311188,20.114927 L0.225625926,27.3486089 C-0.187969579,28.0879487 -0.0203993547,29.0165583 0.625443342,29.5646482 C0.940443342,29.8330892 1.3405557,29.9805611 1.75436188,29.9810667 L28.2260332,29.9810667 C28.6378591,29.9794235 29.035654,29.8319515 29.3490529,29.5646482 C29.9922411,29.0150836 30.1593057,28.0884544 29.7486596,27.3486089 Z M12.2345585,10.6191426 C12.7158226,10.6158139 13.104095,10.2241285 13.1029574,9.74269593 C13.1029574,8.69244312 13.9530276,7.83428301 14.9935894,7.83428301 C15.4763282,7.83263975 15.8662439,7.43977458 15.8646006,6.95703582 C15.8627888,6.47429705 15.4700501,6.08421278 14.9871428,6.08602458 C12.9887299,6.08602458 11.365022,7.72645997 11.365022,9.74303301 C11.36439,10.224592 11.7529995,10.616151 12.2345585,10.6191426 Z M5.68078042,11.7655049 C5.82762031,12.4222184 6.042213,13.061783 6.32169334,13.6739178 C7.2794602,15.9668111 9.49347705,19.7969515 14.4542214,23.9600836 C14.7608366,24.2165162 15.2070445,24.2165162 15.5138282,23.9600836 C20.4742355,19.7972886 22.6882945,15.9735527 23.6463563,13.6742128 C23.9278169,13.0629628 24.1425782,12.423019 24.2871006,11.7657999 C24.3313844,11.5673448 24.3504714,11.4644515 24.3504714,11.4644515 C24.4703029,10.8614178 24.5298815,10.2478083 24.5279012,9.63289256 C24.5279012,4.19505548 20.0686877,-0.18616643 14.6446287,0.00609480589 C9.89363154,0.173454356 5.94003604,3.91953582 5.49100514,8.6973729 C5.40492368,9.62105267 5.44773267,10.5523167 5.61791525,11.4641145 C5.61791525,11.4641145 5.63666525,11.5670077 5.68078042,11.7655049 Z M14.988154,3.88102458 C18.1915388,3.88102458 20.792227,6.50720436 20.792227,9.74004144 C20.792227,12.9727521 18.1908647,15.6015864 14.9874799,15.6015864 C11.7842636,15.6015864 9.18290121,12.9762072 9.18290121,9.74269593 C9.18290121,6.50918469 11.7852327,3.88102458 14.9874799,3.88102458 L14.988154,3.88102458 Z" id="Fill-1" fill="#FFFFFF" mask="url(#mask-2)"></path>
            </g>
        </g>
    </g>
</svg>