<?xml version="1.0" encoding="UTF-8"?>
<svg width="30px" height="30px" viewBox="0 0 30 30" version="1.1" xmlns="http://www.w3.org/2000/svg" xmlns:xlink="http://www.w3.org/1999/xlink">
    <!-- Generator: Sketch 52.4 (67378) - http://www.bohemiancoding.com/sketch -->
    <title>街道icon-click</title>
    <desc>Created with Sketch.</desc>
    <defs>
        <polygon id="path-1" points="0 4.24278668e-14 30 4.24278668e-14 30 30 0 30"></polygon>
    </defs>
    <g id="Page-1" stroke="none" stroke-width="1" fill="none" fill-rule="evenodd">
        <g id="0.0控件库" transform="translate(-912.000000, -2285.000000)">
            <g id="街道icon-click" transform="translate(912.000000, 2285.000000)">
                <mask id="mask-2" fill="white">
                    <use xlink:href="#path-1"></use>
                </mask>
                <g id="Clip-2"></g>
                <path d="M18.9921629,8.9959434 L14.3515112,8.99964905 L7.99279785,12.0017395 L7.99465068,17.9946899 L15.358502,17.9946899 C16.3739014,16.0017548 17.2385254,15.4396973 19,15.0347215 L18.9921629,8.9959434 Z M19,5.00313029 L19,0.875637319 C19.0011038,0.398869908 19.6939553,0.0129697766 20.1707227,0.0129697766 L22.1371748,0.0129697766 C22.6137845,0.0129697766 23,0.399185283 23,0.875637319 L23.0078371,5.00683594 L29.1072852,5.00683594 C29.5840526,5.00683594 29.9708594,5.39289376 29.9717661,5.86962175 L29.963929,8.13686324 C29.9630223,8.61374892 29.5762155,8.99964905 29.0994481,8.99964905 L23,8.99964905 L23,15.0023956 C24.9624573,15.5809107 26.2566229,17.0343101 26.8240999,19 L29.1373325,19 C29.6140999,19.0009461 30,19.3824429 30,19.8592103 L30,21.1336587 C30.0006307,21.3627783 29.9099212,21.5827126 29.7480552,21.7448545 C29.5862286,21.9071541 29.3664915,21.9983368 29.1373325,21.9983368 L26.7672536,21.9983368 C26.1605125,23.8826995 24.8995007,25.4368192 23,25.9945984 L23,29.1371748 C22.9989356,29.6133114 22.6131932,29.9989356 22.1371748,30 L19.8646386,30 C19.387753,30 19.0010644,29.6139422 19,29.1371748 L19,25.9945984 C17.150092,25.4115892 16.0015506,23.8442238 15.4057687,21.9983368 L7.99279785,21.9983368 L7.99279785,29.1355191 C7.99279785,29.612247 7.60674003,29.9990933 7.13001204,30 L4.86463863,30 C4.27099609,30 4,29.5809631 4,29.1355191 L4,22.0003473 L0.86282523,22.0003473 C0.632759527,21.9997166 0.412549277,21.9076272 0.250525624,21.7443815 C0.0886990802,21.5810175 -0.00153745071,21.3598611 1.57778937e-11,21.1299531 L4.8204621e-13,18.8534941 C4.8204621e-13,18.3767267 0.385900131,18.0010644 0.86282523,18 L4,18 L4,12.0017395 L0.86282523,12.0017395 C0.386688568,12.0006751 0.00106438898,11.6150904 1.4124477e-11,11.1389537 L-7.2942481e-12,8.86428768 C-0.000473061768,8.6351681 0.0902365309,8.41527323 0.252102497,8.2529342 C0.413929041,8.09079228 0.633666229,7.99964905 0.86282523,7.99964905 L6.75204993,7.99964905 L13.6710039,5.00313029 L19,5.00313029 Z M20.9982444,23.1303172 C22.364347,23.1303172 23.7172852,21.9130505 23.7172852,20.4113159 C23.7172852,18.9095814 22.499979,17.6922752 20.9982444,17.6922752 C19.496707,17.6922752 18.2794008,18.9095814 18.2794008,20.4113159 C18.2794008,21.1324592 18.5658003,21.824036 19.075682,22.3338783 C19.5855243,22.8439178 20.2772589,23.1303172 20.9982444,23.1303172 Z" id="Fill-1" fill="#FFFFFF" mask="url(#mask-2)"></path>
            </g>
        </g>
    </g>
</svg>