<?xml version="1.0" encoding="UTF-8"?>
<svg width="22px" height="22px" viewBox="0 0 22 22" version="1.1" xmlns="http://www.w3.org/2000/svg" xmlns:xlink="http://www.w3.org/1999/xlink">
    <!-- Generator: Sketch 52.4 (67378) - http://www.bohemiancoding.com/sketch -->
    <title>女人icon-white</title>
    <desc>Created with Sketch.</desc>
    <g id="Page-1" stroke="none" stroke-width="1" fill="none" fill-rule="evenodd">
        <g id="女人icon-white" fill="#FFFFFF">
            <path d="M11,18.3876179 C11,18.3876179 10.0248702,21.0248456 8.13513228,19.2916263 C8.13513228,19.2916263 7.30504586,18.7819142 7.21635027,15.3640195 L11,18.3861319 L14.7989901,15.3640195 C14.7102945,18.7799328 13.8633025,19.2916263 13.8633025,19.2916263 C11.9761733,21.0248456 11,18.3876179 11,18.3876179 Z M13.7558746,14.0723041 L13.7630725,12.3809166 L16.4878521,12.3809166 L16.4806542,5.94695467 C16.4806542,2.6609639 13.7466779,0 10.998339,0 C8.25,0 5.47750854,2.66411794 5.47750854,5.95010872 L5.47750854,12.3809166 L8.2378521,12.3809166 L8.2378521,14.0723041 L0,17.8026541 L0,22 L22,22 L22,17.8341945 L13.7558746,14.0723041 Z" id="Fill-1-Copy-121"></path>
        </g>
    </g>
</svg>