<?xml version="1.0" encoding="UTF-8"?>
<svg width="22px" height="22px" viewBox="0 0 22 22" version="1.1" xmlns="http://www.w3.org/2000/svg" xmlns:xlink="http://www.w3.org/1999/xlink">
    <!-- Generator: Sketch 52.4 (67378) - http://www.bohemiancoding.com/sketch -->
    <title>嫌疑人icon-white</title>
    <desc>Created with Sketch.</desc>
    <defs>
        <polygon id="path-1" points="0 0 0 22 22 22 22 4.07542383e-15"></polygon>
    </defs>
    <g id="Page-1" stroke="none" stroke-width="1" fill="none" fill-rule="evenodd">
        <g id="嫌疑人icon-white">
            <mask id="mask-2" fill="white">
                <use xlink:href="#path-1"></use>
            </mask>
            <g id="Clip-2"></g>
            <path d="M19.2450228,14.9829236 C21.9873995,16.2504888 22,17.6431942 22,17.6431942 L22,20.9968715 L0,21 L0,17.6431942 C0,17.6431942 0.0136085592,16.2551816 2.74540081,14.9881378 C4.06543105,14.3754725 6.02254347,12.8044425 8.91814245,12.2506974 C8.17471191,11.4232083 7.61776902,10.1248794 7.03209696,8.57679172 C6.69440308,7.68308262 6.7508534,6.9192064 6.7508534,5.83361577 C6.7508534,5.03532602 6.60569543,3.75420393 6.79520722,3.05081211 C7.43783363,0.661157025 9.06682856,0 10.974547,0 C12.8807533,0 14.5077321,0.658028522 15.1513666,3.04351227 C15.3423904,3.74898975 15.1972325,5.03324035 15.1972325,5.83361577 C15.1972325,6.91712073 15.2551948,7.67786845 14.918509,8.57053471 C14.3373731,10.1102797 13.7723659,11.4101728 13.0254072,12.2418333 C15.9446952,12.7856715 17.9164242,14.3681727 19.2450228,14.9829236 Z M11.11,2.72 C10.37,2.72 9.79,2.93 9.37,3.36 C8.95,3.78 8.74,4.35 8.74,5.08 L9.79,5.08 C9.79,4.64 9.88,4.3 10.06,4.06 C10.26,3.77 10.59,3.63 11.04,3.63 C11.4,3.63 11.69,3.73 11.89,3.93 C12.08,4.13 12.18,4.4 12.18,4.75 C12.18,5.01 12.08,5.25 11.9,5.48 L11.73,5.67 C11.11,6.22 10.73,6.63 10.6,6.91 C10.46,7.17 10.4,7.49 10.4,7.86 L10.4,8.03 L11.47,8.03 L11.47,7.86 C11.47,7.62 11.52,7.4 11.63,7.2 C11.72,7.02 11.86,6.84 12.05,6.68 C12.52,6.27 12.8,6.01 12.89,5.9 C13.14,5.58 13.27,5.17 13.27,4.68 C13.27,4.08 13.07,3.6 12.67,3.25 C12.27,2.89 11.75,2.72 11.11,2.72 Z M10.93,8.57 C10.73,8.57 10.55,8.63 10.41,8.77 C10.27,8.9 10.2,9.07 10.2,9.28 C10.2,9.48 10.27,9.65 10.41,9.79 C10.55,9.93 10.73,10 10.93,10 C11.13,10 11.31,9.93 11.45,9.8 C11.59,9.66 11.67,9.49 11.67,9.28 C11.67,9.07 11.6,8.9 11.46,8.77 C11.32,8.63 11.14,8.57 10.93,8.57 Z" id="形状" fill="#FFFFFF" mask="url(#mask-2)"></path>
        </g>
    </g>
</svg>