<?xml version="1.0" encoding="UTF-8"?>
<svg width="22px" height="22px" viewBox="0 0 22 22" version="1.1" xmlns="http://www.w3.org/2000/svg" xmlns:xlink="http://www.w3.org/1999/xlink">
    <!-- Generator: Sketch 52.4 (67378) - http://www.bohemiancoding.com/sketch -->
    <title>中国工商银行icon-white</title>
    <desc>Created with Sketch.</desc>
    <g id="Page-1" stroke="none" stroke-width="1" fill="none" fill-rule="evenodd">
        <g id="中国工商银行icon-white">
            <polygon id="Clip-4" points="22 0 22 21.999906 2.80602643e-16 21.999906 0 0"></polygon>
            <path d="M16.7446583,11.5642083 L16.7446583,16.3070417 L11.4921583,16.3070417 L11.4921583,14.7752917 L15.0662417,14.7752917 L15.0662417,13.0235417 L11.4921583,13.0235417 L11.4921583,8.28070833 L15.0662417,8.28070833 L15.0662417,6.67470833 L11.4921583,6.67470833 L11.4921583,5.14479167 L16.7446583,5.14479167 L16.7446583,9.88579167 L13.170575,9.88579167 L13.170575,11.4917917 L16.7446583,11.4917917 L16.7446583,11.5642083 Z M4.70625833,11.5642083 L4.70625833,11.4917917 L8.28034167,11.4917917 L8.28034167,9.88579167 L4.70625833,9.88579167 L4.70625833,5.14479167 L9.95875833,5.14479167 L9.95875833,6.67470833 L6.38375833,6.67470833 L6.38375833,8.28070833 L9.95875833,8.28070833 L9.95875833,13.0235417 L6.38375833,13.0235417 L6.38375833,14.7752917 L9.95875833,14.7752917 L9.95875833,16.3070417 L4.70625833,16.3070417 L4.70625833,11.5642083 Z M10.7259167,19.3746667 C15.50175,19.3746667 19.3746667,15.50175 19.3746667,10.725 C19.3746667,5.94916667 15.50175,2.07625 10.7259167,2.07625 C5.94916667,2.07625 2.07625,5.94916667 2.07625,10.725 C2.07625,15.50175 5.94916667,19.3746667 10.7259167,19.3746667 Z M10.7259167,0 C16.6494167,0 21.4518333,4.80241667 21.4518333,10.725 C21.4518333,16.6494167 16.6494167,21.4518333 10.7259167,21.4518333 C4.80241667,21.4518333 0,16.6494167 0,10.725 C0,4.80241667 4.80241667,0 10.7259167,0 Z" id="合并形状" fill="#FFFFFF"></path>
        </g>
    </g>
</svg>