<?xml version="1.0" encoding="UTF-8"?>
<svg width="14px" height="14px" viewBox="0 0 14 14" version="1.1" xmlns="http://www.w3.org/2000/svg" xmlns:xlink="http://www.w3.org/1999/xlink">
    <!-- Generator: Sketch 52.4 (67378) - http://www.bohemiancoding.com/sketch -->
    <title>提示-hover</title>
    <desc>Created with Sketch.</desc>
    <g id="Page-1" stroke="none" stroke-width="1" fill="none" fill-rule="evenodd">
        <g id="1-5-6实控人交互" transform="translate(-589.000000, -451.000000)" fill="#FFFFFF">
            <g id="分组" transform="translate(249.000000, 102.000000)">
                <g id="提示-hover" transform="translate(340.000000, 349.000000)">
                    <path d="M13.4499221,4.27533993 C13.8146708,5.13844561 13.9999931,6.05502542 13.9999931,7.00002566 C14.0026078,8.85714526 13.2645998,10.6386423 11.9494164,11.9498096 C10.638232,13.2647367 8.85695718,14.0025909 7.00004268,13.9999932 C5.1429231,14.0025909 3.36137482,13.2646 2.05019043,11.9494165 C0.735263358,10.6382321 -0.00259082115,8.85695727 6.83571673e-06,7.00002566 C-0.00259082115,5.14292315 0.735400077,3.36135777 2.0505835,2.05019045 C3.36176789,0.735263365 5.14311109,-0.00259082118 7.00004268,6.83571675e-06 C8.85716226,-0.00259082118 10.6386422,0.735400084 11.9498095,2.05058352 C12.5890894,2.68812029 13.098572,3.44367956 13.4499221,4.27533993 Z M7.00588571,9.37054842 C6.53587168,9.37054842 6.154309,9.73561062 6.154309,10.1865647 C6.154309,10.6375187 6.53509142,11.0029304 7.00588571,11.0029304 C7.47623176,11.0029304 7.85747901,10.6375187 7.85747901,10.1865647 C7.85747901,9.73643197 7.47623176,9.37054842 7.00588571,9.37054842 Z M7.65386492,8.12842821 L8.0058608,3.84290553 C8.0058608,3.40712017 7.49983871,3.00293043 7.02949265,3.00293043 C6.55986045,3.00293043 6.0058608,3.38943501 6.0058608,3.82604172 L6.39911074,8.1696528 C6.49670938,8.63411538 6.71868442,8.75071159 7.00427539,8.80252631 C7.00427539,8.80252631 6.78067342,8.80252631 7.00427539,8.80252631 C7.30503987,8.80252631 7.60982186,8.58777048 7.65386492,8.12842821 Z" id="合并形状"></path>
                </g>
            </g>
        </g>
    </g>
</svg>