<?xml version="1.0" encoding="UTF-8"?>
<svg width="30px" height="20px" viewBox="0 0 30 20" version="1.1" xmlns="http://www.w3.org/2000/svg" xmlns:xlink="http://www.w3.org/1999/xlink">
    <!-- Generator: Sketch 52.4 (67378) - http://www.bohemiancoding.com/sketch -->
    <title>政府账户icon</title>
    <desc>Created with Sketch.</desc>
    <g id="Page-1" stroke="none" stroke-width="1" fill="none" fill-rule="evenodd">
        <g id="z" transform="translate(-707.000000, -994.000000)" fill="#FFFFFF">
            <g id="政府账户icon" transform="translate(707.000000, 989.000000)">
                <g>
                    <path d="M2,5 L28,5 C29.1045695,5 30,5.8954305 30,7 L30,23 C30,24.1045695 29.1045695,25 28,25 L2,25 C0.8954305,25 1.3527075e-16,24.1045695 0,23 L0,7 C-1.3527075e-16,5.8954305 0.8954305,5 2,5 Z M17,8 L17,10 L27,10 L27,8 L17,8 Z M19,13 L19,15 L27,15 L27,13 L19,13 Z M21,18 L21,20 L27,20 L27,18 L21,18 Z M7.02233887,13.989196 C7.01624015,14.0162926 7.01622297,19.9663181 7.02233887,20.0070488 L6.02008057,20.0070488 C6.02617928,19.9663181 6.02626518,14.0162926 6.02008057,13.989196 L7.02233887,13.989196 Z M10.5,11.9972242 C10.5,12.5513053 10.0540548,12.9972526 9.5,12.9972526 C8.94594518,12.9972526 8.5,12.5445517 8.5,11.9904706 C8.5,11.4363895 8.94594518,10.9972526 9.5,10.9972526 C10.0473205,10.9972526 10.5,11.4432 10.5,11.9972242 Z M12.0153809,20.0070488 C12.0214796,19.9663181 12.0153809,14.0162926 12.0153809,13.989196 L13.0210571,13.989196 C13.0149584,14.0162926 13.0149412,19.9663181 13.0210571,20.0070488 L12.0153809,20.0070488 Z M10.0153809,13.989196 C10.0092821,14.0162926 10.009265,19.9663181 10.0153809,20.0070488 L9.01538086,20.0070488 C9.02147957,19.9663181 9.01538086,14.0162926 9.01538086,13.989196 L10.0153809,13.989196 Z M3,21.9972526 L16,21.9972526 L15.9725353,20.0070488 L15.0153809,20.0070488 C15.0214968,19.9663181 15.0153809,14.0162926 15.0153809,13.989196 L15.5393286,13.989196 C16.0043942,13.989196 16.1789253,13.2203693 15.7873535,12.9350824 L10.0153809,8 C9.85762175,7.88448182 9.17315715,7.88448182 9.01538086,8 L3.23022461,12.9350824 C2.84470003,13.2203693 3.03439579,13.989196 3.49327671,13.989196 L4.01014112,13.989196 C4.00395651,14.0162926 4.00928215,19.9663181 4.01538086,20.0070488 L3,20 L3,21.9972526 Z"></path>
                </g>
            </g>
        </g>
    </g>
</svg>