<?xml version="1.0" encoding="UTF-8"?>
<svg width="30px" height="20px" viewBox="0 0 30 20" version="1.1" xmlns="http://www.w3.org/2000/svg" xmlns:xlink="http://www.w3.org/1999/xlink">
    <!-- Generator: Sketch 52.4 (67378) - http://www.bohemiancoding.com/sketch -->
    <title>人员账户icon</title>
    <desc>Created with Sketch.</desc>
    <g id="Page-1" stroke="none" stroke-width="1" fill="none" fill-rule="evenodd">
        <g id="z" transform="translate(-604.000000, -994.000000)" fill="#FFFFFF">
            <g id="人员账户icon" transform="translate(604.000000, 989.000000)">
                <g>
                    <path d="M2,5 L28,5 C29.1045695,5 30,5.8954305 30,7 L30,23 C30,24.1045695 29.1045695,25 28,25 L2,25 C0.8954305,25 1.3527075e-16,24.1045695 0,23 L0,7 C-1.3527075e-16,5.8954305 0.8954305,5 2,5 Z M10.8307193,20.4360203 L11,19.6572717 L10.6598161,18 L9.35776095,18 L9,19.6572717 L9.18793943,20.4360203 L9.99972958,22 L10.8307193,20.4360203 Z M14.3347486,18.4703992 C11.7207449,18.2395322 11.56504,17.0626815 11.56504,17.0626815 L11.56504,15.8867821 C13.0922802,15.2978811 13.5587608,13.046611 13.5587608,13.046611 C13.5587608,12.1513672 13.1189182,12.1263143 13.1189182,12.1263143 L13.1189182,10.6678566 C13.2210301,8.23709381 11.7470657,8.79967349 11.7207449,8.79967349 C11.6960097,8.79967349 10.8937012,8.16003244 10.8937012,8.16003244 C10.3225717,7.72525412 9.05441679,8.31415517 9.05441679,8.31415517 L9.00209232,8.31478942 C7.56681627,8.35252729 7.19166568,9.38825742 7.19166568,9.38825742 L7.21798647,12.0743058 C6.46863665,12.0743058 6.57043152,13.1233552 6.57043152,13.1233552 C6.57043152,14.2742017 8.58920469,15.8604608 8.58920469,15.8604608 C8.71858883,17.3712441 7.91659742,18.1367837 7.91659742,18.1367837 C7.91659742,18.1367837 6.5453792,18.1875237 4.99245237,18.6486234 C4.95534957,18.660357 4.91919812,18.6708222 4.88336378,18.6825558 C3.41859576,19.177905 3,20.5925994 3,20.5925994 L3,21.9743129 L9.33918875,22 L10.2756382,21.9739958 L16.9998082,21.9739958 L16.9998082,20.8989421 C17.026129,19.3152201 14.3347486,18.4703992 14.3347486,18.4703992 Z M17,8 L17,10 L27,10 L27,8 L17,8 Z M19,13 L19,15 L27,15 L27,13 L19,13 Z M21,18 L21,20 L27,20 L27,18 L21,18 Z"></path>
                </g>
            </g>
        </g>
    </g>
</svg>