<?xml version="1.0" encoding="UTF-8"?>
<svg width="6px" height="12px" viewBox="0 0 6 12" version="1.1" xmlns="http://www.w3.org/2000/svg" xmlns:xlink="http://www.w3.org/1999/xlink">
    <!-- Generator: Sketch 52.4 (67378) - http://www.bohemiancoding.com/sketch -->
    <title>右键菜单-二级展开箭头-hover</title>
    <desc>Created with Sketch.</desc>
    <g id="右键菜单-二级展开箭头-hover" stroke="none" stroke-width="1" fill="none" fill-rule="evenodd">
        <path d="M5.61779733,7.01497874 C6.23519884,6.28738171 6.08710363,5.25914576 5.29992971,4.69222092 L1.0555545,0.190490235 C0.839905904,-0.0382341014 0.461130943,-0.0647248511 0.209536948,0.13132149 C-0.0420570477,0.327367831 -0.0711965509,0.671712502 0.144452046,0.900436839 L4.43004444,5.44588389 L4.53209322,5.53163883 C4.82814854,5.72789288 4.88675074,6.09046672 4.66766509,6.34865538 C4.62935147,6.39380732 4.58372584,6.43413408 4.53209322,6.46836117 L4.43004444,6.55411611 L0.144452046,11.0995632 C-0.0711965509,11.3282875 -0.0420570477,11.6726322 0.209536948,11.8686785 C0.461130943,12.0647249 0.839905904,12.0382341 1.0555545,11.8095098 L5.30002615,7.30767679 C5.41872098,7.22205865 5.52545783,7.12379925 5.61779733,7.01497874 Z" fill="#167CF3"></path>
    </g>
</svg>