<?xml version="1.0" encoding="UTF-8"?>
<svg width="30px" height="30px" viewBox="0 0 30 30" version="1.1" xmlns="http://www.w3.org/2000/svg" xmlns:xlink="http://www.w3.org/1999/xlink">
    <!-- Generator: Sketch 52.4 (67378) - http://www.bohemiancoding.com/sketch -->
    <title>主体-企业icon</title>
    <desc>Created with Sketch.</desc>
    <g id="Page-1" stroke="none" stroke-width="1" fill="none" fill-rule="evenodd">
        <g id="z" transform="translate(-399.000000, -989.000000)" fill="#FFFFFF">
            <g id="主体-企业icon" transform="translate(399.000000, 989.000000)">
                <path d="M27.9872891,28.011592 L27.9961838,11.0246645 C27.9961838,10.1925431 27.3726646,9.63339537 26.5624403,9.37852341 L19.0052097,7.11065336 C17.9735511,6.78551374 16.997683,7.20491927 16.997683,8.18054737 L16.9895664,28.011592 L14.9855359,28.011592 L15,1.68485607 C15,0.386976064 13.8989476,-0.304317974 12.610253,0.129382868 L4.30966898,2.90070739 C3.2977567,3.24057853 3.01014876,4.36724997 3.01014876,5.47763796 L3.01014876,28.011592 L1.0296448,28.011592 C0.34308567,28.011592 4.54747351e-13,28.3749263 4.54747351e-13,29.0105159 C4.54747351e-13,29.6463147 0.34308567,30 1.0296448,30 L29.0293681,30 C29.7158854,30 30,29.6463147 30,29.0105159 C30,28.3749263 29.7158854,28.011592 29.0293681,28.011592 L27.9872891,28.011592 Z M5.99140132,24.0049077 L5.99140132,22.0126155 L11.9909192,22.0126155 L11.9909192,24.0049077 L5.99140132,24.0049077 Z M5.99140132,19.0131882 L5.99140132,16.9985518 L11.9909192,16.9985518 L11.9909192,19.0131882 L5.99140132,19.0131882 Z M5.99140132,14.0035812 L5.99140132,12.0040851 L11.9909192,12.0040851 L11.9909192,14.0035812 L5.99140132,14.0035812 Z M5.99140132,9.00630623 L5.99140132,6.99670646 L11.9909192,6.99670646 L11.9909192,9.00630623 L5.99140132,9.00630623 Z M19.9906832,24.008998 L19.9906832,22.0085099 L24.9868436,22.0085099 L24.9868436,24.008998 L19.9906832,24.008998 Z M19.9906832,19.0131882 L19.9906832,16.9985518 L24.9868436,16.9985518 L24.9868436,19.0131882 L19.9906832,19.0131882 Z M19.9906832,14.0035812 L19.9906832,12.0040851 L24.9868436,12.0040851 L24.9868436,14.0035812 L19.9906832,14.0035812 Z"></path>
            </g>
        </g>
    </g>
</svg>