<?xml version="1.0" encoding="UTF-8"?>
<svg width="34px" height="39px" viewBox="0 0 34 39" version="1.1" xmlns="http://www.w3.org/2000/svg" xmlns:xlink="http://www.w3.org/1999/xlink">
    <!-- Generator: Sketch 52.4 (67378) - http://www.bohemiancoding.com/sketch -->
    <!-- <title>断点气泡</title> -->
    <!-- <desc>Created with Sketch.</desc> -->
    <g id="Page-1" stroke="none" stroke-width="1" fill="none" fill-rule="evenodd">
        <g id="z" transform="translate(-808.000000, -1234.000000)">
            <g id="断点气泡" transform="translate(809.000000, 1235.000000)">
                <path d="M16,37 C26.6666667,28.8910373 32,21.8910373 32,16 C32,7.163444 24.836556,0 16,0 C7.163444,0 0,7.163444 0,16 C0,21.8910373 5.33333333,28.8910373 16,37 Z" id="Oval-Copy-15" stroke="#EE8C00" fill="#FFFFFF"></path>
                <path d="M4.792,10.7 L5.788,10.7 L5.788,19.376 L9.736,19.376 L9.736,20.42 L4.792,20.42 L4.792,10.7 Z M6.172,13.88 L7.816,13.88 L7.816,10.172 L8.872,10.172 L8.872,13.88 L10.36,13.88 L10.36,14.888 L8.872,14.888 L8.872,15.116 C9.4,15.608 9.94,16.148 10.492,16.748 L9.88,17.66 C9.496,17.012 9.16,16.472 8.872,16.064 L8.872,18.992 L7.816,18.992 L7.816,16.148 C7.42,16.868 6.928,17.528 6.34,18.128 L5.896,17.024 C6.724,16.388 7.348,15.68 7.756,14.888 L6.172,14.888 L6.172,13.88 Z M9.556,10.88 L10.468,10.988 C10.396,11.876 10.24,12.668 9.976,13.364 L9.136,13.088 C9.352,12.44 9.496,11.708 9.556,10.88 Z M6.964,11 C7.156,11.648 7.336,12.392 7.504,13.232 L6.64,13.436 C6.472,12.692 6.28,11.984 6.052,11.3 L6.964,11 Z M12.016,14.864 L12.016,15.656 C11.98,18.08 11.608,19.892 10.888,21.116 L9.904,20.636 C10.6,19.46 10.96,17.792 10.996,15.656 L10.996,10.952 C12.508,10.892 13.78,10.628 14.824,10.148 L15.364,11.096 C14.356,11.504 13.24,11.756 12.004,11.84 L12.016,13.772 L15.58,13.772 L15.58,14.864 L14.44,14.864 L14.44,21.248 L13.336,21.248 L13.336,14.864 L12.016,14.864 Z M21.244,10.232 L22.372,10.232 L22.372,11.288 L26.944,11.288 L26.944,12.356 L22.372,12.356 L22.372,13.628 L26.188,13.628 L26.188,17.696 L18.004,17.696 L18.004,13.628 L21.244,13.628 L21.244,10.232 Z M25.048,16.64 L25.048,14.696 L19.132,14.696 L19.132,16.64 L25.048,16.64 Z M17.98,18.092 L18.928,18.56 C18.496,19.592 17.98,20.48 17.404,21.224 L16.468,20.54 C17.044,19.856 17.548,19.04 17.98,18.092 Z M20.836,18.476 C21.076,19.244 21.292,20.084 21.484,20.984 L20.332,21.248 C20.188,20.288 19.996,19.436 19.768,18.704 L20.836,18.476 Z M23.332,18.32 C23.68,19.136 23.98,20.012 24.244,20.96 L23.116,21.224 C22.888,20.216 22.6,19.316 22.264,18.536 L23.332,18.32 Z M25.732,18.056 C26.488,19.04 27.064,19.892 27.472,20.624 L26.524,21.284 C26.104,20.492 25.54,19.604 24.82,18.644 L25.732,18.056 Z" id="断点-copy-2" fill="#EE8C00"></path>
            </g>
        </g>
    </g>
</svg>