<?xml version="1.0" encoding="UTF-8"?>
<svg width="12px" height="14px" viewBox="0 0 12 14" version="1.1" xmlns="http://www.w3.org/2000/svg" xmlns:xlink="http://www.w3.org/1999/xlink">
    <!-- Generator: Sketch 52.4 (67378) - http://www.bohemiancoding.com/sketch -->
    <title>锁定icon</title>
    <desc>Created with Sketch.</desc>
    <g id="锁定icon" stroke="none" stroke-width="1" fill="none" fill-rule="evenodd">
        <path d="M10.9977875,6.00637817 L9.99298096,6.00637817 L9.99298096,3.77930414 C9.99298096,1.68896892 8.16538111,-2.7533531e-14 6.00107117,-2.7533531e-14 C3.83677954,-2.7533531e-14 2.00073242,1.70037491 2.00073242,3.79179045 L2.00073242,6.00637817 L0.970753434,6.0414856 C0.718122434,6.03747558 0.474225577,6.13397231 0.29274947,6.30977214 C0.111291674,6.48559028 0.00715943475,6.72633772 0.00322266117,6.97896872 L0,13.0625215 C0,13.5800149 0.435022636,14.0000046 0.967530773,14.0000046 L11.0325425,14.0000046 C11.5682,14.0000046 12,13.5800149 12,13.0625215 L12,7.01159668 C11.9963562,6.75889244 11.8955199,6.48537055 11.7139705,6.30949748 C11.5325127,6.1336061 11.2504917,6.00207519 10.9977875,6.00637817 Z M7.00628662,10.9930115 L4.98730469,10.9930115 L4.98730469,7.99816895 L7.00628662,7.99816895 L7.00628662,10.9930115 Z M8.00656128,6.00637817 L3.98970032,6.00637817 L3.98970032,3.77930414 C3.98970032,2.49034953 4.66926982,1.518203 6.00107117,1.518203 C7.33503317,1.518203 8.00656128,2.50283585 8.00656128,3.79179045 L8.00656128,6.00637817 Z" fill="#F57500"></path>
    </g>
</svg>