<?xml version="1.0" encoding="UTF-8"?>
<svg width="14px" height="14px" viewBox="0 0 14 14" version="1.1" xmlns="http://www.w3.org/2000/svg" xmlns:xlink="http://www.w3.org/1999/xlink">
    <!-- Generator: Sketch 52.4 (67378) - http://www.bohemiancoding.com/sketch -->
    <title>提示-normal</title>
    <desc>Created with Sketch.</desc>
    <g id="Page-1" stroke="none" stroke-width="1" fill="none" fill-rule="evenodd">
        <g id="1-5-5实控人" transform="translate(-589.000000, -451.000000)" fill="#FFFFFF">
            <g id="分组" transform="translate(249.000000, 102.000000)">
                <g id="提示-normal" transform="translate(340.000000, 349.000000)">
                    <path d="M12.2845996,9.23219906 C12.5834669,8.52590983 12.7365577,7.76653952 12.7346778,6.99956423 C12.736609,5.47831141 12.1321923,4.01892385 11.0550705,2.94453637 C9.98068304,1.86746579 8.52129548,1.26304914 7.00004268,1.26492902 C5.47870443,1.26298078 4.01933396,1.86739743 2.94492941,2.94453637 C1.86787593,4.01912892 1.26332257,5.47856776 1.26492901,7.00002566 C1.26298077,8.52150065 1.86760249,9.9810762 2.94492941,11.0554637 C4.01933396,12.1325343 5.47870443,12.7370193 7.00004268,12.7350881 C8.52150056,12.7370193 9.9810761,12.1323975 11.0554636,11.0550706 C11.5793187,10.5326852 11.9967382,9.91365675 12.2845996,9.23219906 Z M13.4499221,4.27533993 C13.8146708,5.13844561 13.9999931,6.05502542 13.9999931,7.00002566 C14.0026078,8.85714526 13.2645998,10.6386423 11.9494164,11.9498096 C10.638232,13.2647367 8.85695718,14.0025909 7.00004268,13.9999932 C5.1429231,14.0025909 3.36137482,13.2646 2.05019043,11.9494165 C0.735263358,10.6382321 -0.00259082115,8.85695727 6.83571674e-06,7.00002566 C-0.00259082115,5.14292315 0.735400077,3.36135777 2.0505835,2.05019045 C3.36176789,0.735263365 5.14311109,-0.00259082118 7.00004268,6.83571764e-06 C8.85716226,-0.00259082118 10.6386422,0.735400084 11.9498095,2.05058352 C12.5890894,2.68812029 13.098572,3.44367956 13.4499221,4.27533993 Z M7.00588571,9.37054842 C7.47623176,9.37054842 7.85747901,9.73643197 7.85747901,10.1865647 C7.85747901,10.6375187 7.47623176,11.0029304 7.00588571,11.0029304 C6.53509142,11.0029304 6.154309,10.6375187 6.154309,10.1865647 C6.154309,9.73561062 6.53587168,9.37054842 7.00588571,9.37054842 Z M7.65386492,8.12842821 C7.60982186,8.58777048 7.30503987,8.80252631 7.00427539,8.80252631 C6.78067342,8.80252631 7.00427539,8.80252631 7.00427539,8.80252631 C6.71868442,8.75071159 6.49670938,8.63411538 6.39911074,8.1696528 L6.0058608,3.82604172 C6.0058608,3.38943501 6.55986045,3.00293043 7.02949265,3.00293043 C7.49983871,3.00293043 8.0058608,3.40712017 8.0058608,3.84290553 L7.65386492,8.12842821 Z" id="提示"></path>
                </g>
            </g>
        </g>
    </g>
</svg>