<?xml version="1.0" encoding="UTF-8"?>
<svg width="22px" height="22px" viewBox="0 0 22 22" version="1.1" xmlns="http://www.w3.org/2000/svg" xmlns:xlink="http://www.w3.org/1999/xlink">
    <!-- Generator: Sketch 52.4 (67378) - http://www.bohemiancoding.com/sketch -->
    <title>案件icon-white</title>
    <desc>Created with Sketch.</desc>
    <defs>
        <polygon id="path-1" points="6.93131441e-17 0 22 0 22 22 6.93131441e-17 22"></polygon>
    </defs>
    <g id="Page-1" stroke="none" stroke-width="1" fill="none" fill-rule="evenodd">
        <g id="案件icon-white">
            <mask id="mask-2" fill="white">
                <use xlink:href="#path-1"></use>
            </mask>
            <g id="Clip-2"></g>
            <path d="M11.071387,21.9222488 L10.9587309,21.9785098 L10.3959333,21.9785098 L10.2833845,21.9222488 C-0.297837423,17.9261366 1.02476502,5.79710732 1.08105282,5.68455854 L1.1373138,5.17804878 L1.64393087,5.17804878 C1.86905526,5.17804878 3.64198697,5.0092122 3.86708453,2.87040976 L3.92337233,2.47647561 L4.2610455,2.30763902 C7.5536138,1.09747805 9.60793087,0.337673171 10.4803918,0 L10.8743528,0 C11.0431894,0 10.8743528,0 17.1498797,2.25135122 L17.4875528,2.4201878 L17.5438406,2.81414878 C17.8253333,5.0655 19.7108138,5.17804878 19.7671016,5.17804878 L20.2736114,5.17804878 L20.3298992,5.68455854 C20.3298992,5.79710732 21.6525821,17.9261366 11.071387,21.9222488 Z M10.6210577,4.22120976 L8.65119916,7.96410732 L4.2047577,8.58316585 L7.44103819,11.538061 L6.68123331,15.7029829 L10.6773187,13.7612146 L14.6734309,15.7029829 L13.9135992,11.538061 L17.1498797,8.58316585 L12.7035723,7.96410732 L10.6210577,4.22120976 Z" id="Fill-1" fill="#FFFFFF" mask="url(#mask-2)"></path>
        </g>
    </g>
</svg>