<?xml version="1.0" encoding="UTF-8"?>
<svg width="28px" height="28px" viewBox="0 0 28 28" version="1.1" xmlns="http://www.w3.org/2000/svg" xmlns:xlink="http://www.w3.org/1999/xlink">
    <!-- Generator: Sketch 52.4 (67378) - http://www.bohemiancoding.com/sketch -->
    <title>支付宝icon-click</title>
    <desc>Created with Sketch.</desc>
    <g id="Page-1" stroke="none" stroke-width="1" fill="none" fill-rule="evenodd">
        <g id="0.0控件库" transform="translate(-1063.000000, -2136.000000)">
            <g id="支付宝icon-click" transform="translate(1062.000000, 2135.000000)">
                <rect id="矩形" fill="#D8D8D8" opacity="0" x="0" y="0" width="30" height="30"></rect>
                <path d="M29,20.1672757 L29,6.38334874 C29,3.41234 26.587619,1 23.6142315,1 L6.38334874,1 C3.41234,1 1,3.41123267 1,6.38334874 L1,23.6153799 C1,26.5865117 3.41012534,28.9988517 6.38334874,28.9988517 L23.6153799,28.9988517 C26.2640324,28.9988517 28.4668409,27.0837851 28.9158839,24.5661667 C27.4879607,23.9479481 21.300567,21.2759186 18.0763077,19.7371394 C15.6226273,22.7094195 13.0535796,24.4923446 9.18099874,24.4923446 C5.30821285,24.4923446 2.72345739,22.1068676 3.03379702,19.1884366 C3.23869417,17.2722627 4.55235725,14.1388045 10.2615482,14.6763109 C13.2697141,14.9585981 14.6471512,15.5207529 17.0998472,16.3304166 C17.7347577,15.1679656 18.2622982,13.8856769 18.6620035,12.5237834 L7.78321955,12.5237834 L7.78321955,11.4453256 L13.165584,11.4453256 L13.165584,9.51020399 L6.60071361,9.51020399 L6.60071361,8.32310469 L13.1666913,8.32310469 L13.1666913,5.5278334 C13.1666913,5.5278334 13.225954,5.09097101 13.7086681,5.09097101 L16.4009166,5.09097101 L16.4009166,8.32195634 L23.4003937,8.32195634 L23.4003937,9.50909666 L16.4009166,9.50909666 L16.4009166,11.4441772 L22.111379,11.4441772 C21.5860532,13.580997 20.7898416,15.544294 19.7920958,17.2588107 C21.4506718,17.8590658 29,20.1672757 29,20.1672757 Z M8.75196969,22.6433898 C4.65985033,22.6433898 4.01247212,20.0596186 4.229878,18.9801764 C4.44486417,17.9061889 5.62974881,16.5029551 7.90527198,16.5029551 C10.5191461,16.5029551 12.860863,17.1737103 15.6719651,18.539951 C13.6974717,21.1124849 11.2718028,22.6433898 8.75196969,22.6433898 Z" id="umidd17" fill="#FFFFFF"></path>
            </g>
        </g>
    </g>
</svg>