<?xml version="1.0" encoding="UTF-8"?>
<svg width="22px" height="22px" viewBox="0 0 22 22" version="1.1" xmlns="http://www.w3.org/2000/svg" xmlns:xlink="http://www.w3.org/1999/xlink">
    <!-- Generator: Sketch 52.4 (67378) - http://www.bohemiancoding.com/sketch -->
    <title>北京银行icon-white</title>
    <desc>Created with Sketch.</desc>
    <g id="Page-1" stroke="none" stroke-width="1" fill="none" fill-rule="evenodd">
        <g id="北京银行icon-white" fill="#FFFFFF">
            <polygon id="北京银行icon" points="10.7001873 0 10.4340135 0.012853685 10.1522364 0.0266254904 9.87688418 0.0459060179 9.607039 0.0789583507 9.34086519 0.112928804 9.07377354 0.1533261 8.80301052 0.201068358 8.54234375 0.253401219 8.28075914 0.314915283 8.02559941 0.381019948 7.77043969 0.456305818 7.52354053 0.536182289 7.27297001 0.61605876 7.02423517 0.711543277 6.78376089 0.813454637 6.54420446 0.912611635 6.30005883 1.0282948 6.06692728 1.1412236 5.83196005 1.26333361 5.60341771 1.39554294 5.37487536 1.52958852 5.14633302 1.67189717 4.92421556 1.81971455 4.70485162 1.97304065 4.49007689 2.13462983 4.27254864 2.30264586 4.0577739 2.4761706 3.84391701 2.65887655 3.64290989 2.83882814 3.43456004 3.03438778 3.23263508 3.2290293 3.0325458 3.43009765 2.84438845 3.63759286 2.65531325 3.83866121 2.47541647 4.05533762 2.30102673 4.26283282 2.13948676 4.47767298 1.97794679 4.69251315 1.82558523 4.91469827 1.66863446 5.13596528 1.52820483 5.36457725 1.39420008 5.5922711 1.26662022 5.82088306 1.1399582 6.05592188 1.0252281 6.29096069 0.917840738 6.53150822 0.810453372 6.77481012 0.70857305 7.01535765 0.623213861 7.26508639 0.536936832 7.51206076 0.454331165 7.76087138 0.382739588 8.01519072 0.314819373 8.2713463 0.253324044 8.5330106 0.201007122 8.7946749 0.152361562 9.05542108 0.113812252 9.32626659 0.0807699849 9.59435773 0.0532347628 9.8679576 0.0256995407 10.1443118 0.0128497703 10.4197479 0.00642488517 10.6942659 0 10.977047 0.00642488517 11.2579918 0.0128497703 11.5398548 0.0256995407 11.816209 0.0532347628 12.0898089 0.0807699849 12.365245 0.113812252 12.6342542 0.152361562 12.9023454 0.201007122 13.1649278 0.253324044 13.4275102 0.314819373 13.6873383 0.382739588 13.9517569 0.454331165 14.2051582 0.536936832 14.4539688 0.623213861 14.7082881 0.70857305 14.95159 0.810453372 15.1985644 0.917840738 15.44003 1.0252281 15.6824138 1.1399582 15.9183708 1.26662022 16.1524914 1.39420008 16.385694 1.52820483 16.6152241 1.66863446 16.8438361 1.82558523 17.0715299 1.97794679 17.293715 2.13948676 17.5076371 2.30102673 17.7289041 2.47541647 17.9382355 2.65531325 18.1539938 2.84438845 18.361489 3.0325458 18.5689842 3.23263508 18.7691345 3.43456004 18.9665303 3.64290989 19.1593356 3.84391701 19.3475503 4.0577739 19.5219932 4.27254864 19.696436 4.49007689 19.864452 4.70485162 20.0251231 4.92421556 20.1802855 5.14633302 20.3281028 5.37487536 20.4713296 5.60341771 20.6035389 5.83196005 20.7357483 6.06692728 20.8578583 6.30005883 20.978132 6.54420446 21.0864702 6.78376089 21.1938903 7.02423517 21.2884567 7.27297001 21.382105 7.52354053 21.4684083 7.77043969 21.5436942 8.02559941 21.6171438 8.28075914 21.6841666 8.54234375 21.7456807 8.80301052 21.7989316 9.07377354 21.8448377 9.34086519 21.885235 9.607039 21.9274685 9.87688418 21.9513396 10.1522364 21.9733745 10.4340135 21.9853101 10.7167085 22 10.9984856 22 11.3949928 21.9935732 11.7832394 21.9807195 12.1678147 21.946749 12.5496364 21.9045155 12.9241154 21.8521826 13.2857447 21.7851598 13.6565523 21.7034471 14.0117567 21.6171438 14.3623719 21.5097237 14.7120692 21.3958768 15.0516703 21.2682581 15.3885178 21.1323763 15.7152691 20.978132 16.0447739 20.8183791 16.3687717 20.6439362 16.6835911 20.4630665 16.8983658 20.3281028 17.1067157 20.1940573 17.3077228 20.0590936 17.4958801 19.917703 17.6831197 19.7845756 17.8575094 19.6441032 18.0236386 19.5027126 18.1842607 19.3613221 18.3320331 19.2125866 18.4825589 19.0721142 18.614728 18.926133 18.7432257 18.7773975 18.8634628 18.6231533 18.9781929 18.4753359 19.0782376 18.3210917 19.1801179 18.1659294 19.2663949 18.010767 19.3471649 17.8583591 19.4205922 17.7031967 19.4885124 17.5416075 19.5490899 17.3809365 19.5958998 17.2202654 19.6436275 17.0586762 19.6766697 16.8906602 19.704205 16.729071 19.7234796 16.5628912 19.7299045 16.3939571 19.7372472 16.225023 19.7299045 16.0505801 19.7234796 15.8834822 19.704205 15.7090393 19.6766697 15.5336783 19.6436275 15.3932059 19.6096674 15.2463067 19.5692824 15.111343 19.5279795 14.9699524 19.4747448 14.836825 19.4205922 14.7082881 19.3609325 14.5797513 19.2939302 14.4539688 19.2205029 14.3327769 19.1461578 14.2125031 19.0580451 14.0903931 18.9708502 13.9765462 18.8763126 13.8700442 18.7845285 13.761706 18.6753055 13.654286 18.568836 13.5468659 18.4541059 13.4467908 18.3320331 13.3513062 18.205371 13.2585761 18.0814625 13.1649278 17.9447043 13.0767882 17.8033568 12.9914031 17.6574201 12.9106085 17.5032229 12.8224689 17.3481078 12.7490193 17.1874857 12.6755697 17.0195208 12.6012019 16.8442132 12.5341791 16.6643164 12.4653201 16.4816661 12.3992154 16.2935088 12.3395376 16.0989265 12.2780235 15.5977855 12.1035807 15.7556541 12.0099324 15.9107692 11.9098573 16.0585416 11.808864 16.1916285 11.6996077 16.3228797 11.587597 16.4412811 11.472832 16.5486685 11.3516401 16.649631 11.2249395 16.7441686 11.0982389 16.8240207 10.9623571 16.9047907 10.8209665 16.966286 10.6804941 17.0250278 10.534513 17.0736734 10.3857775 17.1067157 10.2324514 17.1397579 10.0681078 17.1544434 9.8817294 17.1599504 9.70728654 17.1544434 9.52549871 17.1397579 9.34554712 17.1067157 9.17018613 17.0599058 8.99482514 17.006671 8.82772723 16.9387508 8.65420249 16.8579808 8.48618646 16.7643611 8.3163342 16.6560559 8.15107253 16.5376544 7.98948335 16.4008961 7.82697605 16.2531238 7.66538686 16.0915838 7.51206076 15.9245368 7.35781654 15.7363795 7.19530924 15.5491399 7.04290126 15.3536399 6.90151073 15.1507971 6.76562891 14.9461186 6.6389283 14.7313438 6.51773642 14.5101442 6.41123445 14.2816019 6.30381437 14.0457168 6.20924798 13.8043247 6.11651782 13.5555899 6.03388699 13.2995123 5.96135548 13.0379277 5.89525081 12.770836 5.82730991 12.4936481 5.77314081 12.2155424 5.72631667 11.8906268 5.68041065 11.5703003 5.63909523 11.2343706 5.6060429 10.8975231 5.57666305 10.5551685 5.55279192 10.206389 5.53167515 9.85577384 5.51698523 9.49689812 5.5114765 9.13435102 5.50504966 8.76354337 5.5114765 8.3881465 5.5114765 8.00540692 5.52341207 7.61624244 5.54452884 7.22065309 5.56564561 6.82322805 5.58676237 6.4212138 5.61889659 6.4212138 9.09122778 6.74154022 9.04899424 7.06462016 9.00859695 7.3877001 8.98288958 7.71628708 8.95534596 8.03844918 8.93606544 8.36795401 8.92137551 8.69745883 8.91311243 9.359222 8.91311243 9.68872683 8.92780235 10.0246565 8.94249228 10.3615041 8.96911777 10.696516 8.99482514 11.0324457 9.02971371 11.3748003 9.06827477 11.7180727 9.1105083 11.9934249 9.15733244 12.2559274 9.2096653 12.4936481 9.27026125 12.7240262 9.33177531 12.9342117 9.40614306 13.1260404 9.47959269 13.306855 9.56038728 13.468395 9.64669059 13.5418222 9.68800601 13.6088246 9.73391203 13.675827 9.78716301 13.7373223 9.83398715 13.796982 9.88999249 13.8447097 9.94324347 13.8988623 9.99649445 13.9383294 10.0497454 13.9787144 10.1103414 14.0181816 10.1709373 14.0521417 10.2324514 14.0796769 10.2994742 14.0998694 10.359152 14.1200619 10.4261748 14.1338295 10.4922794 14.1466793 10.5666472 14.1466793 10.6878391 14.1338295 10.7493531 14.1200619 10.8163759 14.0659093 10.9623571 13.9915642 11.1303731 13.9447543 11.1973959 13.8915196 11.2662549 13.8318599 11.3250146 13.756597 11.3718387 13.6831697 11.4186629 13.6023997 11.4590602 13.514287 11.4930306 13.4206673 11.5205742 13.3206226 11.5398548 13.2058925 11.5600534 13.0920803 11.5673984 12.8369206 11.5673984 12.701998 11.5600534 12.563404 11.5398548 12.4064533 11.5205742 12.0053569 11.472832 11.6097675 11.4315166 11.2141781 11.3984642 10.8240958 11.3718387 10.4413562 11.3516401 10.0604523 11.3387864 9.6767949 11.3323596 9.30139804 11.3250146 8.93242606 11.3323596 8.56345409 11.3387864 8.19356427 11.3516401 7.83101718 11.3718387 7.47489497 11.3984642 7.12060844 11.4315166 6.76907544 11.472832 6.4212138 11.5205742 6.4212138 15.0590101 6.91042292 15.0030048 7.3877001 14.95159 7.85763456 14.9102746 8.32756902 14.8772223 8.77822882 14.8570236 9.22705294 14.836825 9.66119161 14.8285619 10.0916589 14.8285619 10.5157013 14.8441699 10.9314832 14.8570236 11.3344153 14.8836491 11.7309225 14.9231283 12.1210048 14.9644437 12.5037444 15.0167766 12.8699628 15.0782906 13.2325099 15.1443953 13.5225476 15.1985644 13.7905571 15.2655872 14.0457168 15.3316918 14.2816019 15.4060596 14.5009658 15.4941991 14.7038086 15.5823387 14.7983462 15.6291628 14.8846232 15.675987 14.9709003 15.721893 15.0516703 15.7769802 15.1269332 15.8302312 15.1994426 15.8834822 15.266445 15.94316 15.3251868 15.9982472 15.3885178 16.0597613 15.4417526 16.1194391 15.4867268 16.1781988 15.5344545 16.247976 15.5748395 16.3140806 15.6078817 16.3801853 15.6436775 16.4472081 15.6629522 16.5215758 15.6904874 16.5885986 15.7024193 16.6620482 15.7152691 16.736416 15.7299546 16.8172106 15.7299546 16.8768884 15.7363795 16.9429931 15.7299546 17.010934 15.7299546 17.0715299 15.7152691 17.1376346 15.7024193 17.1982305 15.6822268 17.2670896 15.6629522 17.3276855 15.6344991 17.3947083 15.6032925 17.4553042 15.5674968 17.5214089 15.5289474 17.5893498 15.4417526 17.7233954 15.3362009 17.8583591 15.266445 17.9382355 15.1865929 18.010767 15.1039872 18.0842167 15.0177102 18.1539938 14.9332688 18.2200985 14.8368955 18.2862032 14.7451115 18.3477172 14.644149 18.4083132 14.5431865 18.467991 14.4357991 18.5221601 14.3219869 18.5772473 14.2072568 18.6295802 14.085184 18.6764043 13.9585219 18.7241466 13.8318599 18.7636257 13.6960195 18.8031049 13.5629326 18.8444203 13.4206673 18.8774727 13.2820733 18.9123612 13.1260404 18.9380686 12.8167281 18.9922377 12.4936481 19.0390618 12.1512935 19.0721142 11.7924178 19.1005759 11.4161031 19.1143477 10.8112461 19.1143477 10.6019784 19.1051665 10.3936285 19.0932309 10.1871144 19.0803773 9.98427155 19.0583424 9.78234659 19.032635 9.58960003 19.0060095 9.38767507 18.9711209 9.19401067 18.9307236 9.00034628 18.8848176 8.81218892 18.8370754 8.62403157 18.7829063 8.43495638 18.7287372 8.24679903 18.6635506 8.06598441 18.5965278 7.88425194 18.5285869 7.70343731 18.4496286 7.52354053 18.3669977 7.34823295 18.2862032 7.17200753 18.1925549 7.00587835 18.0979885 6.8379135 17.9988315 6.66811296 17.896002 6.50198379 17.7895 6.3422795 17.6765712 6.18073953 17.5544612 6.0201174 17.4332693 5.85857743 17.3065687 5.70438019 17.1725232 5.55018294 17.0384776 5.40241058 16.8961689 5.24637766 16.7511059 5.10594803 16.6032885 4.96460055 16.4472081 4.82417092 16.293882 4.69108401 16.1396378 4.56166847 15.9844754 4.44051349 15.8238044 4.32027635 15.6612971 4.20554626 15.4997079 4.09999458 15.3316918 3.99168937 15.1719389 3.89072689 14.9965779 3.79802497 14.8285619 3.70991226 14.6550371 3.62271739 14.4805943 3.54286525 14.3061514 3.4630131 14.1243636 3.38591448 13.9517569 3.32074779 13.761706 3.25833462 13.5817544 3.20142849 13.3907854 3.14727589 13.204407 3.10046601 13.0180285 3.05365614 12.8224689 3.01327114 12.6269093 2.97931104 12.4322678 2.94626877 12.2311994 2.92424059 12.0319673 2.89945889 11.8281446 2.88477344 11.6289124 2.87192367 11.4186629 2.86549878 11.2102496 2.86549878 10.7934229 2.87192367 10.587764 2.88477344 10.3793506 2.89945889 10.176446 2.92424059 9.97537768 2.94626877 9.7733912 2.97931104 9.58058593 3.01327114 9.37951757 3.05365614 9.1913029 3.10046601 8.99482514 3.14727589 8.80752859 3.20142849 8.61380519 3.25833462 8.43201736 3.32074779 8.24380269 3.38591448 8.06201486 3.4630131 7.88114515 3.54286525 7.70027544 3.62271739 7.52491445 3.70991226 7.3513897 3.79802497 7.17786495 3.89072689 7.00158584 3.99168937 6.83540606 4.09999458 6.66555379 4.20554626 6.50396461 4.32027635 6.33778483 4.44051349 6.17619564 4.56166847 6.01368834 4.69108401 5.86036224 4.82417092 5.7051999 4.96460055 5.55279192 5.10594803 5.3985477 5.24637766 5.24889408 5.40241058 5.10199483 5.55660783 4.96060429 5.70896939 4.82655872 5.86500232 4.69251315 6.02654229 4.56489442 6.18624657 4.44462065 6.3468687 4.32342876 6.50932651 4.20958184 6.67637353 4.10124364 6.8425027 3.99474167 7.01322108 3.89466656 7.18669298 3.80010016 7.36016488 3.70553376 7.5363903 3.61831233 7.7098622 3.53751774 8.07240929 3.38970036 8.25414176 3.32267757 8.44229911 3.25565479 8.62403157 3.20148569 8.81861381 3.14731658 9.00493548 3.0940656 9.20227124 3.05458643 9.39409995 3.01418913 9.58960003 2.97930056 9.78234659 2.94533011 9.98427155 2.91962274 10.1926214 2.89850597 10.3936285 2.88565228 10.6019784 2.87188048 10.8112461 2.86637176 11.0195959 2.86086303 11.2270279 2.86637176 11.4353778 2.87188048 11.6446454 2.88565228 11.8456526 2.89850597 12.0466597 2.91962274 12.246749 2.94533011 12.4404134 2.97930056 12.6368313 3.01418913 12.8295778 3.05458643 13.0250779 3.0940656 13.2123174 3.14731658 13.4032283 3.20148569 13.5886321 3.25565479 13.7703646 3.32267757 13.9585219 3.38970036 14.1338295 3.46314999 14.3146441 3.53751774 14.4890339 3.61831233 14.6634236 3.70553376 14.8368955 3.80010016 15.0076139 3.89466656 15.180168 3.99474167 15.3398723 4.10124364 15.5115085 4.20958184 15.6693771 4.32342876 15.8299992 4.44462065 15.9841965 4.56489442 16.1457364 4.69251315 16.3008515 4.82655872 16.4495417 4.96060429 16.6028211 5.10199483 16.7524291 5.24889408 16.8919409 5.3985477 17.0332884 5.54452884 17.173718 5.69877306 17.3077228 5.8539354 17.4353027 6.00817962 17.554622 6.16885068 17.6776126 6.33043986 17.7923427 6.49202905 17.8997301 6.65912695 17.9997747 6.8280611 18.0979837 6.99607712 18.1980283 7.16960187 18.286141 7.33853602 18.3724181 7.51848761 18.4541059 7.69476671 18.5348759 7.8747183 18.6101388 8.05558801 18.6753055 8.23737585 18.735883 8.4246724 18.7955426 8.61380519 18.8496952 8.80110174 18.8992586 8.98931642 18.9460685 9.18395793 18.9837 9.37951757 19.0176601 9.57232284 19.0451953 9.7733912 19.0727305 9.97537768 19.0910873 10.176446 19.1140334 10.3793506 19.127801 10.587764 19.1314723 10.7934229 19.1314723 11.0027544 19.0910873 11.8878224 19.2663949 11.9970787 19.4417025 12.0980719 19.6160923 12.2119189 19.7840571 12.3257658 20.1062192 12.5672314 20.2677592 12.6875052 20.5770715 12.9583507 20.7312687 13.0905601 20.8726162 13.2319506 21.0167172 13.372423 21.1599004 13.5275853 21.2920694 13.6735665 21.4279099 13.8360738 21.5628325 13.9967448 21.6637949 13.6276605 21.7509898 13.2585761 21.8244171 12.8830649 21.8831589 12.5139805 21.9125298 12.3257658 21.9308866 12.1302062 21.9510791 11.9419915 21.9712716 11.7556131 21.9776965 11.5600534 21.9914641 11.3654119 21.9914641 11.1716885 21.9988068 10.977047 21.9914641 10.6942659 21.9841214 10.4197479 21.9648467 10.1443118 21.9437364 9.8679576 21.917119 9.59435773 21.8831589 9.32626659 21.8436917 9.05542108 21.790457 8.7946749 21.73814 8.5330106 21.6757269 8.2713463 21.6151494 8.01519072 21.5417221 7.76087138 21.4609521 7.51206076 21.3728394 7.26508639 21.2819732 7.01535765 21.1865178 6.77481012 21.0772947 6.53150822 20.971743 6.29096069 20.8496702 6.05592188 20.7312687 5.82088306 20.6036889 5.5922711 20.4696841 5.36457725 20.3209939 5.13596528 20.1732216 4.91469827 20.0199422 4.69251315 19.8584022 4.47767298 19.6895195 4.26283282 19.5215547 4.05533762 19.3398222 3.83866121 19.1525827 3.63759286 18.9644253 3.43009765 18.7625004 3.2290293 18.5624111 3.03438778 18.3549791 2.83882814 18.1466292 2.65887655 17.9382794 2.4761706 17.7253403 2.30264586 17.5096478 2.13462983 17.2875303 1.97304065 17.0663307 1.81971455 16.8442132 1.67189717 16.6165887 1.52958852 16.3880464 1.39554294 16.1530791 1.26333361 15.9171941 1.1412236 15.6822268 1.0282948 15.4417526 0.912611635 15.1994426 0.813454637 14.9534613 0.711543277 14.7038086 0.61605876 14.4559916 0.536182289 14.2072568 0.456305818 13.9520971 0.381019948 13.6960195 0.314915283 13.4344349 0.253401219 13.1728503 0.201068358 12.9112657 0.1533261 12.6414205 0.112928804 12.3743288 0.0789583507 12.1054015 0.0459060179 11.8309671 0.0266254904 11.5565327 0.012853685 11.2967838 0"></polygon>
        </g>
    </g>
</svg>