<?xml version="1.0" encoding="UTF-8"?>
<svg width="22px" height="22px" viewBox="0 0 22 22" version="1.1" xmlns="http://www.w3.org/2000/svg" xmlns:xlink="http://www.w3.org/1999/xlink">
    <!-- Generator: Sketch 52.4 (67378) - http://www.bohemiancoding.com/sketch -->
    <title>男孩icon-white</title>
    <desc>Created with Sketch.</desc>
    <defs>
        <polygon id="path-1" points="0 4.41962037e-05 0 22 22 22 22 4.41962037e-05 5.59322034e-05 4.41962037e-05 21.9999726 0 21.9999726 22 5.59322034e-05 22 5.59322034e-05 4.41962037e-05"></polygon>
        <path d="M20.5228151,11.2835115 C20.5746458,11.7542848 20.5746458,13.1141707 20.5228151,13.5789084 C20.4709844,13.9968705 20.4709844,13.9915894 20.9191894,13.8576756 C21.2637331,13.753185 21.6947856,13.3869023 21.8730236,13.0500429 C22.0393293,12.7184646 22.0452954,12.1492364 21.8730236,11.8176581 C21.6429549,11.3823437 21.1951227,11.0511427 20.6950869,10.9579688 L20.4769505,10.9172288 L20.5228151,11.2835115 Z M1.20487745,10.9813566 C0.73392651,11.1031993 0.337552127,11.4113898 0.125008948,11.8184126 C-0.0416696494,12.1435781 -0.0416696494,12.7188419 0.125008948,13.0504201 C0.360297975,13.4978056 0.808503064,13.8290067 1.30257273,13.916145 L1.52070915,13.956885 L1.47484457,13.5906023 C1.42338675,13.1141707 1.42338675,11.7542848 1.47484457,11.2835115 C1.52108204,10.8942183 1.52667528,10.8942183 1.20487745,10.9813566 Z M14.6752675,15.5604564 C14.6752675,15.6475947 14.606657,15.8629886 14.5261144,16.0251941 C14.1815707,16.7226779 13.181872,17.1874156 11.7056291,17.3269878 C10.1947081,17.4722183 8.66700742,17.1293234 7.85710604,16.4669213 C7.60988477,16.2635985 7.32276504,15.7637792 7.32276504,15.5314103 L7.32276504,15.3978737 L14.6752675,15.3978737 L14.6752675,15.5604564 Z M14.8535054,9.5282968 C15.433711,9.83045175 15.5258131,10.60338 15.0257773,11.0564238 C14.6465555,11.399696 14.1293671,11.3940376 13.7736369,11.0394488 C12.9976679,10.2725561 13.8825187,9.03451299 14.8535054,9.5282968 Z M7.98873366,9.50528625 C8.3623622,9.68522122 8.5808715,10.1326067 8.50032882,10.5513233 C8.44849812,10.8478199 8.06331022,11.2427715 7.77059724,11.2948282 C7.28771406,11.3823437 6.74815269,11.016061 6.65605065,10.5452878 C6.5184569,9.78405343 7.29964631,9.17408519 7.98873366,9.50528625 Z M11.7171885,0.300311029 C11.2745766,1.28222032 11.3264073,2.46782958 11.8607483,3.54291274 L12.0214608,3.86241991 L11.378238,3.84506769 L10.7406085,3.82733825 L10.4359633,3.49613719 C9.75246916,2.7643262 9.01751722,1.7005597 8.78744855,1.1252959 L8.66104129,0.81144706 L8.62673608,1.14302534 C8.54060016,1.95065799 8.81616053,2.82807674 9.38480675,3.5949694 L9.61487542,3.91447657 L8.99999173,4.04273211 C8.66104129,4.11817654 8.27622628,4.21097319 8.13863254,4.25171319 C7.92571647,4.31546373 7.86829253,4.3098054 7.70758005,4.22266708 C7.3343244,4.01934433 6.47818557,3.36260055 6.12208252,3.01404727 L5.76038623,2.64776455 L5.80028469,2.85146452 C5.92669195,3.43276387 6.22537105,3.99633378 6.67320325,4.47842371 C6.817136,4.63534813 6.91483129,4.76322644 6.88015319,4.76322644 C6.7824579,4.76322644 5.79469145,5.36187801 5.36923221,5.68138518 C4.55933084,6.28569509 3.6577003,7.2679816 3.15803739,8.06995592 C2.68708645,8.8372258 2.26759334,9.90627341 2.06101628,10.8651721 C1.91149029,11.5626559 1.90589705,13.3001412 2.05542304,14.0032833 C2.41711933,15.7117225 3.14088478,17.0425623 4.38743188,18.3092743 C5.71452165,19.6457724 7.19076454,20.448124 9.12080575,20.8721217 C9.62643478,20.9826478 9.8792493,21 10.9990163,21 C12.1191561,21 12.3719706,20.9826478 12.8772268,20.8721217 C14.7043523,20.4707573 16.232053,19.6691602 17.4730069,18.4548821 C18.2254843,17.7223166 18.7079946,17.0772667 19.1502336,16.2172002 C19.5581673,15.4095675 19.7364053,14.9214421 19.9142704,14.1134322 C20.0291183,13.6019189 20.0462709,13.3469168 20.0462709,12.4344163 C20.0462709,11.5219159 20.0291183,11.2661593 19.9142704,10.7550233 C19.3284715,8.11635425 17.5647361,5.93148348 15.048896,4.728522 C14.5264872,4.47880093 13.63045,4.16495209 13.2109568,4.07781377 C12.946583,4.02537989 12.889159,3.93824157 12.5673612,3.03177671 C12.1079696,1.74733525 11.7977311,0.428189342 11.8775281,0.114340503 C11.9297316,-0.0950177978 11.8547822,-0.00750225597 11.7171885,0.300311029 Z" id="path-3"></path>
    </defs>
    <g id="Page-1" stroke="none" stroke-width="1" fill="none" fill-rule="evenodd">
        <g id="男孩icon-white">
            <mask id="mask-2" fill="white">
                <use xlink:href="#path-1"></use>
            </mask>
            <g id="Clip-2"></g>
            <mask id="mask-4" fill="white">
                <use xlink:href="#path-3"></use>
            </mask>
            <use id="Fill-1" fill="#FFFFFF" xlink:href="#path-3"></use>
        </g>
    </g>
</svg>