<?xml version="1.0" encoding="UTF-8"?>
<svg width="28px" height="28px" viewBox="0 0 28 28" version="1.1" xmlns="http://www.w3.org/2000/svg" xmlns:xlink="http://www.w3.org/1999/xlink">
    <!-- Generator: Sketch 52.4 (67378) - http://www.bohemiancoding.com/sketch -->
    <title>税号icon-click</title>
    <desc>Created with Sketch.</desc>
    <g id="Page-1" stroke="none" stroke-width="1" fill="none" fill-rule="evenodd">
        <g id="0.0控件库" transform="translate(-813.000000, -2364.000000)">
            <g id="税号icon-click" transform="translate(812.000000, 2363.000000)">
                <rect id="矩形" stroke="#979797" fill="#D8D8D8" opacity="0" x="0.5" y="0.5" width="29" height="29"></rect>
                <path d="M23.566042,1 L28.0004903,1 L26.4319434,4.98666382 L22.0127716,4.98666382 L23.566042,1 Z M19.3997257,1 L21.0063324,4.98666382 L16.5070384,4.98666382 L14.9994659,1 L19.3997257,1 Z M3.99946594,27.9980469 L1,27.9980469 L1.99960327,12.9980469 L4.99946594,12.9980469 L3.99946594,27.9980469 Z M11.0503082,27.9980469 L9.99816895,12.9980469 L12.9974518,12.9980469 L13.9998016,27.9980469 L11.0503082,27.9980469 Z M12.8984343,10.9993591 L8.99816895,10.9993591 L8.99816895,27.1821118 L5.99946594,28.9980469 L5.99946594,10.9993591 L1,10.9993591 L1,8.00863647 L5.99558096,8.00863647 L5.99558096,5.0532927 L1,5.54451307 L1,2.22976295 L14.2040533,1 L13.3094528,4.24640069 L8.99816895,4.70318296 L8.99816895,8.00863647 L14.3601771,8.00863647 L12.8984343,10.9993591 Z M17.6354185,28.9980469 L14.4419675,28.9980469 L17.0001984,17.9994965 L19.9994659,17.9994965 L17.6354185,28.9980469 Z M27.7242026,28.9980469 L22.0166779,28.9980469 L22.0166779,16.9980469 L14.9994659,16.9980469 L14.9994659,5.99371338 L27.9994659,5.99371338 L27.9994659,15.1666816 L24.9994659,16.8468616 L24.9994659,25.9980469 L28.9994659,25.9980469 L27.7242026,28.9980469 Z M17.9994659,14.002533 L25.0065335,14.002533 L25.0065335,8.98071289 L17.9994659,8.98071289 L17.9994659,14.002533 Z" id="形状" fill="#FFFFFF"></path>
            </g>
        </g>
    </g>
</svg>