<?xml version="1.0" encoding="UTF-8"?>
<svg width="22px" height="22px" viewBox="0 0 22 22" version="1.1" xmlns="http://www.w3.org/2000/svg" xmlns:xlink="http://www.w3.org/1999/xlink">
    <!-- Generator: Sketch 52.4 (67378) - http://www.bohemiancoding.com/sketch -->
    <title>兴业银行icon-white</title>
    <desc>Created with Sketch.</desc>
    <defs>
        <polygon id="path-1" points="9.44509939e-16 22 22 22 22 0 0 0"></polygon>
    </defs>
    <g id="Page-1" stroke="none" stroke-width="1" fill="none" fill-rule="evenodd">
        <g id="兴业银行icon-white">
            <mask id="mask-2" fill="white">
                <use xlink:href="#path-1"></use>
            </mask>
            <g id="Clip-2"></g>
            <path d="M21.6393725,10.8053333 C21.6393725,8.03117647 17.8786667,5.78156863 13.2422745,5.78156863 C9.53160784,5.78156863 6.38086275,7.22494118 5.27309804,9.2234902 L5.27309804,9.22133333 C5.17086275,9.40682353 5.11392157,9.60913725 5.11392157,9.8205098 C5.11392157,10.3170196 5.42796078,10.760902 5.91972549,11.0477647 L10.1756471,13.5065882 C10.3960784,13.6282353 10.6579216,13.6981176 10.9413333,13.6981176 C11.2264706,13.6981176 11.4887451,13.6282353 11.7083137,13.507451 L15.7463922,11.1750196 C16.019451,11.0175686 16.1911373,10.7716863 16.1911373,10.496902 C16.1911373,10.229451 16.0285098,9.99305882 15.7701176,9.83345098 L14.2698039,8.96509804 L10.9413333,10.8847059 L8.42470588,9.43184314 C9.39658824,8.55529412 11.2092157,7.96776471 13.284549,7.96776471 C16.386549,7.96776471 18.9027451,9.28388235 18.9027451,10.9071373 C18.8363137,13.4246275 15.1450588,15.3727059 10.6613725,15.2562353 C6.17337255,15.138902 2.59254902,13.0001569 2.65768627,10.4852549 L2.65639216,10.4852549 C2.68831373,7.16541176 7.04129412,4.51462745 12.3743529,4.56639216 C12.8505882,4.57286275 13.316902,4.59701961 13.7728627,4.64360784 C12.6771765,4.24027451 11.3105882,4 9.82105882,4 C8.63435294,4 7.52184314,4.15356863 6.56419608,4.42145098 C2.70427451,5.48003922 0,7.94145098 0,10.8053333 C0,14.6402353 4.84388235,17.7508627 10.820549,17.7508627 C16.7954902,17.7508627 21.641098,14.6402353 21.641098,10.8053333 L21.6393725,10.8053333 Z" id="Fill-1" fill="#FFFFFF" mask="url(#mask-2)"></path>
        </g>
    </g>
</svg>