<?xml version="1.0" encoding="UTF-8"?>
<svg width="22px" height="22px" viewBox="0 0 22 22" version="1.1" xmlns="http://www.w3.org/2000/svg" xmlns:xlink="http://www.w3.org/1999/xlink">
    <!-- Generator: Sketch 52.4 (67378) - http://www.bohemiancoding.com/sketch -->
    <title>飞机icon-white</title>
    <desc>Created with Sketch.</desc>
    <defs>
        <polygon id="path-1" points="5.9908301e-17 0 22 0 22 22 5.9908301e-17 22"></polygon>
    </defs>
    <g id="Page-1" stroke="none" stroke-width="1" fill="none" fill-rule="evenodd">
        <g id="飞机icon-white">
            <mask id="mask-2" fill="white">
                <use xlink:href="#path-1"></use>
            </mask>
            <g id="Clip-2"></g>
            <path d="M3.53444737,13.1103947 L7.87376316,13.3752895 L3.73673684,21.5313421 L6.25173684,21.5313421 L13.9448947,13.5220789 L18.7861842,13.5220789 C20.0652632,13.5220789 21.9961842,12.5119211 21.9961842,11.2656053 C21.9961842,10.0204474 20.0652632,9.00923684 18.7861842,9.00923684 L13.9469474,9.00923684 L6.25071053,1 L3.73571053,1 L7.87273684,9.02157895 L3.17618421,9.34907895 C3.06331579,9.34907895 2.9555,9.36244737 2.84663158,9.37365789 L1.49157895,7.916 L0,7.916 L1.14155263,11.2841053 L1.16005263,11.3385 L0,14.5619737 L1.49157895,14.5619737 L2.88773684,13.0591053 L3.53444737,13.1103947 Z" id="Fill-1" fill="#FFFFFF" mask="url(#mask-2)"></path>
        </g>
    </g>
</svg>