<?xml version="1.0" encoding="UTF-8"?>
<svg width="22px" height="22px" viewBox="0 0 22 22" version="1.1" xmlns="http://www.w3.org/2000/svg" xmlns:xlink="http://www.w3.org/1999/xlink">
    <!-- Generator: Sketch 52.4 (67378) - http://www.bohemiancoding.com/sketch -->
    <title>公共汽车icon-white</title>
    <desc>Created with Sketch.</desc>
    <g id="Page-1" stroke="none" stroke-width="1" fill="none" fill-rule="evenodd">
        <g id="公共汽车icon-white">
            <rect id="矩形" stroke="#979797" fill="#D8D8D8" opacity="0" x="0.5" y="0.5" width="21" height="21"></rect>
            <path d="M19.5656548,5.84553626 L19.1818182,5.84553626 L19.1818182,3.62473366 C19.1818182,2.93199482 18.7193863,2.38358412 18.105369,2.07657544 C18.105369,2.07657544 16.1544637,1 10.9999495,1 C5.84553626,1 3.88848812,2.15330236 3.88848812,2.15330236 C3.27247621,2.46031105 2.81201367,3.00872175 2.81201367,3.62473366 L2.81201367,5.84553626 L2.42817707,5.84553626 C1.73543823,5.84553626 1,6.384796 1,7.07556554 L1,8.30556958 C1,8.99840941 1.73740753,9.53559887 2.42817707,9.53559887 L2.81201367,9.53559887 L2.81201367,17.7621023 C2.81201367,18.301362 3.26473991,18.4590992 3.72727273,18.6893809 L3.72727273,19.3841648 C3.72727273,20.2304585 4.07614623,21 4.99914159,21 C5.84553626,21 6.45487837,20.3071854 6.45487837,19.3841648 L6.45487837,18.7681781 L15.5454545,18.7681781 L15.5454545,19.3841648 C15.5454545,20.2304585 16.0777368,21 17.0008584,21 C17.8471268,21 18.2732544,20.3071854 18.2732544,19.3841648 L18.2732544,18.6146233 C18.7356862,18.4611695 19.1818182,18.2246351 19.1818182,17.6873446 C19.1818182,14.8440004 19.1818182,12.7491629 19.1818182,11.402832 C19.1818182,10.971301 19.1818182,10.3240044 19.1818182,9.46094223 L19.5656548,9.46094223 C20.2583936,9.46094223 21,8.92168249 21,8.23081196 L21,7.07753484 C20.9252424,6.38272571 20.1816667,5.84553626 19.5656548,5.84553626 Z M7.38257423,2.69059281 L14.5386286,2.69059281 C14.7689103,2.69059281 14.9224652,2.84404666 14.9224652,3.07432842 L14.9224652,3.84389517 C14.9224652,4.07417693 14.7689103,4.22763078 14.5386286,4.22763078 L7.38454353,4.22763078 C7.15436275,4.22763078 7.00080792,4.07417693 7.00080792,3.84389517 L7.00080792,3.07432842 C6.99883862,2.84404666 7.15229247,2.69059281 7.38257423,2.69059281 Z M5.15269642,17.2310392 C4.61343668,17.2310392 4.15287316,16.7685064 4.15287316,16.2312917 C4.15287316,15.6940012 4.61540598,15.2314684 5.15269642,15.2314684 C5.69198142,15.2314684 6.15244395,15.6940012 6.15244395,16.2312917 C6.15244395,16.7685064 5.76870834,17.2310392 5.15269642,17.2310392 Z M16.7705767,17.2310392 C16.2312917,17.2310392 15.7707281,16.7685064 15.7707281,16.2312917 C15.7707281,15.6940012 16.233261,15.2314684 16.7705767,15.2314684 C17.3098364,15.2314684 17.7702989,15.6940012 17.7702989,16.2312917 C17.7702989,16.7685064 17.3098364,17.2310392 16.7705767,17.2310392 Z M17.8914881,12.8181818 L4.11100834,12.8181818 C3.88072657,12.8181818 3.72727273,12.664627 3.72727273,12.4343452 L3.72727273,5.9166502 C3.72727273,5.68636844 3.88072657,5.5329146 4.11100834,5.5329146 L17.8895188,5.5329146 C18.1196996,5.5329146 18.2732544,5.68636844 18.2732544,5.9166502 L18.2732544,12.4343452 C18.2752237,12.664627 18.1217698,12.8181818 17.8914881,12.8181818 Z" id="公共汽车icon" fill="#FFFFFF"></path>
        </g>
    </g>
</svg>