<?xml version="1.0" encoding="UTF-8"?>
<svg width="30px" height="29px" viewBox="0 0 30 29" version="1.1" xmlns="http://www.w3.org/2000/svg" xmlns:xlink="http://www.w3.org/1999/xlink">
    <!-- Generator: Sketch 52.4 (67378) - http://www.bohemiancoding.com/sketch -->
    <title>手枪icon-click</title>
    <desc>Created with Sketch.</desc>
    <defs>
        <polygon id="path-1" points="0 0 30 0 30 30 0 30"></polygon>
    </defs>
    <g id="Page-1" stroke="none" stroke-width="1" fill="none" fill-rule="evenodd">
        <g id="0.0控件库" transform="translate(-862.000000, -2060.000000)">
            <g id="手枪icon-click" transform="translate(862.000000, 2059.000000)">
                <mask id="mask-2" fill="white">
                    <use xlink:href="#path-1"></use>
                </mask>
                <g id="Clip-2"></g>
                <path d="M0.299752315,4.08884826 C0.60671758,3.29124314 0.898765112,2.51250457 1.20573038,1.71511883 C1.41183641,1.78065814 1.59885652,1.86122486 1.82360972,1.92659963 C1.94339034,1.60093236 2.0633355,1.29199269 2.18311612,1 C2.25035561,1.01694698 2.26730259,1.01694698 2.30284189,1.03191956 L13.3478328,4.83572212 C13.5350722,4.90126143 13.5873392,5.0154479 13.6042861,5.17850091 C13.6211783,5.37297989 13.7073392,5.4704936 13.9132258,5.53411335 C15.1111966,5.94221207 16.3094415,6.36341865 17.5074671,6.75462523 C17.6818181,6.806234 17.8682349,6.80025594 18.0391856,6.73767824 C18.2883446,6.62716636 18.5715622,6.62091408 18.8254379,6.72100548 C22.2343593,7.90784278 25.6413611,9.09473492 29.0672295,10.2646801 C29.6326225,10.4613528 29.905968,10.7850457 29.9395878,11.3373309 C29.9967907,12.4937843 29.7986371,13.6487569 29.3592222,14.7201463 C29.1347432,15.2872395 28.6910503,15.6130713 28.0564434,15.758958 C27.5939388,15.8731993 27.1485457,16.0212249 26.7215805,16.2140037 C26.0869735,16.5079707 25.6413611,16.9947166 25.5907944,17.6779159 C25.5571746,18.1815539 25.5402825,18.7019744 25.6246883,19.1887203 C25.9334086,21.1729433 26.2928602,23.155521 26.6017998,25.1378245 C26.7384726,25.9840768 26.8246335,26.8603291 26.8413062,27.7232541 C26.8582532,28.5039122 26.3453465,28.9756856 25.5402825,29.0560329 C25.233043,29.0885558 24.9230613,29.0885558 24.6156024,29.0560329 C22.7808858,28.7959598 20.9669552,28.4551005 19.2204836,27.8860878 C18.7206847,27.7110238 18.2390942,27.4878062 17.7827322,27.2195612 C17.3896061,27.0081353 17.217394,26.6505484 17.200447,26.1957221 C17.1668273,24.5857587 17.1312331,22.9607678 17.0281801,21.3508044 C16.9635183,20.3445155 16.8555293,19.3414625 16.7042679,18.3443876 C16.6183812,17.7751554 16.4628419,17.6779159 15.8638291,17.595649 C15.556809,17.5581353 15.2480887,17.5369104 14.9389845,17.5318099 C14.0687651,17.527532 13.2055658,17.3736929 12.387394,17.0769835 C11.4458218,16.7193967 10.4873574,16.410457 9.52883824,16.0848446 C8.45059327,15.7103656 7.88520021,14.8493601 8.10611429,13.7766545 C8.22781447,13.2074223 8.45059327,12.6533821 8.60421301,12.0861243 C8.92982544,10.9161792 8.81009966,10.3788665 7.52574866,9.9557404 C5.17834464,9.16027422 2.8326408,8.34577697 0.50563897,7.53528336 C0.00775962771,7.35555759 -0.0784012498,7.20945155 0.0582715107,6.72100548 C0.178052132,6.31477148 0.316644454,5.89340037 0.451397653,5.48546618 C0.59004482,5.1109872 0.743445185,4.73842779 0.882037507,4.34914077 C0.676150853,4.23473492 0.486991803,4.16941499 0.297832754,4.0869287 L0.299752315,4.08884826 Z M16.0585823,13.4582815 C15.573756,13.7877879 15.126224,14.1322669 14.6244507,14.4168007 C14.1752185,14.6751737 13.6379059,14.7612797 13.0838657,14.7031993 C12.9939205,14.6901463 12.8686006,14.6901463 12.7974671,14.6470932 C12.6702276,14.5740402 12.5090942,14.4748263 12.5090942,14.3737477 C12.5090942,14.2895612 12.6532807,14.1453748 12.77882,14.1022669 C13.6754196,13.7728154 14.0329516,13.1157221 14.3735914,12.4136563 C13.2447797,12.0280439 12.1871015,11.571298 10.9852368,11.3692505 C10.4311966,11.2831444 9.98196438,11.4254113 9.76856402,11.8410238 C9.47377425,12.3562888 9.22763166,12.89766 9.03287846,13.4582815 C8.85315268,14.0461609 9.19379253,14.4598537 9.9650174,14.6901463 C11.1294232,15.0327057 12.3126408,15.3622121 13.512586,15.663638 C14.1584909,15.818958 14.8397706,15.8339854 15.4856755,15.6056124 C16.5247615,15.233053 16.7923483,14.0892139 16.0585823,13.4582815 Z" id="Fill-1" fill="#FFFFFF" mask="url(#mask-2)"></path>
            </g>
        </g>
    </g>
</svg>