<?xml version="1.0" encoding="UTF-8"?>
<svg width="22px" height="22px" viewBox="0 0 22 22" version="1.1" xmlns="http://www.w3.org/2000/svg" xmlns:xlink="http://www.w3.org/1999/xlink">
    <!-- Generator: Sketch 52.4 (67378) - http://www.bohemiancoding.com/sketch -->
    <title>火车icon-white</title>
    <desc>Created with Sketch.</desc>
    <defs>
        <polygon id="path-1" points="22 21.9998429 22 0 0 0 0 21.9998429 21.9994345 21.9998429 21.9994345 0.000157081894 6.28338046e-05 0.000157081894 6.28338046e-05 22 21.9994345 22"></polygon>
        <path d="M15.9206839,15.3590696 C15.9206839,15.649138 16.0225717,15.8986592 16.2268672,16.1086729 C16.4306428,16.3186866 16.6822434,16.4226538 16.9790696,16.4226538 C17.2769356,16.4226538 17.5285361,16.3186866 17.7317919,16.1086729 C17.9355676,15.8986592 18.0369356,15.649138 18.0369356,15.3585498 C18.0369356,15.0523665 17.9355676,14.7940081 17.7312721,14.5845142 C17.5274965,14.3745006 17.2764157,14.2705334 16.9785498,14.2705334 C16.6817236,14.2705334 16.430123,14.3750204 16.2268672,14.5845142 C16.0225717,14.7940081 15.9206839,15.0518467 15.9206839,15.3585498 L15.9206839,15.3590696 Z M15.8499862,19.1575101 L15.191874,17.6328316 L7.00913813,17.6328316 L6.32711351,19.1569903 L15.8510259,19.1569903 L15.8499862,19.1575101 Z M5.22194252,16.4231736 C5.50369354,16.4231736 5.74697671,16.3186866 5.95075236,16.1091928 C6.15400818,15.8986592 6.25641584,15.649138 6.25641584,15.35803 C6.25641584,15.0523665 6.15400818,14.7940081 5.95075236,14.5845142 C5.74697671,14.3745006 5.50369354,14.2705334 5.22194252,14.2705334 C4.92407658,14.2705334 4.67247604,14.3745006 4.46922023,14.5845142 C4.26544458,14.7940081 4.16303692,15.0518467 4.16303692,15.3585498 C4.16303692,15.649138 4.26544458,15.8986592 4.46922023,16.1086729 C4.67299587,16.3186866 4.92407658,16.4226538 5.22194252,16.4226538 L5.22194252,16.4231736 Z M4.46922023,9.14495205 L17.7078795,9.14495205 L17.7078795,4.59690831 L4.46922023,4.59690831 L4.46922023,9.14599172 L4.46922023,9.14495205 Z M8.88938435,1.57198357 C8.68612854,1.57198357 8.51354304,1.64476059 8.37266753,1.79031462 C8.23127218,1.93534882 8.16109434,2.12041038 8.16109434,2.34653897 C8.16109434,2.55603281 8.23127218,2.73329683 8.37266753,2.87885087 C8.51354304,3.02388507 8.68612854,3.09666208 8.88938435,3.09666208 L13.3578932,3.09666208 C13.5616689,3.09666208 13.7337345,3.02388507 13.8751299,2.87833103 C14.0160054,2.73329683 14.0872229,2.55603281 14.0872229,2.34653897 C14.0872229,2.12041038 14.0160054,1.93534882 13.8751299,1.79031462 C13.7337345,1.64476059 13.5616689,1.57198357 13.3578932,1.57198357 L8.88938435,1.57198357 Z M20.2004923,21.8409027 L17.1667304,21.8409027 L16.5320108,20.6567167 L5.6684815,20.6567167 L5.03428178,21.8409027 L2,21.8409027 L5.10445962,17.5117098 C4.49261284,17.3349657 3.99045142,16.979398 3.59901504,16.4476059 C3.20757865,15.915294 3.0110807,15.3024075 3.0110807,14.6089465 L3.0110807,4.59586864 C3.0110807,4.17740079 3.11712721,3.77764703 3.3287004,3.39816687 C3.54027359,3.01920654 3.80123118,2.66935702 4.10533514,2.35849519 C4.41047878,2.04451435 4.72341995,1.77419971 5.0446785,1.54807112 C5.36697672,1.32298221 5.64560873,1.15299589 5.88057452,1.04019151 C6.11606016,0.927387134 6.37389873,0.806265384 6.65616959,0.67682626 C6.93896029,0.548426808 7.27529408,0.435622432 7.6672503,0.33841313 C8.05868668,0.241203828 8.51354304,0.16114911 9.03129953,0.0966894657 C9.54905603,0.0322298219 10.1520656,0 10.8418878,0 C11.6252804,0 12.3151025,0.0363885086 12.9108344,0.10864569 C13.5065663,0.181422707 14.0284814,0.277592337 14.4750204,0.398714087 C14.9215594,0.519835837 15.3140355,0.656552662 15.6503692,0.81042407 C15.9877427,0.963255806 16.2975649,1.12076607 16.5803556,1.28243501 C16.8615867,1.44358412 17.1594527,1.62812584 17.4723939,1.83865936 C17.7863747,2.0481532 18.0686456,2.28571818 18.3192064,2.55187412 C18.5702871,2.81803007 18.7782215,3.12109437 18.9424896,3.46002733 C19.1067577,3.79740079 19.1894116,4.17740079 19.1894116,4.59586864 L19.1894116,14.6099862 C19.1894116,15.3029274 18.988755,15.9158138 18.5895211,16.4481257 C18.1897673,16.9804376 17.683967,17.3354855 17.0731599,17.5122297 L20.2004923,21.8414225 L20.2004923,21.8409027 Z" id="path-3"></path>
    </defs>
    <g id="Page-1" stroke="none" stroke-width="1" fill="none" fill-rule="evenodd">
        <g id="火车icon-white">
            <mask id="mask-2" fill="white">
                <use xlink:href="#path-1"></use>
            </mask>
            <g id="Clip-2"></g>
            <mask id="mask-4" fill="white">
                <use xlink:href="#path-3"></use>
            </mask>
            <use id="Fill-1" fill="#FFFFFF" xlink:href="#path-3"></use>
        </g>
    </g>
</svg>