<?xml version="1.0" encoding="UTF-8"?>
<svg width="28px" height="28px" viewBox="0 0 28 28" version="1.1" xmlns="http://www.w3.org/2000/svg" xmlns:xlink="http://www.w3.org/1999/xlink">
    <!-- Generator: Sketch 52.4 (67378) - http://www.bohemiancoding.com/sketch -->
    <title>发票icon-click</title>
    <desc>Created with Sketch.</desc>
    <g id="Page-1" stroke="none" stroke-width="1" fill="none" fill-rule="evenodd">
        <g id="0.0控件库" transform="translate(-862.000000, -2364.000000)">
            <g id="发票icon-click" transform="translate(861.000000, 2363.000000)">
                <rect id="矩形" stroke="#979797" fill="#D8D8D8" opacity="0" x="0.5" y="0.5" width="29" height="29"></rect>
                <path d="M1.23579922,26.1250095 C4.43718189,24.8639062 7.16136062,23.3982637 9.3750567,21.727733 L11.4866144,23.6366716 C9.23880241,25.5456101 6.44625236,27.2158615 3.17698674,28.6477051 L1.23579922,26.1250095 Z M17,25.6917444 C17,27.8732388 15.842013,28.9981689 13.5944801,28.9981689 L10.9158706,28.9981689 L10.3029705,26 C11.2562621,26.1023045 11.8202803,26.1704609 12.6719219,26.1704609 C13.5574003,26.1704609 14,25.727514 14,24.8753492 L14,21 L1,21 L1,18 L28.9721631,18 L28.9721631,21 L17,21 L17,25.6917444 Z M4.99766541,17 L4.99766541,14 L25,14 L25,17 L4.99766541,17 Z M26.7524671,28.6477051 C24.9475339,27.113557 22.3934463,25.4773838 19.1239713,23.704828 L21.2695751,21.6597861 C24.3346338,23.227733 26.8887911,24.829828 29,26.3977749 L26.7524671,28.6477051 Z M29,4 L20,4 L20,5 L27,5 L27,13 L2.99998067,13 L2.99998067,5 L10,5 L10,4 L1.00040652,4 L1.00040652,1 L29,1 L29,4 Z M13,5 L17,5 L17,4 L13,4 L13,5 Z M5.99569928,10.0024872 L10,10.0024872 L10,8.00153009 L5.99569928,8.00153009 L5.99569928,10.0024872 Z M20,10.0024872 L24,10.0024872 L24,8.00153009 L20,8.00153009 L20,10.0024872 Z M13,10.0024872 L17,10.0024872 L17,8.00153009 L13,8.00153009 L13,10.0024872 Z" id="形状" fill="#FFFFFF"></path>
            </g>
        </g>
    </g>
</svg>