<?xml version="1.0" encoding="UTF-8"?>
<svg width="22px" height="20px" viewBox="0 0 22 20" version="1.1" xmlns="http://www.w3.org/2000/svg" xmlns:xlink="http://www.w3.org/1999/xlink">
    <!-- Generator: Sketch 52.4 (67378) - http://www.bohemiancoding.com/sketch -->
    <title>IP-icon-click</title>
    <desc>Created with Sketch.</desc>
    <g id="Page-1" stroke="none" stroke-width="1" fill="none" fill-rule="evenodd">
        <g id="0.0控件库" transform="translate(-816.000000, -2216.000000)">
            <g id="IP-icon-click" transform="translate(812.000000, 2211.000000)">
                <rect id="矩形" stroke="#979797" fill="#D8D8D8" opacity="0" x="0.5" y="0.5" width="29" height="29"></rect>
                <path d="M8.03825929,5 L8.03825929,25 L4,25 L4,5 L8.03825929,5 Z M15,5 L20.2197643,5 C21.5920286,5 22.6471405,5.11117863 23.3851315,5.33353922 C24.1231225,5.55589981 24.6776047,5.87708252 25.0485947,6.29709697 C25.4195848,6.71711143 25.6708969,7.22565071 25.8025385,7.82273008 C25.9341802,8.41980945 26,9.34423916 26,10.5960469 L26,12.3378629 C26,13.6143774 25.8723494,14.5449837 25.6170444,15.1297097 C25.3617394,15.7144357 24.8930224,16.1632679 24.2108794,16.4762199 C23.5287364,16.7891718 22.6371769,17.010437 21.5361741,17.010437 L19,17.010437 L19,25 L15,25 L15,5 Z M19,8.0015564 L19,13.9949646 C19.1436091,14.0032002 20.8962823,13.9949646 21,13.9949646 C21.4627403,13.9949646 22,13.7141634 22,12.9729614 L22,9.02459717 C22,8.30249023 21.6972507,8.0015564 21.0051947,8.0015564 C20.4082858,8.0015564 19.3501403,8.0015564 19,8.0015564 Z" id="IP" fill="#FFFFFF"></path>
            </g>
        </g>
    </g>
</svg>