<?xml version="1.0" encoding="UTF-8"?>
<svg width="22px" height="22px" viewBox="0 0 22 22" version="1.1" xmlns="http://www.w3.org/2000/svg" xmlns:xlink="http://www.w3.org/1999/xlink">
    <!-- Generator: Sketch 52.4 (67378) - http://www.bohemiancoding.com/sketch -->
    <title>交通银行icon-white</title>
    <desc>Created with Sketch.</desc>
    <defs>
        <polygon id="path-1" points="8.32650797e-21 4.02115027e-15 8.32650797e-21 22 22 22 22 0"></polygon>
    </defs>
    <g id="Page-1" stroke="none" stroke-width="1" fill="none" fill-rule="evenodd">
        <g id="交通银行icon-white">
            <mask id="mask-2" fill="white">
                <use xlink:href="#path-1"></use>
            </mask>
            <g id="Clip-2"></g>
            <path d="M18.0112044,16.4998585 C16.7099053,16.5411704 15.5067314,16.5824823 14.2048618,16.6243601 C13.3822081,20.1030482 6.56422243,19.1630611 7.32298077,14.7483473 C7.70521242,12.1338135 11.2679536,10.992926 13.4769102,12.9674084 C13.962972,13.511254 14.1997274,14.0171833 14.357184,15.1246817 C15.4479704,15.0828039 16.920418,15.0397942 18.0112044,14.9996141 C18.0682539,9.37553698 11.6273655,6.51935691 6.79812538,9.25046945 C2.16855853,11.866135 2.70368283,19.8376334 7.55346075,21.8732347 L7.55346075,22 C4.90864597,21.9473698 2.00767894,19.9140322 1.375,17.4998328 L1.41265267,4.53072669 C3.51036275,3.11536977 5.83056588,1.41648875 7.93283992,0 C8.01499119,0.0424437299 8.09885396,0.0831897106 8.18328722,0.125633441 C8.03952248,2.07917685 8.13080168,5.30207074 8.24775315,7.65628296 C9.56217361,6.38919614 10.4498638,5.06381994 12.7210044,4.62466881 C14.1860355,4.34171061 15.5837482,4.51261736 16.4691565,4.81142122 C23.1040132,7.06716399 23.5181926,15.5717556 17.887407,18.4986752 C17.7607571,18.4986752 17.485208,18.7465466 17.2798298,18.7867267 C17.2798298,18.744283 17.4081912,18.5637556 17.5108803,18.3747395 C17.6768944,17.7494019 17.8451904,17.1246302 18.0112044,16.4998585" id="Fill-1" fill="#FFFFFF" mask="url(#mask-2)"></path>
        </g>
    </g>
</svg>