<?xml version="1.0" encoding="UTF-8"?>
<svg width="30px" height="22px" viewBox="0 0 30 22" version="1.1" xmlns="http://www.w3.org/2000/svg" xmlns:xlink="http://www.w3.org/1999/xlink">
    <!-- Generator: Sketch 52.4 (67378) - http://www.bohemiancoding.com/sketch -->
    <title>邮件icon-click</title>
    <desc>Created with Sketch.</desc>
    <g id="Page-1" stroke="none" stroke-width="1" fill="none" fill-rule="evenodd">
        <g id="0.0控件库" transform="translate(-1012.000000, -2139.000000)">
            <g id="邮件icon-click" transform="translate(1012.000000, 2135.000000)">
                <rect id="矩形" fill="#D8D8D8" opacity="0" x="0" y="0" width="30" height="30"></rect>
                <path d="M15,20.9160458 C16.5881854,20.9160458 18.0000207,20.4082055 19.0588971,19.3928224 L22.4117215,16.4019876 L29.8234947,22.8327637 L29.8234947,24.0174599 C29.8234947,25.3712214 28.7648251,26 27.1764329,26 L2.64701016,26 C1.2353817,26 -2.81143997e-11,25.2019578 -2.81143997e-11,23.8481963 L-2.81143997e-11,22.8327637 L7.41172152,16.4019876 L10.9411029,19.3928224 C11.9999276,20.4082055 13.4118146,20.9160458 15,20.9160458 Z M30,9.07681629 L30,20.584607 L23.470598,15.1692636 L30,9.07681629 Z M1.61558713e-27,20.7539201 L1.61558713e-27,8.90775104 L6.52940203,15 L1.61558713e-27,20.7539201 Z M2.82351542,4 L27.3529381,4 C28.7648251,4 30,4.71462182 30,6.23764687 L30,6.74523926 L18.0000207,18.083816 C17.2942065,18.7606719 16.23533,19.2684626 15,19.2684626 C13.9411236,19.2684626 12.8822988,18.9299355 11.9999276,18.083816 L1.61558713e-27,6.74523926 L1.61558713e-27,6.23764687 C1.61558713e-27,4.71462182 1.2353817,4 2.82351542,4 Z" id="合并形状" fill="#FFFFFF"></path>
            </g>
        </g>
    </g>
</svg>