<?xml version="1.0" encoding="UTF-8"?>
<svg width="22px" height="22px" viewBox="0 0 22 22" version="1.1" xmlns="http://www.w3.org/2000/svg" xmlns:xlink="http://www.w3.org/1999/xlink">
    <!-- Generator: Sketch 52.4 (67378) - http://www.bohemiancoding.com/sketch -->
    <title>QQ号icon-white</title>
    <desc>Created with Sketch.</desc>
    <g id="Page-1" stroke="none" stroke-width="1" fill="none" fill-rule="evenodd">
        <g id="QQ号icon-white">
            <rect id="矩形" stroke="#979797" fill="#D8D8D8" opacity="0" x="0.5" y="0.5" width="21" height="21"></rect>
            <polygon id="Fill-1" fill="#FFFFFF" points="10.6580257 0 10.3288949 0.0177772946 10.0196202 0.060070052 9.71034541 0.101502618 9.39716396 0.151644624 9.0881401 0.209994293 8.79470721 0.280135756 8.5005575 0.372283789 8.22837852 0.464969442 7.95566192 0.554429376 7.6813683 0.684640891 7.42280902 0.790767039 7.19346041 0.91843382 6.95518732 1.06194246 6.73440479 1.21147245 6.5169555 1.38060764 6.33860909 1.53752094 6.05761314 1.79572181 5.82532555 2.03471173 5.60271511 2.26739357 5.39777445 2.50373124 5.2063818 2.74619777 5.03767671 2.9818186 4.87384603 3.2180129 4.79868679 3.3228846 4.7278285 3.45098148 4.57507279 3.67455963 4.45357072 3.89803026 4.34590339 4.1076303 4.25181993 4.33120845 4.15995863 4.53589823 4.08282811 4.72657405 4.01283001 4.930547 3.94211508 5.11860641 3.84677717 5.46074765 3.77774679 5.78908998 3.73882312 6.06349112 3.70032954 6.29982878 3.70032954 6.75845431 3.63384389 6.82959933 3.57266276 6.92508061 3.52531638 7.01102809 3.48402718 7.10317613 3.43263072 7.30392336 3.37650322 7.48943803 3.35621703 7.65463067 3.34360088 7.77645532 3.34360088 7.90652347 3.21299511 8.09175141 3.12056035 8.27712272 3.05027552 8.45532576 2.9979472 8.61550062 2.95845006 8.76796959 2.91952639 8.91230258 2.91952639 9.27885176 2.94135375 9.36773824 2.97386183 9.53042199 3.01403995 9.65557988 2.94135375 9.70977195 2.73680734 9.8594453 2.46563191 10.102091 2.29914898 10.2454563 2.13703869 10.3858468 2.02546467 10.4968832 1.93331663 10.5960203 1.73536502 10.8041867 1.54748482 11.0100234 1.4006071 11.1901977 1.22462622 11.4482193 1.05660211 11.6806144 0.890979369 11.9389587 0.750015458 12.1787729 0.63492898 12.4338556 0.510595442 12.6692256 0.420992143 12.9010472 0.326084328 13.1443739 0.255082673 13.3804249 0.185944767 13.6230706 0.124333538 13.8339251 0.0896032995 14.0601555 0.0517907071 14.2704365 0.0196052019 14.4745887 0 14.8741477 0 15.409402 0.0196052019 15.5726234 0.0709658132 15.8495692 0.0896032995 15.9712147 0.124333538 16.0945805 0.166339565 16.2134303 0.205370763 16.2959012 0.268093072 16.4493379 0.31583371 16.4809858 0.345402799 16.5456794 0.382785296 16.5616287 0.420992143 16.5616287 0.583962624 16.5456794 0.750015458 16.5041034 0.890979369 16.4493379 1.03728364 16.3576558 1.17129433 16.2695937 1.29211542 16.1591307 1.42315129 16.0412486 1.53458195 15.9198541 1.63974038 15.7825101 1.73536502 15.6588934 1.82539842 15.5562439 1.88209939 15.4383618 1.99130789 15.2438868 2.02546467 15.1636739 2.0449265 15.1156465 2.05388683 15.0616337 2.080051 15.0173696 2.09936947 15.0078717 2.13703869 14.9890908 2.16015635 14.9890908 2.16979766 15.0078717 2.18854267 15.0078717 2.20703679 15.0173696 2.26918564 15.2818427 2.33430932 15.4962097 2.42448608 15.7192144 2.514627 15.9198541 2.58996545 16.1199203 2.70587628 16.2959012 2.79185961 16.4809858 2.88719752 16.650121 2.9979472 16.7965686 3.08138579 16.938106 3.30525067 17.1999268 3.50011993 17.4320352 3.68703241 17.6134998 3.87226035 17.7764703 4.03257857 17.9041371 4.2715685 18.1107981 4.36704977 18.1562807 4.40009547 18.200939 4.40009547 18.223089 4.37740791 18.2419773 4.36704977 18.2419773 4.32027685 18.25764 4.14038926 18.2713672 3.97433643 18.2928003 3.83444776 18.3115453 3.68703241 18.3437667 3.55922226 18.382547 3.43263072 18.4207538 3.32120006 18.4781716 3.23202686 18.5326146 3.12056035 18.5676316 3.05027552 18.6246193 2.97386183 18.6691342 2.89336222 18.7331109 2.79185961 18.8570144 2.75279257 18.9153999 2.70587628 18.9662229 2.64161279 19.0967211 2.60634494 19.2054995 2.56362208 19.3139912 2.55523521 19.4086481 2.55523521 19.5885357 2.53717119 19.6773147 2.53717119 19.7666312 2.514627 19.8563779 2.514627 19.9354797 2.53717119 20.0215706 2.55523521 20.0985935 2.60634494 20.2482311 2.64161279 20.3188026 2.68752552 20.3882631 2.73680734 20.4585479 2.79185961 20.5191556 2.8643666 20.5890103 2.91952639 20.6465715 3.08138579 20.7658514 3.24475052 20.8638416 3.43263072 20.9535882 3.63384389 21.0332635 3.84677717 21.1188167 4.08282811 21.1732597 4.32027685 21.2498526 4.57507279 21.3013566 4.82947448 21.3394559 5.09086523 21.3779495 5.3616464 21.416443 5.89647057 21.4704917 6.4473875 21.4794521 7.42280902 21.4794521 7.66165557 21.4704917 7.86634535 21.4479476 8.06304251 21.431138 8.24895144 21.416443 8.54593261 21.3590611 8.75983361 21.3013566 8.96398577 21.2498526 9.3396028 21.0965234 9.50956234 21.0332635 9.67210272 20.9535882 9.94023164 20.8064596 10.1824473 20.6885775 10.3612238 20.5769676 10.4921163 20.4585479 10.6962684 20.481343 10.854472 20.4973282 11.1679402 20.5191556 11.4389723 20.5191556 11.5347403 20.5395851 11.6313326 20.5769676 11.783945 20.6311597 11.9555891 20.6885775 12.28153 20.786711 12.6139224 20.9057042 12.9379996 20.9985332 13.2639406 21.0613989 13.5981251 21.1444074 13.9432411 21.1927215 14.2707233 21.2277385 14.6008577 21.2732211 14.9067633 21.3013566 15.2354999 21.3205317 16.1474823 21.3205317 16.4410944 21.2852638 16.7276816 21.2732211 17.0057385 21.2277385 17.2613588 21.1732597 17.5156172 21.1188167 17.7620262 21.0613989 17.8618443 21.0332635 17.9759631 20.9985332 18.188072 20.9153814 18.3780668 20.8293981 18.5551588 20.7400815 18.721355 20.6465715 18.8684836 20.5395851 18.9263315 20.481343 18.995326 20.4020978 19.0846785 20.2965452 19.1811274 20.1650792 19.2175422 20.0985935 19.2327748 20.0442581 19.2724153 19.9744034 19.2896191 19.8982406 19.2896191 19.8242999 19.3084 19.7513628 19.2896191 19.6430145 19.2724153 19.5496121 19.2327748 19.4423748 19.1998725 19.3523414 19.1395515 19.2444232 19.0664711 19.144856 18.995326 19.0594462 18.9008483 18.9845736 18.7054056 18.8196319 18.4861284 18.6597438 18.2645215 18.5326146 18.0323773 18.4015787 17.4996678 18.1454925 17.3718576 18.0707634 17.3372707 18.0344919 17.3148699 18.0119477 17.5709203 17.7603417 17.6822434 17.6357573 17.7737822 17.5211009 17.9532755 17.2689213 18.1224107 17.0107563 18.2645215 16.7814436 18.4003243 16.5616287 18.5804986 16.1199203 18.721355 15.7538012 18.814865 15.4962097 18.8684836 15.409402 18.9008483 15.3400849 18.9564024 15.2980789 18.9789466 15.2980789 18.995326 15.3074693 19.1324191 15.5726234 19.2542079 15.8275985 19.3408722 15.9712147 19.4295078 16.0945805 19.5181075 16.2485907 19.6308285 16.3981206 19.7258797 16.5041034 19.7838351 16.5616287 19.8406794 16.6128818 19.8930436 16.650121 19.9426121 16.6858189 20.0511038 16.7394375 20.1082349 16.7586126 20.1975514 16.7586126 20.2560803 16.7394375 20.3272253 16.7048507 20.4063271 16.6701204 20.4722393 16.6128818 20.5342806 16.5456794 20.6031676 16.4624917 20.6573239 16.3981206 20.7192218 16.2959012 20.7651346 16.2134303 20.8205811 16.0945805 20.849971 15.9958735 20.9291086 15.7538012 20.9801825 15.4868192 21.0171707 15.1895872 21.0434783 15.0173696 21.0434783 14.5316839 21.0045546 14.1872847 20.947997 13.7993382 20.8769953 13.4192052 20.8205811 13.2241926 20.7651346 13.0168505 20.6926276 12.8195799 20.6192604 12.5997651 20.5342806 12.3914553 20.4406273 12.1787729 20.1282702 11.5238087 19.9809623 11.250662 19.8534389 10.9950417 19.7074214 10.7614996 19.5986071 10.5489606 19.3718033 10.2294711 19.0846785 9.80471561 19.0185871 9.69984391 18.995326 9.65557988 18.995326 9.61963103 19.0444645 9.47666001 19.1105559 9.34899323 19.1683679 9.09656281 19.1998725 8.96678139 19.1998725 8.83237644 19.2175422 8.72442239 19.2175422 8.61550062 19.1998725 8.48991263 19.1811274 8.38826665 19.1395515 8.1816056 19.0846785 7.97989065 19.0338555 7.79606052 18.9564024 7.61656719 18.8684836 7.46675047 18.7993457 7.32675428 18.721355 7.19263606 18.6005339 6.99425436 18.5551588 6.92508061 18.5422918 6.86443709 18.4861284 6.48125754 18.4502871 6.22979484 18.4089979 5.91718685 18.3450211 5.59375478 18.2444862 5.22444582 18.188072 5.01764141 18.1439513 4.84166053 18.0806914 4.63725748 18.0104066 4.41995156 17.9396916 4.21949106 17.849945 4.00343958 17.666975 3.58552979 17.5576232 3.38757818 17.4265873 3.16077431 17.3028272 2.96558248 17.1810026 2.74619777 17.0057385 2.54179472 16.8585741 2.34369974 16.680371 2.13954759 16.4970785 1.95489311 16.3138219 1.77597324 16.0959783 1.59117539 15.9818596 1.52408044 15.8730811 1.43182489 15.6381413 1.26871104 15.3659982 1.09316025 15.0880846 0.933702222 14.8018916 0.790767039 14.4884234 0.659157713 14.1952773 0.53525427 13.8887982 0.426440023 13.5538969 0.337696915 13.2482779 0.257878296 12.9224803 0.18845366 12.6139224 0.114369652 12.28153 0.0798186192 11.9555891 0.0410383112 11.6313326 0"></polygon>
        </g>
    </g>
</svg>