<?xml version="1.0" encoding="UTF-8"?>
<svg width="22px" height="22px" viewBox="0 0 22 22" version="1.1" xmlns="http://www.w3.org/2000/svg" xmlns:xlink="http://www.w3.org/1999/xlink">
    <!-- Generator: Sketch 52.4 (67378) - http://www.bohemiancoding.com/sketch -->
    <title>企业-1icon-white</title>
    <desc>Created with Sketch.</desc>
    <defs>
        <linearGradient x1="14.6647135%" y1="1.11022302e-14%" x2="99.6717612%" y2="49.807677%" id="linearGradient-1">
            <stop stop-color="#64ABF7" offset="0%"></stop>
            <stop stop-color="#2F90F1" offset="100%"></stop>
        </linearGradient>
        <polygon id="path-2" points="0 0 0 22 22 22 22 4.07542383e-15"></polygon>
    </defs>
    <g id="Page-1" stroke="none" stroke-width="1" fill="none" fill-rule="evenodd">
        <g id="企业-1icon-white">
            <mask id="mask-3" fill="white">
                <use xlink:href="#path-2"></use>
            </mask>
            <g id="Clip-2"></g>
            <path d="M20.524012,20.5418342 L20.5305348,8.08475394 C20.5305348,7.4745316 20.0732874,7.06448994 19.4791229,6.87758383 L13.9371538,5.21447913 C13.1806042,4.97604341 12.4649675,5.28360746 12.4649675,5.99906807 L12.4590154,20.5418342 L10.989393,20.5418342 L11,1.23556112 C11,0.283782447 10.1925616,-0.223166514 9.24751886,0.0948807699 L3.16042392,2.12718542 C2.41835492,2.37642425 2.20744243,3.20264998 2.20744243,4.01693451 L2.20744243,20.5418342 L0.755072856,20.5418342 C0.251596158,20.5418342 4.54747351e-13,20.8082793 4.54747351e-13,21.2743783 C4.54747351e-13,21.7406308 0.251596158,22 0.755072856,22 L21.2882033,22 C21.7916493,22 22,21.7406308 22,21.2743783 C22,20.8082793 21.7916493,20.5418342 21.2882033,20.5418342 L20.524012,20.5418342 Z M4.3936943,17.603599 L4.3936943,16.1425847 L8.79334075,16.1425847 L8.79334075,17.603599 L4.3936943,17.603599 Z M4.3936943,13.9430047 L4.3936943,12.4656047 L8.79334075,12.4656047 L8.79334075,13.9430047 L4.3936943,13.9430047 Z M4.3936943,10.2692929 L4.3936943,8.80299577 L8.79334075,8.80299577 L8.79334075,10.2692929 L4.3936943,10.2692929 Z M4.3936943,6.60462457 L4.3936943,5.13091807 L8.79334075,5.13091807 L8.79334075,6.60462457 L4.3936943,6.60462457 Z M14.6598344,17.6065985 L14.6598344,16.1395739 L18.3236853,16.1395739 L18.3236853,17.6065985 L14.6598344,17.6065985 Z M14.6598344,13.9430047 L14.6598344,12.4656047 L18.3236853,12.4656047 L18.3236853,13.9430047 L14.6598344,13.9430047 Z M14.6598344,10.2692929 L14.6598344,8.80299577 L18.3236853,8.80299577 L18.3236853,10.2692929 L14.6598344,10.2692929 Z" id="主体-企业icon" fill="#FFFFFF" mask="url(#mask-3)"></path>
        </g>
    </g>
</svg>