<?xml version="1.0" encoding="UTF-8"?>
<svg width="30px" height="24px" viewBox="0 0 30 24" version="1.1" xmlns="http://www.w3.org/2000/svg" xmlns:xlink="http://www.w3.org/1999/xlink">
    <!-- Generator: Sketch 52.4 (67378) - http://www.bohemiancoding.com/sketch -->
    <title>社保-1icon-click</title>
    <desc>Created with Sketch.</desc>
    <defs>
        <polygon id="path-1" points="-1.54715637e-15 0 30 0 30 30 -1.54715637e-15 30"></polygon>
    </defs>
    <g id="Page-1" stroke="none" stroke-width="1" fill="none" fill-rule="evenodd">
        <g id="0.0控件库" transform="translate(-912.000000, -1757.000000)">
            <g id="社保-1icon-click" transform="translate(912.000000, 1755.000000)">
                <mask id="mask-2" fill="white">
                    <use xlink:href="#path-1"></use>
                </mask>
                <use id="Clip-2" fill="#D8D8D8" opacity="0" xlink:href="#path-1"></use>
                <path d="M19.6878487,21.1478751 L23.2724124,21.3043966 L25.5728578,8.41742117 C25.5728578,8.41742117 27.1777653,9.93038055 28.0338023,11.2347262 C28.8897976,12.5390718 29.4783779,13.06081 29.7993761,12.9043293 C30.1203743,12.7478078 29.9598752,11.9652005 29.9598752,11.9652005 C29.638877,10.8173763 25.5193163,2 14.7124182,2 C6.09904968,2 0,8.52172805 0,14.0521534 C0,19.5825381 5.88500908,26 14.9264588,26 C23.9679085,26 28.5152579,20.4695746 29.6922513,16.8695807 C29.6922513,16.8695807 29.9598752,16.1912802 29.6922513,16.0347588 C29.4248364,15.8782373 28.8364233,16.2955871 27.9803862,17.5478404 C25.9473975,20.7826176 22.1489604,23.3390942 16.5849496,23.3390942 C14.1773794,23.3390942 11.5023943,22.6607937 9.30890645,21.4086627 L13.0539274,21.4086627 C15.0334164,21.4086627 19.6344744,20.8346691 19.6344744,17.3913597 C19.6344744,13.895632 15.4614976,13.7391105 15.4614976,10.8173763 C15.4614976,9.56528606 17.1733627,9.20002853 18.2969819,9.20002853 C19.4204338,9.20002853 20.971967,9.0955586 20.971967,9.0955586 L21.2393819,7.73916145 L15.7289125,7.73916145 C12.732971,7.73916145 10.3789423,8.88698559 10.3789423,11.1304193 C10.3789423,14.7826685 14.8193758,15.3564991 14.8193758,17.4956259 C14.8193758,18.64345 13.5354247,19.6347934 11.9304755,19.6347934 C10.3254008,19.6347934 8.72049331,18.5391839 8.72049331,18.5391839 L7.75754046,20.3130531 C5.93838339,18.7477569 4.65443232,16.6085893 4.65443232,13.9478466 C4.65443232,8.15647052 12.1443907,5.33920629 16.5314081,5.33920629 C20.9183837,5.33920629 23.5398273,6.9043395 24.609905,7.68694686 L21.9349198,7.68694686 L19.6878487,21.1478751 Z" id="Fill-1" fill="#FFFFFF" mask="url(#mask-2)"></path>
            </g>
        </g>
    </g>
</svg>