<?xml version="1.0" encoding="UTF-8"?>
<svg width="22px" height="22px" viewBox="0 0 22 22" version="1.1" xmlns="http://www.w3.org/2000/svg" xmlns:xlink="http://www.w3.org/1999/xlink">
    <!-- Generator: Sketch 52.4 (67378) - http://www.bohemiancoding.com/sketch -->
    <title>上海浦东发展银行icon-white</title>
    <desc>Created with Sketch.</desc>
    <defs>
        <polygon id="path-1" points="0 0 0 22 22 22 22 0 7.76851478e-21 1.93298939e-14"></polygon>
    </defs>
    <g id="Page-1" stroke="none" stroke-width="1" fill="none" fill-rule="evenodd">
        <g id="上海浦东发展银行icon-white">
            <mask id="mask-2" fill="white">
                <use xlink:href="#path-1"></use>
            </mask>
            <g id="Clip-2"></g>
            <path d="M13.0860513,14.3397436 C15.1128718,18.3397949 20.1503077,17.6826154 21.2773846,14.2765641 C21.2773846,14.2765641 21.6192308,13.4964103 21.6508205,12.070359 L21.6508205,5.09410256 L18.3553333,2 L18.3553333,10.5173846 C18.3553333,10.5173846 17.9965641,14.5885128 13.0860513,14.3397436 M3.73041026,14.402359 C3.73041026,14.402359 9.14184615,15.1497949 9.32630769,9.61764103 C9.24225641,4.42169231 15.9093846,4.07702564 17.7224103,7.81194872 C17.7224103,7.81194872 12.996359,7.87625641 12.4982564,11.7911282 C12.4982564,11.7911282 12.5597436,16.6237949 8.82989744,17.1218974 C8.82989744,17.1218974 4.78753846,17.8225128 3.73041026,14.402359 M8.56589744,7.90784615 C6.53794872,3.90610256 1.40687179,4.51646154 0.280358974,7.92307692 C0.280358974,7.92307692 0.124666667,9.02646154 0,10.178359 L0,17.1534872 L3.29548718,20.2475897 L3.29661538,11.729641 C3.29661538,11.729641 3.652,7.65851282 8.56589744,7.90784615" id="Fill-1" fill="#FFFFFF" mask="url(#mask-2)"></path>
        </g>
    </g>
</svg>