<?xml version="1.0" encoding="UTF-8"?>
<svg width="22px" height="22px" viewBox="0 0 22 22" version="1.1" xmlns="http://www.w3.org/2000/svg" xmlns:xlink="http://www.w3.org/1999/xlink">
    <!-- Generator: Sketch 52.4 (67378) - http://www.bohemiancoding.com/sketch -->
    <title>手机icon-white</title>
    <desc>Created with Sketch.</desc>
    <defs>
        <polygon id="path-1" points="1.01274569e-16 0 22 0 22 22 1.01274569e-16 22"></polygon>
    </defs>
    <g id="Page-1" stroke="none" stroke-width="1" fill="none" fill-rule="evenodd">
        <g id="手机icon-white">
            <mask id="mask-2" fill="white">
                <use xlink:href="#path-1"></use>
            </mask>
            <g id="Clip-2"></g>
            <path d="M18.9783614,19.1310222 C18.9783614,19.5290667 18.9007021,19.8980444 18.7404947,20.2427259 C18.5803169,20.5873778 18.3617984,20.8884148 18.0851762,21.1504593 C17.8084355,21.4126222 17.4783614,21.6214222 17.1045244,21.7718815 C16.7306577,21.9223407 16.3277836,22 15.8957244,22 L7.08263704,22 C6.65057778,22 6.24767407,21.9223407 5.87383704,21.7718815 C5.5,21.6214222 5.17475556,21.4126222 4.89327407,21.1504593 C4.61656296,20.8884148 4.39318519,20.5825185 4.23783704,20.2427259 C4.07765926,19.8980444 4,19.5290667 4,19.1310222 L4,2.89327407 C4,2.49525926 4.07765926,2.12139259 4.23783704,1.77188148 C4.39804444,1.42234074 4.61656296,1.11653333 4.89327407,0.849540741 C5.1698963,0.587377778 5.5,0.378696296 5.87383704,0.228118519 C6.24767407,0.0776592593 6.65057778,8.79072947e-16 7.08263704,8.79072947e-16 L15.8957244,-4.95070651e-12 C16.3277836,-4.95070651e-12 16.7306577,0.0776592593 17.1045244,0.228118519 C17.4783614,0.378696296 17.8035762,0.587377778 18.0851762,0.849540741 C18.3617984,1.11167407 18.5851762,1.41748148 18.7404947,1.77188148 C18.9007021,2.12139259 18.9783614,2.49525926 18.9783614,2.89327407 L18.9783614,19.1310222 Z M5.91274074,4.03899259 L5.91274074,17.9562667 L17.0414429,17.9562667 L17.0414429,4.03899259 L5.91274074,4.03899259 Z M11.3157333,18.626163 C10.9808,18.626163 10.6895704,18.7475852 10.4418963,18.9854222 C10.1943407,19.2232593 10.073037,19.519437 10.073037,19.8688593 C10.073037,20.2039407 10.1943407,20.4951407 10.4418963,20.7427259 C10.6895704,20.9902815 10.9808,21.1117037 11.3157333,21.1117037 C11.6652741,21.1117037 11.9614519,20.9902815 12.1993185,20.7427259 C12.4371556,20.4951407 12.5585778,20.2039407 12.5585778,19.8688593 C12.5585778,19.519437 12.4371556,19.2232593 12.1993185,18.9854222 C11.9614519,18.7475852 11.6652741,18.626163 11.3157333,18.626163 Z M13.2284741,2.00971852 C13.2284741,1.88355556 13.1895704,1.7816 13.1070519,1.7088 C13.0293926,1.636 12.9420148,1.60195556 12.8449185,1.60195556 L9.81087407,1.60195556 C9.73321481,1.60195556 9.64583704,1.636 9.55845926,1.7088 C9.47105185,1.7816 9.42731852,1.8786963 9.42731852,2.00971852 C9.42731852,2.136 9.46619259,2.23795556 9.54874074,2.31075556 C9.6264,2.38355556 9.71377778,2.41757037 9.81087407,2.41757037 L12.8449185,2.41757037 C12.9420148,2.41757037 13.0293926,2.38355556 13.1070519,2.31075556 C13.1895704,2.2330963 13.2284741,2.136 13.2284741,2.00971852 Z" id="Fill-1" fill="#FFFFFF" mask="url(#mask-2)"></path>
        </g>
    </g>
</svg>