<?xml version="1.0" encoding="UTF-8"?>
<svg width="22px" height="22px" viewBox="0 0 22 22" version="1.1" xmlns="http://www.w3.org/2000/svg" xmlns:xlink="http://www.w3.org/1999/xlink">
    <!-- Generator: Sketch 52.4 (67378) - http://www.bohemiancoding.com/sketch -->
    <title>微信号icon-white</title>
    <desc>Created with Sketch.</desc>
    <defs>
        <polygon id="path-1" points="6.35206713e-17 0 22 0 22 22 6.35206713e-17 22"></polygon>
    </defs>
    <g id="Page-1" stroke="none" stroke-width="1" fill="none" fill-rule="evenodd">
        <g id="微信号icon-white">
            <mask id="mask-2" fill="white">
                <use xlink:href="#path-1"></use>
            </mask>
            <g id="Clip-2"></g>
            <path d="M14.8805881,7.41732573 C15.1327376,7.41732573 15.3822662,7.4358403 15.6297313,7.4633891 C14.9565982,4.32890494 11.6052649,2 7.77991381,2 C3.50329785,2 0,4.91501394 0,8.61642332 C0,10.7529886 1.16555387,12.5075792 3.11312548,13.8684284 L2.33501141,16.2087655 L5.05473004,14.8449886 C6.02794423,15.0375513 6.80867934,15.2355792 7.77991381,15.2355792 C8.02400507,15.2355792 8.2661166,15.2235894 8.50616477,15.2047402 C8.3541166,14.6845475 8.2661166,14.1398454 8.2661166,13.5745374 C8.2661166,10.1757186 11.1849506,7.41732573 14.8804766,7.41732573 L14.8805881,7.41732573 Z M10.6974094,5.30800253 C11.2831838,5.30800253 11.6712649,5.69346261 11.6712649,6.27879087 C11.6712649,6.8618327 11.2832953,7.25264639 10.6974094,7.25264639 C10.1143676,7.25264639 9.52926236,6.8618327 9.52926236,6.27879087 C9.52926236,5.69335108 10.114256,5.30800253 10.6974094,5.30800253 Z M5.25253485,7.25264639 C4.66949303,7.25264639 4.08098606,6.8618327 4.08098606,6.27879087 C4.08098606,5.69346261 4.66949303,5.30800253 5.25253485,5.30800253 C5.83557668,5.30800253 6.22365779,5.69346261 6.22365779,6.27879087 C6.22365779,6.8618327 5.83568821,7.25264639 5.25253485,7.25264639 Z M21.9811508,13.4809886 C21.9811508,10.3706793 18.8686667,7.83535361 15.3728973,7.83535361 C11.6712649,7.83535361 8.7558327,10.3706793 8.7558327,13.4809886 C8.7558327,16.5967351 11.6712649,19.1267351 15.3728973,19.1267351 C16.1476375,19.1267351 16.9291534,18.9313283 17.7071559,18.7363676 L19.8411001,19.9048492 L19.2559949,17.9606236 C20.8176882,16.7891027 21.9811508,15.2355792 21.9811508,13.4809886 Z M13.2275209,12.5075792 C12.8400811,12.5075792 12.4492953,12.1222307 12.4492953,11.7291305 C12.4492953,11.3414956 12.8400811,10.951128 13.2275209,10.951128 C13.8158885,10.951128 14.2013485,11.3414956 14.2013485,11.7291305 C14.2013485,12.1222307 13.8158885,12.5075792 13.2275209,12.5075792 Z M17.5068416,12.5075792 C17.1221343,12.5075792 16.7340811,12.1222307 16.7340811,11.7291305 C16.7340811,11.3414956 17.1221343,10.951128 17.5068416,10.951128 C18.0899113,10.951128 18.4805856,11.3414956 18.4805856,11.7291305 C18.4805856,12.1222307 18.0899113,12.5075792 17.5068416,12.5075792 Z" id="Fill-1" fill="#FFFFFF" mask="url(#mask-2)"></path>
        </g>
    </g>
</svg>