<?xml version="1.0" encoding="UTF-8"?>
<svg width="22px" height="22px" viewBox="0 0 22 22" version="1.1" xmlns="http://www.w3.org/2000/svg" xmlns:xlink="http://www.w3.org/1999/xlink">
    <!-- Generator: Sketch 52.4 (67378) - http://www.bohemiancoding.com/sketch -->
    <title>中国银行icon-white</title>
    <desc>Created with Sketch.</desc>
    <defs>
        <polygon id="path-1" points="21.3806319 21.2594148 0 21.2594148 0 8.14814815e-05 21.3806319 8.14814815e-05"></polygon>
    </defs>
    <g id="Page-1" stroke="none" stroke-width="1" fill="none" fill-rule="evenodd">
        <g id="中国银行icon-white">
            <mask id="mask-2" fill="white">
                <use xlink:href="#path-1"></use>
            </mask>
            <g id="Clip-2"></g>
            <path d="M17.7425111,15.2719111 C16.1642148,17.6772444 13.1673259,18.7829481 11.7674741,18.9010963 L11.7674741,15.0356148 L13.620363,15.0356148 C13.620363,15.0356148 15.5930296,14.6420593 15.7111778,12.5903556 L15.7111778,8.46902222 C15.7111778,8.46902222 15.3942148,6.40020741 13.2080667,6.29998519 L11.7674741,6.29998519 L11.7674741,2.37665185 C11.7674741,2.37665185 14.2314741,2.57302222 16.2236963,4.40798519 C18.2151037,6.24131852 18.7276222,8.07465185 18.9451778,9.06139259 C19.1619185,10.0473185 19.3191778,12.8665778 17.7425111,15.2719111 Z M8.25643704,12.7288741 C8.25643704,12.7288741 7.86288148,12.8274667 7.8034,12.3744296 L7.8034,8.90413333 C7.8034,8.90413333 7.86288148,8.52931852 8.15865926,8.52931852 L13.0288074,8.52931852 C13.0288074,8.52931852 13.4435481,8.44865185 13.4818444,8.90413333 L13.4818444,12.2750222 C13.4818444,12.2750222 13.5820667,12.8087259 13.1868815,12.7288741 L8.25643704,12.7288741 Z M9.59762222,18.9010963 C9.59762222,18.9010963 5.69302963,18.6835407 3.54436296,14.9370222 C3.54436296,14.9370222 1.69065926,12.2945778 2.45902963,9.0010963 C3.22902963,5.70842963 5.02325185,4.38842963 5.37851111,4.05272593 C5.73377037,3.71783704 8.03154815,2.35057778 9.59762222,2.37502222 L9.59762222,6.29998519 L7.94191852,6.29998519 C7.94191852,6.29998519 5.69384444,6.4385037 5.61480741,8.92287407 L5.61480741,12.5504296 C5.61480741,12.5504296 5.67428889,14.779763 8.00058519,15.0356148 L9.59762222,15.0356148 L9.59762222,18.9010963 Z M21.3700667,10.1646519 C21.2315481,6.40020741 18.8856963,3.83435556 18.8856963,3.83435556 C15.2573259,-0.383940741 10.6039185,0.00961481481 10.6039185,0.00961481481 C5.63436296,-0.147644444 2.57880741,3.59968889 2.57880741,3.59968889 C0.487992593,6.08324444 0.251696296,8.37205926 0.251696296,8.37205926 C-0.675562963,12.2163556 1.25717778,15.527763 1.25717778,15.527763 C2.69614074,18.1319111 4.21414074,19.3353926 6.67895556,20.4769481 C9.14377037,21.6225778 12.8919185,21.4653185 15.2182148,20.301763 C17.5445111,19.1373926 18.9647333,17.8556889 20.2659926,15.4308 C21.566437,13.0042815 21.3700667,10.1646519 21.3700667,10.1646519 Z" id="Fill-1" fill="#FFFFFF" mask="url(#mask-2)"></path>
        </g>
    </g>
</svg>