<?xml version="1.0" encoding="UTF-8"?>
<svg width="22px" height="22px" viewBox="0 0 22 22" version="1.1" xmlns="http://www.w3.org/2000/svg" xmlns:xlink="http://www.w3.org/1999/xlink">
    <!-- Generator: Sketch 52.4 (67378) - http://www.bohemiancoding.com/sketch -->
    <title>中国农业银行icon-white</title>
    <desc>Created with Sketch.</desc>
    <g id="Page-1" stroke="none" stroke-width="1" fill="none" fill-rule="evenodd">
        <g id="中国农业银行icon-white" fill="#FFFFFF">
            <path d="M10.5139468,-1.4939161e-12 L10.0033881,0.0467356831 L10.0033881,6.60816229 L10.0502223,6.79247202 L10.0957372,6.83854946 L10.0957372,6.93267907 L10.188746,6.93267907 L10.2368995,6.97809826 L10.3741039,7.02285919 L11.6709493,7.02285919 L11.8114519,6.97809826 L11.8569668,6.93267907 L11.903801,6.93267907 L11.9499756,6.83854946 L11.9948308,6.79247202 L11.9948308,0.0467356831 L11.531766,-1.4939161e-12 L10.5139468,-1.4939161e-12 Z M13.2936552,7.25522111 L13.1986675,7.39279516 L13.1069781,7.4401891 L12.9677947,7.48692478 L12.7837562,7.53431871 L11.5324256,7.53431871 L11.4400765,7.5797379 L11.3932423,7.66991802 L11.3470678,7.76404763 L11.3470678,10.9512896 L11.3932423,10.9045539 L11.4400765,10.859793 L14.1709718,10.859793 L14.3576489,10.8143738 L14.4513173,10.8143738 L14.5423472,10.7669798 L14.5885217,10.6761415 L14.6360156,10.6294058 L14.6821901,10.5385674 L14.6821901,2.95685477 L15.2382637,3.23463587 L15.7923584,3.5584944 L16.3035767,3.92843038 L16.7659819,4.2977081 L17.2290468,4.71437975 L17.6465967,5.17449584 L18.0628274,5.68398061 L18.4335431,6.14607145 L18.7112501,6.70031716 L19.0357913,7.25522111 L19.2660044,7.854886 L19.3596728,8.1339836 L19.4533412,8.41110646 L19.6373798,9.06014003 L19.7778824,9.70324936 L19.7778824,10.0290826 L19.8240569,10.3529412 L19.8702315,11 L19.8240569,11.8320268 L19.7778824,12.247382 L19.6835544,12.6166597 L19.6373798,13.0333313 L19.4995158,13.4019508 L19.2660044,14.142481 L19.1274808,14.5117587 L18.9441018,14.8816947 L18.7574247,15.2062115 L18.5720668,15.5741727 L18.3873686,15.8986895 L18.1558361,16.2212315 L17.9243037,16.4996709 L17.6465967,16.8208964 L17.4150643,17.1006523 L17.1366977,17.3771169 L16.5344495,17.8866016 L16.2092487,18.1183053 L15.9322014,18.3486925 L15.6083198,18.5316857 L15.2382637,18.7179702 L14.9130629,18.9009634 L14.5423472,19.0879062 L14.1709718,19.2254802 L13.9875928,19.3189516 L13.8035542,19.3643708 L13.4321789,19.4578421 L13.0614631,19.5947579 L12.6439132,19.6408354 L12.2276825,19.7343067 L12.2276825,14.5578362 L14.1709718,14.5578362 L14.3576489,14.5117587 L14.4513173,14.465023 L14.5423472,14.465023 L14.5885217,14.3728682 L14.6360156,14.3254742 L14.6821901,14.2346359 L14.6821901,10.9512896 L14.5885217,11.0454192 L14.4513173,11.140207 L14.3114744,11.1856262 L14.1709718,11.2303872 L11.531766,11.2303872 L11.4400765,11.2764646 L11.3932423,11.3686195 L11.3470678,11.4601161 L11.3470678,14.5117587 L10.6518109,14.5117587 L10.6518109,11.3686195 L10.5594617,11.2764646 L10.466453,11.2303872 L7.82724719,11.2303872 L7.68740424,11.1856262 L7.54888057,11.140207 L7.40969726,11.0454192 L7.36418234,11 L7.31734814,10.9512896 L7.31734814,14.0957453 L7.36418234,14.2346359 L7.36418234,14.3254742 L7.40969726,14.3728682 L7.50204637,14.465023 L7.59571476,14.465023 L7.64122968,14.5117587 L7.82724719,14.5578362 L9.77317498,14.5578362 L9.77317498,19.7343067 L9.35562505,19.6408354 L8.98556895,19.5947579 L8.61419358,19.4578421 L8.19796292,19.3643708 L7.82724719,19.2254802 L7.45455254,19.0879062 L7.13264991,18.9009634 L6.76127454,18.7179702 L6.11285182,18.3486925 L5.78962991,18.1183053 L5.46508874,17.8866016 L4.90901513,17.3771169 L4.63130815,17.1006523 L4.35360117,16.8215547 L4.1214091,16.4996709 L3.89053631,16.1738376 L3.42747146,15.5741727 L3.05675573,14.8816947 L2.91757242,14.5117587 L2.77970838,14.142481 L2.68538036,13.9561965 L2.63788652,13.7712285 L2.50002249,13.4019508 L2.40767337,13.0333313 L2.31598389,12.6166597 L2.26980934,12.2013045 L2.22363478,11.8320268 L2.17680058,11.4153552 L2.17680058,11 L2.22363478,10.3529412 L2.22363478,10.0290826 L2.26980934,9.70324936 L2.40767337,9.06014003 L2.54685668,8.45652564 L2.77970838,7.854886 L2.87073822,7.53431871 L3.00992153,7.25522111 L3.28828815,6.70097541 L3.61085042,6.19214888 L3.98222579,5.68398061 L4.35360117,5.17449584 L4.77049146,4.71437975 L5.23421595,4.2977081 L5.74345536,3.92843038 L6.25203513,3.5584944 L6.76127454,3.23463587 L7.31734814,2.95685477 L7.31734814,10.3990186 L7.36418234,10.5385674 L7.36418234,10.6294058 L7.40969726,10.6761415 L7.50204637,10.7669798 L7.54888057,10.8143738 L7.64122968,10.8143738 L7.82724719,10.859793 L10.5594617,10.859793 L10.6518109,10.9512896 L10.6518109,7.66991802 L10.5594617,7.5797379 L10.466453,7.53431871 L9.21644174,7.53431871 L9.07725843,7.48692478 L8.93873476,7.4401891 L8.79955145,7.39279516 L8.75337689,7.34737598 L8.70786197,7.25522111 L8.70786197,0.229728921 L8.24545675,0.367961223 L7.78041299,0.506851774 L7.31734814,0.647058824 L6.90177712,0.784632877 L6.48422719,0.967626115 L6.06535799,1.20262103 L5.65176588,1.38429777 L5.23421595,1.61797618 L4.86415985,1.89509904 L4.49212484,2.17090539 L3.75069337,2.7251511 L3.42747146,3.04966788 L3.10293029,3.37220992 L2.77970838,3.69606846 L2.50002249,4.02190174 L2.22363478,4.38854647 L1.94394888,4.75979893 L1.66690154,5.17449584 L1.43536911,5.54443181 L1.20449632,5.96176171 L1.01781918,6.37645862 L0.833780587,6.79313027 L0.649082356,7.25522111 L0.370056099,8.1339836 L0.277706983,8.59607444 L0.185357868,9.06014003 L0.0916894791,9.52025612 L0.0455149213,10.0290826 L-3.50475204e-12,10.4891987 L-3.50475204e-12,11.5516127 L0.0455149213,12.1098079 L0.139842947,12.6620789 L0.231532426,13.2169828 L0.370056099,13.7258093 L0.507920136,14.2800551 L0.69591655,14.7882233 L0.878635872,15.2529472 L1.11346648,15.7591407 L1.34367963,16.2212315 L1.62138662,16.6852971 L1.89843396,17.1473879 L2.17680058,17.5620849 L2.50068212,17.9767818 L2.87073822,18.3934534 L3.2421136,18.7647059 L3.61151006,19.1346419 L4.02905999,19.4578421 L4.44529064,19.7797259 L4.86415985,20.1035845 L5.32590543,20.3820238 L5.78962991,20.6604632 L6.25203513,20.8908503 L6.71575962,21.1186045 L7.22499903,21.3055472 L7.73555771,21.4885405 L8.24545675,21.630064 L8.79955145,21.7696128 L9.35562505,21.8604512 L9.91235829,21.9071869 L10.466453,21.9526061 L11.0231862,21.9993418 L11.5792598,21.9526061 L12.1333545,21.9071869 L12.6900878,21.8604512 L13.246821,21.7696128 L13.7573797,21.630064 L14.2652998,21.4885405 L14.8213734,21.3055472 L15.2844383,21.1186045 L15.7923584,20.8908503 L16.2567425,20.6604632 L16.7198074,20.3820238 L17.1828722,20.1035845 L17.5997625,19.7797259 L18.0159932,19.4578421 L18.4335431,19.1346419 L18.8049185,18.7647059 L19.174315,18.3934534 L19.4995158,17.9767818 L19.8240569,17.5620849 L20.1479385,17.1473879 L20.4256455,16.6852971 L20.7020332,16.2212315 L20.9355445,15.7591407 L21.1657577,15.2529472 L21.3517752,14.7882233 L21.5377927,14.2800551 L21.6756567,13.7258093 L21.81484,13.2169828 L21.9085084,12.6620789 L21.9540233,12.1098079 L21.9995383,11.5516127 L21.9995383,10.0290826 L21.9085084,9.52025612 L21.8616742,9.06014003 L21.7673462,8.59607444 L21.6294822,8.1339836 L21.3517752,7.25522111 L21.2125919,6.79313027 L21.0278936,6.37645862 L20.5648288,5.54443181 L20.3313174,5.17449584 L20.1011043,4.75979893 L19.8240569,4.38854647 L19.5450307,4.02190174 L18.9441018,3.37220992 L18.6175817,3.04966788 L18.2475256,2.7251511 L17.9243037,2.40260906 L17.553588,2.12351146 L17.1828722,1.89509904 L16.7659819,1.61797618 L16.3952662,1.38429777 L15.9783759,1.20262103 L15.5621453,0.967626115 L15.0990804,0.784632877 L14.6821901,0.647058824 L14.217806,0.506851774 L13.2936552,0.229728921 L13.2936552,7.25522111 Z"></path>
        </g>
    </g>
</svg>