<?xml version="1.0" encoding="UTF-8"?>
<svg width="22px" height="22px" viewBox="0 0 22 22" version="1.1" xmlns="http://www.w3.org/2000/svg" xmlns:xlink="http://www.w3.org/1999/xlink">
    <!-- Generator: Sketch 52.4 (67378) - http://www.bohemiancoding.com/sketch -->
    <title>中国邮政icon-white</title>
    <desc>Created with Sketch.</desc>
    <g id="Page-1" stroke="none" stroke-width="1" fill="none" fill-rule="evenodd">
        <g id="中国邮政icon-white">
            <rect id="矩形" stroke="#979797" fill="#D8D8D8" opacity="0" x="0.5" y="0.5" width="21" height="21"></rect>
            <path d="M12.6837612,1.37542969 L12.0453683,4.42068638 L7.01618304,4.42068638 L5.73939732,10.4436775 L1.16936384,10.4436775 L0.637779018,12.886144 L0.531584821,13.489548 L0,15.9356975 L4.60625,15.9356975 L3.32946429,21.9568471 L14.3116629,21.9568471 L14.8438616,19.5143806 L15.5890625,15.9356975 L18.9529018,15.9356975 L19.4501116,13.489548 L14.7026786,13.489548 L14.2073103,15.9356975 L13.4271205,19.5143806 L5.24464286,19.5143806 L5.35022321,18.9453516 L12.6487723,18.9453516 L13.9224888,12.886144 L19.5569196,12.886144 L20.0885045,10.4430636 L13.0367187,10.4430636 L12.5425781,12.886144 L11.7623884,16.5022712 L5.88303571,16.5022712 L5.98800223,15.9356975 L11.0184152,15.9356975 L11.5137835,13.489548 L11.6549665,12.886144 L12.1521763,10.4436775 L7.12114955,10.4436775 L7.26294643,9.87710379 L14.5608817,9.87710379 L15.1992746,6.86683594 L20.8318638,6.86683594 L21.3634487,4.42068638 L14.3116629,4.42068638 L13.780692,6.86683594 L13.6751116,7.43279576 L7.75954241,7.43279576 L7.90133929,6.86683594 L12.9323661,6.86683594 L13.4271205,4.42068638 L13.5339286,3.81973772 L21.4684152,3.81973772 L22,1.37542969 L12.6837612,1.37542969 Z M6.62455357,12.886144 L10.2394531,12.886144 L10.1338728,13.489548 L6.4827567,13.489548 L6.62455357,12.886144 Z M2.02014509,12.886144 L5.24464286,12.886144 L5.10284598,13.489548 L1.91456473,13.489548 L2.02014509,12.886144 Z M12.1521763,10.4436775 L12.1521763,10.4430636 L12.1521763,10.4436775 Z" id="中国邮政icon" fill="#FFFFFF"></path>
        </g>
    </g>
</svg>