<?xml version="1.0" encoding="UTF-8"?>
<svg width="30px" height="20px" viewBox="0 0 30 20" version="1.1" xmlns="http://www.w3.org/2000/svg" xmlns:xlink="http://www.w3.org/1999/xlink">
    <!-- Generator: Sketch 52.4 (67378) - http://www.bohemiancoding.com/sketch -->
    <title>第三方账户icon</title>
    <desc>Created with Sketch.</desc>
    <g id="Page-1" stroke="none" stroke-width="1" fill="none" fill-rule="evenodd">
        <g id="z" transform="translate(-809.000000, -994.000000)" fill="#FFFFFF">
            <g id="第三方账户icon" transform="translate(809.000000, 989.000000)">
                <g>
                    <path d="M2,5 L28,5 C29.1045695,5 30,5.8954305 30,7 L30,23 C30,24.1045695 29.1045695,25 28,25 L2,25 C0.8954305,25 1.3527075e-16,24.1045695 0,23 L0,7 C-1.3527075e-16,5.8954305 0.8954305,5 2,5 Z M17,8 L17,10 L27,10 L27,8 L17,8 Z M19,13 L19,15 L27,15 L27,13 L19,13 Z M21,18 L21,20 L27,20 L27,18 L21,18 Z M10.3562105,8.00136742 C8.29728559,8.07565318 6.6795653,9.80274603 6.73470185,11.8826112 C6.75310314,12.4211773 6.89615525,12.6225006 7.09841236,13.0681698 C7.31895856,13.0124725 7.53959452,12.993884 7.77856445,12.993884 C9.30432317,12.9567751 10.3934082,13.6924613 11,14.99236 C12.7280158,14.6209766 14.0988873,13.0249226 14.043661,11.1678467 C13.9885245,9.08798149 12.4335367,7.9456701 10.3562105,8.00136742 Z M16.2360384,20.5013897 C17.4847294,18.8467447 17.1725735,16.4668846 15.5199582,15.2026718 C15.097586,14.8680026 15.0233675,14.7305595 14.5458984,14.600423 C14.4540404,14.804933 14.3255109,14.9908553 14.1969813,15.1767549 C13.2789165,16.4038377 11.5874246,16.8387973 10.1918908,16.4854949 C9.36557191,18.10301 9.76949623,20.0924151 11.2385748,21.2264913 C12.8727871,22.4907948 14.9874371,22.174736 16.2360384,20.5013897 Z M9.17907715,15.6688232 C8.49649506,15.1170522 7.81190068,14.99236 6.81723821,14.99236 C4.63298504,14.99236 3,16.2068981 3,18.2666442 C3,20.3264352 4.77470867,22 6.95896184,22 C7.93410292,22 8.47694986,21.7965814 9.17907715,21.2264913 C8.32092157,20.564402 7.99746479,19.3477718 7.99746479,18.2075693 C7.99746479,17.0672769 8.34044297,16.3676629 9.17907715,15.6688232 Z"></path>
                </g>
            </g>
        </g>
    </g>
</svg>