<?xml version="1.0" encoding="UTF-8"?>
<svg width="30px" height="20px" viewBox="0 0 30 20" version="1.1" xmlns="http://www.w3.org/2000/svg" xmlns:xlink="http://www.w3.org/1999/xlink">
    <!-- Generator: Sketch 52.4 (67378) - http://www.bohemiancoding.com/sketch -->
    <title>账户icon</title>
    <desc>Created with Sketch.</desc>
    <g id="Page-1" stroke="none" stroke-width="1" fill="none" fill-rule="evenodd">
        <g id="z" transform="translate(-502.000000, -994.000000)" fill="#FFFFFF">
            <g id="账户icon" transform="translate(502.000000, 989.000000)">
                <g>
                    <path d="M7.99746479,16.000705 L9.99576446,16.000705 L9.99576446,13.0005127 L7.99746479,13.0005127 L7.99746479,16.000705 Z M5.00001528,16.000705 L6.99831495,16.000705 L6.99831495,13.0005127 L5.00001528,13.0005127 L5.00001528,16.000705 Z M2.00256577,16.000705 L4.00086545,16.000705 L4.00086545,13.0005127 L2.00256577,13.0005127 L2.00256577,16.000705 Z M23.1607578,19.0008973 L27.9804615,19.0008973 L26.8053663,23.0011536 L21.9855625,23.0011536 L23.1607578,19.0008973 Z M2.9372346e-12,23.0768433 C3.40980747e-12,23.5712585 0.0780967214,23.9830824 0.344056012,24.342386 C0.609966477,24.7016652 1.00973547,24.9387631 1.45286261,25 L28.5676491,25 C29.4618866,24.8712611 30.0893835,24.0529734 29.9807684,23.1573838 L29.9929837,11 L0,11 L2.9372346e-12,23.0768433 Z M1.42107677,5 C0.550183633,5.12833225 0.0313494779,5.89503479 5.22619464e-13,6.78986133 L0,10 L29.9929837,10.0063633 L29.9929837,6.78986133 C30.0736571,5.91949949 29.4496341,5.13614463 28.5855124,5 L1.42107677,5 Z"></path>
                </g>
            </g>
        </g>
    </g>
</svg>