<?xml version="1.0" encoding="UTF-8"?>
<svg width="30px" height="20px" viewBox="0 0 30 20" version="1.1" xmlns="http://www.w3.org/2000/svg" xmlns:xlink="http://www.w3.org/1999/xlink">
    <!-- Generator: Sketch 52.4 (67378) - http://www.bohemiancoding.com/sketch -->
    <title>企业账户icon </title>
    <desc>Created with Sketch.</desc>
    <g id="Page-1" stroke="none" stroke-width="1" fill="none" fill-rule="evenodd">
        <g id="z" transform="translate(-911.000000, -994.000000)" fill="#FFFFFF">
            <g id="企业账户icon-" transform="translate(911.000000, 989.000000)">
                <g id="企业账户icon">
                    <path d="M2,5 L28,5 C29.1045695,5 30,5.8954305 30,7 L30,23 C30,24.1045695 29.1045695,25 28,25 L2,25 C0.8954305,25 1.3527075e-16,24.1045695 0,23 L0,7 C-1.3527075e-16,5.8954305 0.8954305,5 2,5 Z M15.9946464,21.0007629 L15.9946464,12.7773546 C15.9946464,12.4167687 15.8561914,12.1744713 15.5052388,12.0640268 L11.8659384,11.0812831 C11.4190705,10.9403893 10.9963684,11.1221317 10.9963684,11.5449039 L10.9967055,21.0007629 L10.0037979,21.0007629 L10.0062103,8.7301043 C10.0062103,8.16768963 9.52928409,7.86812888 8.97107972,8.05606591 L4.5596051,9.2569732 C4.12129036,9.40425069 3.99671158,9.89247499 3.99671158,10.3736431 L4.00056434,21.0007629 L3.44984844,21.0007629 C3.152462,21.0007629 3,21.215331 3,21.4907532 C3,21.766266 3.14860923,22 3.44599567,22 L16.5738006,22 C16.8711689,22 17,21.766266 17,21.4907532 C17,21.215331 16.8750217,21.0007629 16.5776534,21.0007629 L15.9946464,21.0007629 Z M5.99876455,19 L5.99876455,18 L7.99794091,18 L7.99794091,19 L5.99876455,19 Z M5.99876455,17 L5.99876455,16 L7.99794091,16 L7.99794091,17 L5.99876455,17 Z M5.99876455,15 L5.99876455,14 L7.99794091,14 L7.99794091,15 L5.99876455,15 Z M5.99876455,13 L5.99876455,12 L7.99794091,12 L7.99794091,13 L5.99876455,13 Z M12.9958818,19 L12.9958818,18 L13.99547,18 L13.99547,19 L12.9958818,19 Z M12.9958818,17 L12.9958818,16 L13.99547,16 L13.99547,17 L12.9958818,17 Z M12.9958818,15 L12.9958818,14 L13.99547,14 L13.99547,15 L12.9958818,15 Z M17,8 L17,10 L27,10 L27,8 L17,8 Z M19,13 L19,15 L27,15 L27,13 L19,13 Z M21,18 L21,20 L27,20 L27,18 L21,18 Z"></path>
                </g>
            </g>
        </g>
    </g>
</svg>