<?xml version="1.0" encoding="UTF-8"?>
<svg width="30px" height="30px" viewBox="0 0 30 30" version="1.1" xmlns="http://www.w3.org/2000/svg" xmlns:xlink="http://www.w3.org/1999/xlink">
    <!-- Generator: Sketch 52.4 (67378) - http://www.bohemiancoding.com/sketch -->
    <title>主体人员-男icon</title>
    <desc>Created with Sketch.</desc>
    <g id="Page-1" stroke="none" stroke-width="1" fill="none" fill-rule="evenodd">
        <g id="z" transform="translate(-297.000000, -989.000000)" fill="#FFFFFF">
            <g id="主体人员-男icon" transform="translate(297.000000, 989.000000)">
                <path d="M17.119615,26.2230417 L15.031393,29.993884 L12.9914183,26.2230417 L12.519139,24.3454354 L13.4181685,20.3496609 L16.6901467,20.3496609 L17.5450062,24.3454354 L17.119615,26.2230417 Z M24.2887469,22.4365697 C18.6873105,21.9418547 18.3536571,19.4200317 18.3536571,19.4200317 L18.3536571,16.9002474 C21.6263148,15.6383166 22.625916,10.8141664 22.625916,10.8141664 C22.625916,8.89578687 21.683396,8.84210214 21.683396,8.84210214 L21.683396,5.71683565 C21.9022075,0.508058158 18.7437122,1.71358605 18.6873105,1.71358605 C18.6343065,1.71358605 16.9150739,0.342926661 16.9150739,0.342926661 C15.691225,-0.588741172 12.9737503,0.673189656 12.9737503,0.673189656 L12.8616264,0.674548763 C9.78603486,0.755415628 8.98214074,2.97483732 8.98214074,2.97483732 L9.03854244,8.73065537 C7.43279281,8.73065537 7.65092469,10.9786183 7.65092469,10.9786183 C7.65092469,13.4447179 11.9768672,16.8438445 11.9768672,16.8438445 C12.2541189,20.0812373 10.5355659,21.7216794 10.5355659,21.7216794 C10.5355659,21.7216794 7.59724115,21.830408 4.2695408,22.8184787 C4.19003479,22.8436222 4.11256739,22.8660475 4.03577953,22.891191 C0.896990905,23.9526535 0,26.9841416 0,26.9841416 L0,29.9449562 L13.5839759,30 L15.5906533,29.9442766 L29.999589,29.9442766 L29.999589,27.6405903 C30.0559907,24.2469002 24.2887469,22.4365697 24.2887469,22.4365697 Z"></path>
            </g>
        </g>
    </g>
</svg>