<?xml version="1.0" standalone="no"?><!DOCTYPE svg PUBLIC "-//W3C//DTD SVG 1.1//EN" "http://www.w3.org/Graphics/SVG/1.1/DTD/svg11.dtd"><svg t="1594877471167" class="icon" viewBox="0 0 1024 1024" version="1.1" xmlns="http://www.w3.org/2000/svg" p-id="10969" xmlns:xlink="http://www.w3.org/1999/xlink" width="200" height="200"><defs><style type="text/css"></style></defs><path d="M512.564 513.297m-448.352 0a448.352 448.352 0 1 0 896.704 0 448.352 448.352 0 1 0-896.704 0Z" fill="#77B3D4" p-id="10970"></path><path d="M792.785 695.44c0 30.952-25.092 56.044-56.044 56.044H288.388c-30.952 0-56.044-25.092-56.044-56.044V415.22c0-30.952 25.092-56.044 56.044-56.044H736.74c30.952 0 56.044 25.092 56.044 56.044v280.22z" fill="#231F20" p-id="10971"></path><path d="M792.785 667.418c0 30.952-25.092 56.044-56.044 56.044H288.388c-30.952 0-56.044-25.092-56.044-56.044v-280.22c0-30.952 25.092-56.044 56.044-56.044H736.74c30.952 0 56.044 25.092 56.044 56.044v280.22z" fill="#FFFFFF" p-id="10972"></path><path d="M232.344 415.22h560.44v84.066h-560.44z" fill="#4F5D73" p-id="10973"></path><path d="M596.63 639.396m-28.022 0a28.022 28.022 0 1 0 56.044 0 28.022 28.022 0 1 0-56.044 0Z" fill="#E0995E" p-id="10974"></path><path d="M708.719 639.396m-28.022 0a28.022 28.022 0 1 0 56.044 0 28.022 28.022 0 1 0-56.044 0Z" fill="#E0995E" p-id="10975"></path><path d="M484.542 639.396m-28.022 0a28.022 28.022 0 1 0 56.044 0 28.022 28.022 0 1 0-56.044 0Z" fill="#E0995E" p-id="10976"></path></svg>