<?xml version="1.0" encoding="UTF-8"?>
<svg width="30px" height="24px" viewBox="0 0 30 24" version="1.1" xmlns="http://www.w3.org/2000/svg" xmlns:xlink="http://www.w3.org/1999/xlink">
    <!-- Generator: Sketch 52.4 (67378) - http://www.bohemiancoding.com/sketch -->
    <title>账户组-只含人员icon copy 4</title>
    <desc>Created with Sketch.</desc>
    <g id="Page-1" stroke="none" stroke-width="1" fill="none" fill-rule="evenodd">
        <g id="z" transform="translate(-1014.000000, -992.000000)" fill="#FFFFFF">
            <g id="账户组-只含人员icon" transform="translate(1014.000000, 989.000000)">
                <g id="账户组">
                    <path d="M14.3736614,3.55900094 L15.6008166,3 C16.1917194,3 16.5702775,4.24585705 16.8876012,4.29559599 C17.2066945,4.34546985 17.2820851,4.14399566 17.9323293,4.27607818 C18.8859054,4.47336999 18.7531077,5.8924139 18.7987865,6.3885441 C18.8442595,6.88480922 18.8939301,8.32777819 18.8026548,8.77398956 C18.7115029,9.22033585 18.9950408,9.17046199 18.9950408,9.17046199 C19.676972,9.17046199 19.621499,11.0770465 19.621499,11.0770465 C19.5163554,11.5819012 19.2745869,11.6425234 18.640104,12.08028 C18.2377601,13.3347717 17.012606,14.0463198 17.012606,14.0463198 C17.012606,14.0463198 17.012606,14.4663028 17.012606,15.3062688 C17.0420332,16.3499318 17.6598683,17.0049717 18.8661113,17.2713885 C21.4930959,17.6961483 21.3656735,19.2008651 21.5808215,19.7276617 C21.7242535,20.0788594 21.8630002,22.499904 21.9970617,26.9907954 L8.0022145,26.9907954 C8.0022145,26.9907954 8.12126632,19.2107447 8.63740177,18.4672005 C9.15353721,17.7236562 9.38297145,17.7151551 10.9377501,17.2713885 C11.9742693,16.9755441 12.6604631,16.3473518 12.9963317,15.3868116 C12.9963317,14.4643881 12.9963317,14.0031763 12.9963317,14.0031763 C12.9963317,14.0031763 11.5801342,13.3714688 11.1777491,12.1170221 C10.3331848,11.7464984 10.3688637,11.5060336 10.2875472,11.0273075 C10.2875472,11.0273075 10.1050788,9.0817324 10.676064,9.12076802 C10.676064,9.12076802 11.2926869,9.12076802 11.2015762,8.67437676 C11.1718232,7.93126078 11.2848268,6.48829181 11.3302999,5.9920267 C11.3759787,5.49594146 11.7130555,4.15699254 12.6666316,3.95758706 C13.6202078,3.75836146 13.239551,3.85797426 13.5568747,3.8081004 C13.8740339,3.75836146 13.782882,3.55900094 14.3736614,3.55900094 Z M21.3775205,16.2458597 C21.3775205,16.2458597 20.9038733,15.7691709 20.5947852,14.8244058 C19.9468312,14.5457595 20.1073184,14.3648095 20.0440202,14.0052502 C20.0440202,14.0052502 19.8478325,12.5413965 20.2856559,12.5710322 C20.2856559,12.5710322 20.5234255,12.443391 20.4542046,12.1072842 C20.4303906,11.5476507 20.3531494,10.5901215 20.3888087,10.2157223 C20.4244679,9.84326637 20.2539862,9.02618655 20.9851863,8.87522553 C21.7163452,8.72616367 21.4231331,8.80067252 21.6668665,8.76238018 C21.9105998,8.72408784 21.8417476,8.16182597 22.293555,8.16182597 L23.2327881,8 C23.6845544,8 23.973326,8.89850126 24.2170594,8.9367936 C24.4607927,8.97508593 24.0327581,8.82191659 24.5300137,8.92195366 C25.2612137,9.07083886 25.1582255,10.1391376 25.1938848,10.511461 C25.229544,10.8837402 25.172045,11.9710306 25.1027829,12.30727 C25.0333975,12.6435094 25.7350337,12.4870353 25.7350337,12.4870353 C26.1373212,12.2422205 25.9757385,13.723587 25.9490304,13.9210766 C25.9223223,14.1185662 26.1641693,14.3347778 25.7428894,14.6765442 C25.4337602,15.6213093 24.290311,16.3181161 24.290311,16.3181161 C24.290311,16.3181161 24.2209255,17.039443 24.2170594,17.2097489 C24.2308789,17.2778978 23.834514,18.3843122 25.8477614,18.7034592 C27.86105,19.0226503 28.2077304,19.7227331 28.5881782,20.112149 C29.7611913,20.8419117 30,26.9958158 30,26.9958158 L24.0112659,27 C24.0112659,27 23.9019103,19.7153469 23.327249,19.0131882 C22.928951,18.3853617 22.1959151,17.820483 21.4131798,17.3289542 C21.4012933,16.8969619 21.3775205,16.2458597 21.3775205,16.2458597 Z M8.51012973,16.2369719 C8.51012973,16.2369719 8.50023578,16.8873353 8.48842027,17.3188374 C7.71035481,17.8098083 6.85847769,18.3728859 6.46447754,19 C5.92292665,20.642805 6,27 6,27 L0.000771938491,26.9907954 C0.000771938491,26.9907954 -0.0796622268,20.9999505 1.401569,20.0988739 C1.779747,19.7098999 2.12440003,19.0106115 4.12563623,18.6917826 C5.81562171,18.3559247 5.62845427,17.2678389 5.64219133,17.1997673 C5.63834822,17.0296546 5.67170965,16.3091462 5.67170965,16.3091462 C5.67170965,16.3091462 4.85435457,15.7311778 4.5471105,14.7874848 C4.06463714,14.4600532 4.08066434,14.2641773 4,13.8858795 C4,13.6936008 4.12162959,12.6004604 4.639713,12.6004604 C4.639713,12.6004604 4.85627612,12.6387092 4.78742728,12.3028514 C4.71845579,11.9669936 4.74016526,10.880937 4.77561178,10.5090802 C4.81109918,10.1371793 4.70872538,9.07009281 5.43535863,8.92137656 C5.92981103,8.821453 5.504371,8.97444854 5.74660934,8.93619966 C5.98888856,8.89795077 6.29023222,7.99701855 6.73934414,7.99701855 L7.67297363,8.15866089 C8.12204467,8.15866089 7.95071248,8.72373527 8.19295082,8.76198415 C8.43523004,8.80023304 8.14376724,8.72580874 8.87060491,8.87470145 C9.5974017,9.02549117 9.42793707,9.84164382 9.46342447,10.2136771 C9.498871,10.5876515 9.45156808,11.5440941 9.42793707,12.1030925 C9.35896558,12.438818 9.71351256,12.5663143 9.71351256,12.5663143 C10.1488465,12.5367122 9.95387023,13.9989048 9.95387023,13.9989048 C9.89078605,14.3580561 10.1093934,14.5388009 9.46530514,14.817131 C9.15806107,15.760824 8.51012973,16.2369719 8.51012973,16.2369719 Z"></path>
                </g>
            </g>
        </g>
    </g>
</svg>