<?xml version="1.0" encoding="UTF-8"?>
<svg width="30px" height="24px" viewBox="0 0 30 24" version="1.1" xmlns="http://www.w3.org/2000/svg" xmlns:xlink="http://www.w3.org/1999/xlink">
    <!-- Generator: Sketch 52.4 (67378) - http://www.bohemiancoding.com/sketch -->
    <title>账户组-只包含企业</title>
    <desc>Created with Sketch.</desc>
    <g id="Page-1" stroke="none" stroke-width="1" fill="none" fill-rule="evenodd">
        <g id="z" transform="translate(-1116.000000, -992.000000)" fill="#FFFFFF">
            <g id="账户组-只包含企业" transform="translate(1116.000000, 992.000000)">
                <g id="Combined-Shape">
                    <path d="M23,0.997305678 L22.9936157,24 L7.01426495,24 L7,0.997305678 C7,0.47837264 7.35561071,3.7658765e-13 8.01805497,3.7658765e-13 L21.9872483,3.7658765e-13 C22.5142244,0.0484977959 23,0.554703344 23,0.997305678 Z M10.0066444,15.9649738 L13.9990238,15.9649738 L13.9990238,13.9703625 L10.0066444,13.9703625 L10.0066444,15.9649738 Z M10.0066444,10.9757511 L13.9990238,10.9757511 L13.9990238,8.98113975 L10.0066444,8.98113975 L10.0066444,10.9757511 Z M10.0066444,5.98652839 L13.9990238,5.98652839 L13.9990238,3.99191703 L10.0066444,3.99191703 L10.0066444,5.98652839 Z M15.9952135,15.9649738 L19.9875929,15.9649738 L19.9875929,13.9703625 L15.9952135,13.9703625 L15.9952135,15.9649738 Z M10.0066444,20.9649738 L13.9990238,20.9649738 L13.9990238,18.9703625 L10.0066444,18.9703625 L10.0066444,20.9649738 Z M15.9952135,20.9649738 L19.9875929,20.9649738 L19.9875929,18.9703625 L15.9952135,18.9703625 L15.9952135,20.9649738 Z M15.9952135,10.9757511 L19.9875929,10.9757511 L19.9875929,8.98113975 L15.9952135,8.98113975 L15.9952135,10.9757511 Z M15.9952135,5.98652839 L19.9875929,5.98652839 L19.9875929,3.99191703 L15.9952135,3.99191703 L15.9952135,5.98652839 Z M30,6.99730568 L29.9936157,24 L24.0142649,24 L24,4.99730568 C24,4.47837264 24.3556107,4 25.018055,4 L28.9872483,6 C29.5142244,6.0484978 30,6.55470334 30,6.99730568 Z M26.0066444,20.9649738 L28.0066444,20.9649738 L28.0066444,18.9703625 L26.0066444,18.9703625 L26.0066444,20.9649738 Z M26.0066444,15.9757511 L28.0066444,15.9757511 L28.0066444,13.9811397 L26.0066444,13.9811397 L26.0066444,15.9757511 Z M26.0066444,10.9865284 L28.0066444,10.9865284 L28.0066444,8.99191703 L26.0066444,8.99191703 L26.0066444,10.9865284 Z M-2.52953214e-12,6.99730568 C-2.52953214e-12,6.55470334 0.485775589,6.0484978 1.01275167,6 L4.98194503,4 C5.64438929,4 6,4.47837264 6,4.99730568 L5.98573505,24 L0.00638427239,24 L-2.52953214e-12,6.99730568 Z M3.99335565,20.9649738 L3.99335565,18.9703625 L1.99335565,18.9703625 L1.99335565,20.9649738 L3.99335565,20.9649738 Z M3.99335565,15.9757511 L3.99335565,13.9811397 L1.99335565,13.9811397 L1.99335565,15.9757511 L3.99335565,15.9757511 Z M3.99335565,10.9865284 L3.99335565,8.99191703 L1.99335565,8.99191703 L1.99335565,10.9865284 L3.99335565,10.9865284 Z"></path>
                </g>
            </g>
        </g>
    </g>
</svg>