<?xml version="1.0" encoding="UTF-8"?>
<svg width="30px" height="20px" viewBox="0 0 30 20" version="1.1" xmlns="http://www.w3.org/2000/svg" xmlns:xlink="http://www.w3.org/1999/xlink">
    <!-- Generator: Sketch 52.4 (67378) - http://www.bohemiancoding.com/sketch -->
    <title>账户组-多个账户</title>
    <desc>Created with Sketch.</desc>
    <g id="Page-1" stroke="none" stroke-width="1" fill="none" fill-rule="evenodd">
        <g id="z" transform="translate(-1321.000000, -994.000000)" fill="#FFFFFF">
            <g id="账户组-多个账户" transform="translate(1321.000000, 989.000000)">
                <g>
                    <path d="M11.9974648,16.000705 L13.9957645,16.000705 L13.9957645,13.0005127 L11.9974648,13.0005127 L11.9974648,16.000705 Z M9.00001528,16.000705 L10.998315,16.000705 L10.998315,13.0005127 L9.00001528,13.0005127 L9.00001528,16.000705 Z M6.00256577,16.000705 L8.00086545,16.000705 L8.00086545,13.0005127 L6.00256577,13.0005127 L6.00256577,16.000705 Z M19.1607578,18.0008973 L23.9804615,18.0008973 L22.8053663,23.0011536 L17.9855625,23.0011536 L19.1607578,18.0008973 Z M4,23.0768433 C4,23.5712585 4.07809672,23.9830824 4.34405601,24.342386 C4.60996648,24.7016652 5.00973547,24.9387631 5.45286261,25 L24.5676491,25 C25.4618866,24.8712611 26.0893835,24.0529734 25.9807684,23.1573838 L25.9929837,11 L4,11 L4,23.0768433 Z M5.42107677,5 C4.55018363,5.12833225 4.03134948,5.89503479 4,6.78986133 L4,9 L25.9929837,9.00636332 L25.9929837,6.78986133 C26.0736571,5.91949949 25.4496341,5.13614463 24.5855124,5 L5.42107677,5 Z" id="账户icon"></path>
                    <path d="M27,17.0008973 L27,12 L29.9929837,12 L29.9807684,20.1573838 C30.0893835,21.0529734 29.4618866,21.8712611 28.5676491,22 L27,22 L27,19.5042143 L27.9804615,17.0008973 L27,17.0008973 Z M27,8 L28.5855124,8 C29.4496341,8.13614463 30.0736571,8.91949949 29.9929837,9.78986133 L29.9929837,11.0063633 L27,11.0051725 L27,8 Z" id="Combined-Shape"></path>
                    <path d="M3,16.000705 L3,22 L1.45286261,22 C1.00973547,21.9387631 0.609966477,21.7016652 0.344056012,21.342386 C0.0780967214,20.9830824 4.72525662e-13,20.5712585 0,20.0768433 L0,12 L3,12 L3,14.0005127 L2.00256577,14.0005127 L2.00256577,16.000705 L3,16.000705 Z M3,8 L3,11.0011936 L1.45519152e-11,11 L1.45519152e-11,9.78986133 C0.0313494779,8.89503479 0.550183633,8.12833225 1.42107677,8 L3,8 Z" id="Combined-Shape"></path>
                </g>
            </g>
        </g>
    </g>
</svg>