<?xml version="1.0" encoding="UTF-8"?>
<svg width="30px" height="30px" viewBox="0 0 30 30" version="1.1" xmlns="http://www.w3.org/2000/svg" xmlns:xlink="http://www.w3.org/1999/xlink">
    <!-- Generator: Sketch 52.4 (67378) - http://www.bohemiancoding.com/sketch -->
    <title>账户组-包含人员和企业</title>
    <desc>Created with Sketch.</desc>
    <g id="Page-1" stroke="none" stroke-width="1" fill="none" fill-rule="evenodd">
        <g id="z" transform="translate(-1219.000000, -989.000000)" fill="#FFFFFF">
            <g id="账户组-包含人员和企业" transform="translate(1219.000000, 989.000000)">
                <g>
                    <path d="M28.9936446,29.005796 L28.9936446,20 C28.9936446,19.5839393 28.681885,19.3043655 28.2767728,19.1769295 L25.9868436,18 C25.4710144,17.8374302 25.0040583,18.5966636 25.0040583,19.0844777 L25,29 L23.9970617,29 L24.0042937,15.836632 C24.0042937,15.187692 23.9494738,14.847841 23.3051265,15.0646914 L17.1548345,16.4503537 C16.6488784,16.6202893 15.9952135,17.177829 15.9952135,17.733023 L15.9952135,29 L15.5148224,29.005796 C15.1715428,29.005796 15,29.1874632 15,29.505258 C15,29.8231574 15.1715428,30 15.5148224,30 L29.5146841,30 C29.8579427,30 30,29.8231574 30,29.505258 C30,29.1874632 29.8579427,29.005796 29.5146841,29.005796 L28.9936446,29.005796 Z M18,28 L18,27 L22,27 L22,28 L18,28 Z M18,25 L18,24 L22,24 L22,25 L18,25 Z M18,22 L18,21 L22,21 L22,22 L18,22 Z M18,19 L18,18 L22,18 L22,19 L18,19 Z M26,27 L26,26 L28,26 L28,27 L26,27 Z M26,24 L26,23 L28,23 L28,24 L26,24 Z M26,21 L26,20 L28,20 L28,21 L26,21 Z" id="企业icon-copy"></path>
                    <path d="M8.74607896,13.0450254 L7.49959438,15 L6.28190914,13.0450254 L6,12.0715896 L6.53664143,10 L8.48972418,10 L9,12.0715896 L8.74607896,13.0450254 Z M12.1443734,11.2182848 C9.34365526,10.9709274 9.17682854,9.71001587 9.17682854,9.71001587 L9.17682854,8.4501237 C10.8131574,7.81915829 11.312958,5.40708318 11.312958,5.40708318 C11.312958,4.44789343 10.841698,4.42105107 10.841698,4.42105107 L10.841698,2.85841782 C10.9511037,0.254029079 9.37185611,0.856793023 9.34365526,0.856793023 C9.31715325,0.856793023 8.45753697,0.17146333 8.45753697,0.17146333 C7.84561249,-0.294370586 6.48687513,0.336594828 6.48687513,0.336594828 L6.4308132,0.337274382 C4.89301743,0.377707814 4.49107037,1.48741866 4.49107037,1.48741866 L4.51927122,4.36532768 C3.71639641,4.36532768 3.82546235,5.48930915 3.82546235,5.48930915 C3.82546235,6.72235896 5.9884336,8.42192223 5.9884336,8.42192223 C6.12705946,10.0406186 5.26778295,10.8608397 5.26778295,10.8608397 C5.26778295,10.8608397 3.79862057,10.915204 2.1347704,11.4092394 C2.09501739,11.4218111 2.05628369,11.4330237 2.01788977,11.4455955 C0.448495452,11.9763268 0,13.4920708 0,13.4920708 L0,14.9724781 L6.79198795,15 L7.79532664,14.9721383 L14.9997945,14.9721383 L14.9997945,13.8202951 C15.0279953,12.1234501 12.1443734,11.2182848 12.1443734,11.2182848 Z" id="男icon"></path>
                    <path d="M7.82290199,23.3361489 C6.21485775,21.9512292 5.00911508,20.107186 4.4136687,18 L4.41423516,18 C5.01043657,20.1090906 6.21607125,21.9524001 7.82313086,23.3363718 Z M4.4136687,18 C4.30620443,17.6197017 4.21861865,17.2308324 4.15213407,16.8345441 L3.16591688,18 L4.4136687,18 Z M4.41423516,18 L5.20003623,18 L4.22002297,17.1989322 C4.27501391,17.4698378 4.33988577,17.7369855 4.41423516,18 Z M13,25.8183834 C13.296557,25.8729267 13.5971358,25.9155427 13.9011997,25.945732 L13,24.9506248 L13,25.8183834 Z M13,25.818627 L13,26.9589262 L14.082219,25.9623119 C13.7163051,25.9321247 13.3552589,25.8839408 13,25.818627 Z M25.8183834,13 L24.9506248,13 L25.945732,13.9011997 C25.9155427,13.5971358 25.8729267,13.296557 25.8183834,13 Z M18,4.41423516 C17.7369855,4.33988577 17.4698378,4.27501391 17.1989322,4.22002297 L18,5.20003623 L18,4.41423516 Z M18,4.4136687 L18,3.16591688 L16.8345441,4.15213407 C17.2308324,4.21861865 17.6197017,4.30620443 18,4.4136687 Z M25.818627,13 C25.8839408,13.3552589 25.9321247,13.7163051 25.9623119,14.082219 L26.9589262,13 L25.818627,13 Z" id="Combined-Shape" stroke="#FFFFFF" stroke-width="2"></path>
                </g>
            </g>
        </g>
    </g>
</svg>