<?xml version="1.0" encoding="UTF-8"?>
<svg width="22px" height="20px" viewBox="0 0 22 20" version="1.1" xmlns="http://www.w3.org/2000/svg" xmlns:xlink="http://www.w3.org/1999/xlink">
    <!-- Generator: Sketch 52.4 (67378) - http://www.bohemiancoding.com/sketch -->
    <title>IP</title>
    <desc>Created with Sketch.</desc>
    <g id="IP" stroke="none" stroke-width="1" fill="none" fill-rule="evenodd">
        <path d="M4.03825929,0 L4.03825929,20 L0,20 L0,0 L4.03825929,0 Z M11,0 L16.2197643,0 C17.5920286,0 18.6471405,0.111178629 19.3851315,0.333539222 C20.1231225,0.555899815 20.6776047,0.87708252 21.0485947,1.29709697 C21.4195848,1.71711143 21.6708969,2.22565071 21.8025385,2.82273008 C21.9341802,3.41980945 22,4.34423916 22,5.59604694 L22,7.33786288 C22,8.61437739 21.8723494,9.54498369 21.6170444,10.1297097 C21.3617394,10.7144357 20.8930224,11.1632679 20.2108794,11.4762199 C19.5287364,11.7891718 18.6371769,12.010437 17.5361741,12.010437 L15,12.010437 L15,20 L11,20 L11,0 Z M15,3.0015564 L15,8.9949646 C15.1436091,9.00320018 16.8962823,8.9949646 17,8.9949646 C17.4627403,8.9949646 18,8.7141634 18,7.97296143 L18,4.02459717 C18,3.30249023 17.6972507,3.0015564 17.0051947,3.0015564 C16.4082858,3.0015564 15.3501403,3.0015564 15,3.0015564 Z" fill="#FFFFFF"></path>
    </g>
</svg>