<?xml version="1.0" encoding="UTF-8"?>
<svg width="42px" height="20px" viewBox="0 0 42 20" version="1.1" xmlns="http://www.w3.org/2000/svg" xmlns:xlink="http://www.w3.org/1999/xlink">
    <!-- Generator: Sketch 52.4 (67378) - http://www.bohemiancoding.com/sketch -->
    <title>MAC</title>
    <desc>Created with Sketch.</desc>
    <g id="MAC" stroke="none" stroke-width="1" fill="none" fill-rule="evenodd">
        <path d="M14.9953596,-3.41238149e-12 L14.9953596,19.9881517 L10.9974104,19.9881517 L10.9974104,6.94312796 L8.99843584,19.9881517 L5.99997396,19.9881517 L4.00099937,6.94312796 L3.99794918,20 L0,19.9881517 L0,-3.41238149e-12 L6.42464452,-1.77635684e-15 C6.61704178,1.15324431 6.95336522,2.91468412 7.16981214,4.47867299 L7.8672487,9.36018957 L8.88972203,-1.77635684e-15 L14.9953596,-3.41238149e-12 Z M25.9897198,0 L28.9881817,19.9881517 L24.9902325,19.9881517 L23.9907453,15.9929613 L21.9917707,15.9929613 L20.9922834,19.9881517 L16.9943342,20 L18.9933088,0 L25.9897198,0 Z M23.9907453,12.9877237 C23.7342156,10.8155169 23.2477876,8.18381518 22.991258,4.99264599 C22.4781986,8.6577512 22.1200355,11.2894529 21.9917707,12.9877237 L23.9907453,12.9877237 Z M42,8.99018482 L36.9840801,8.99018482 L36.9840801,4.99264599 C36.9840801,4.02107715 36.9840801,3.00250793 35.9845928,3.00250793 C34.9851055,3.00250793 34.9851055,4.02107715 34.9851055,4.99264599 L34.9851055,15.4051749 C34.9851055,16.3372491 34.9851055,16.9964455 36.008436,16.9964455 C37.0317665,16.9964455 36.9840801,16.4557331 36.9840801,15.4051749 L37.0025635,11.9778329 L42,11.9963069 L41.9815165,12.6540284 C41.9815165,14.6366608 41.8392249,16.0426499 41.5546373,16.8720379 C41.2700497,17.7014259 40.6407597,18.4281169 39.6667486,19.0521327 C38.6927375,19.6761485 37.4922768,19.9881517 36.0653305,19.9881517 C34.5822683,19.9881517 33.3597624,19.7235414 32.3977762,19.1943128 C31.4357899,18.6650842 30.7984835,17.9324691 30.485838,16.9964455 C30.1731924,16.0604219 30.016872,14.6524581 30.016872,12.7725118 L30.016872,7.16824645 C30.016872,5.78593306 30.0649706,4.74921357 30.1611692,4.05805687 C30.2573679,3.36690018 30.5439553,2.701425 31.0209402,2.06161137 C31.497925,1.42179775 32.1592807,0.918248282 33.005027,0.550947867 C33.8507732,0.183647453 34.8227656,0 35.9210333,0 C37.412112,0 38.6426343,0.284357346 39.6126372,0.853080569 C40.58264,1.42180379 41.2199464,2.13072245 41.5245753,2.97985782 C41.8292043,3.82899319 41.9815165,5.15007002 41.9815165,6.94312796 L42,8.99018482 Z" fill="#FFFFFF"></path>
    </g>
</svg>