<?xml version="1.0" encoding="UTF-8"?>
<svg width="30px" height="20px" viewBox="0 0 30 20" version="1.1" xmlns="http://www.w3.org/2000/svg" xmlns:xlink="http://www.w3.org/1999/xlink">
    <!-- Generator: Sketch 52.4 (67378) - http://www.bohemiancoding.com/sketch -->
    <title>现金icon</title>
    <desc>Created with Sketch.</desc>
    <g id="Page-1" stroke="none" stroke-width="1" fill="none" fill-rule="evenodd">
        <g id="可视化组件V1.0.1" transform="translate(-521.000000, -5083.000000)" fill="#FFFFFF">
            <g id="现金icon" transform="translate(521.000000, 5078.000000)">
                <g id="现金">
                    <path d="M20.9999736,8 L18.0000088,8 L14.9999121,13.0000391 L11.9999473,8 L9.00002637,8 L11.9999473,13.0000391 L9.00002637,13.0000391 L9.00002637,15 L14.0067139,15 L14.0067139,16.9999609 L9.00002637,16.9999609 L9.00002637,19 L14.0067139,19 L14.0067139,22 L15.9938965,22 L15.9938965,19 L20.9999736,19 L20.9999736,16.9999609 L15.9938965,16.9999609 L15.9938965,15 L20.9999736,15 L20.9999736,13.0000391 L18.0000088,13.0000391 L20.9999736,8 Z M30,18 L30,22.3333594 C30,24.1000391 29.0278876,25 26.9998594,25 L2.99996484,25 C0.971936578,25 0,24.1000391 0,22.3333594 L0,18 C0.0914939619,18.0053516 3.99511719,18.5529046 3.99511719,15 C3.99511719,11.4470954 0.0930320449,12.0028271 0,12.0081787 L0,7.66664063 C0,5.89996094 0.971936578,5 2.99996484,5 L26.9998594,5 C29.0278876,5 30,5.89996094 30,7.66664063 L30,12.0081787 C29.908506,12.0028271 26.0123901,11.5654204 26.0123901,15 C26.0123901,18.4345796 29.2651978,18 30,18 Z"></path>
                </g>
            </g>
        </g>
    </g>
</svg>