<?xml version="1.0" encoding="UTF-8"?>
<svg width="30px" height="30px" viewBox="0 0 30 30" version="1.1" xmlns="http://www.w3.org/2000/svg" xmlns:xlink="http://www.w3.org/1999/xlink">
    <!-- Generator: Sketch 52.4 (67378) - http://www.bohemiancoding.com/sketch -->
    <title>消户icon</title>
    <desc>Created with Sketch.</desc>
    <g id="消户icon" stroke="none" stroke-width="1" fill="none" fill-rule="evenodd">
        <path d="M13.0095271,13.9171493 L13.0095271,12.9985199 L12.0095271,12.9985199 L12.0095271,14.4944995 L13.0095271,13.9171493 Z M7.25787494,20.7019688 L5.18147633,21.9007781 C7.35315236,24.9849919 10.941261,27 15,27 C21.627417,27 27,21.627417 27,15 C27,13.1945828 26.6012968,11.4822877 25.8871358,9.94636004 L22.3283298,12.0010376 L23.0095271,12.0010376 L23.0266868,20.0228256 C23.0846149,20.5004733 22.7499498,20.9368935 22.2730232,21.0055542 L7.8118037,21.0055542 C7.59543104,20.9756531 7.39844134,20.8671345 7.25787494,20.7019688 Z M16.3283298,12.0010376 L18.0623893,10.9998779 L7,10.9998779 L7,9.95459271 C7.01671972,9.47735189 7.29343127,9.06844387 7.75790761,9 L21.5262794,9 L24.2903991,7.40413477 C22.0897607,4.71575729 18.7452487,3 15,3 C8.372583,3 3,8.372583 3,15 C3,16.4961609 3.27381117,17.9283698 3.77405712,19.2492503 L7.00952709,17.3812509 L7.00952709,12.0010376 L16.3283298,12.0010376 Z M10.0095271,14.9988861 L11.0095271,14.9988861 L11.0095271,12.9985199 L10.0095271,12.9985199 L10.0095271,14.9988861 Z M8.00952709,14.9988861 L9.00952709,14.9988861 L9.00952709,12.9985199 L8.00952709,12.9985199 L8.00952709,14.9988861 Z M19.0263575,17.9988556 L18.0263575,19.9924927 L21.0127009,19.9924927 L22.0263575,17.9988556 L19.0263575,17.9988556 Z M15,30 C6.71572875,30 0,23.2842712 0,15 C0,6.71572875 6.71572875,0 15,0 C23.2842712,0 30,6.71572875 30,15 C30,23.2842712 23.2842712,30 15,30 Z" fill="#FFFFFF"></path>
    </g>
</svg>